<svg width="216" height="170" viewBox="0 0 216 170" fill="none" xmlns="http://www.w3.org/2000/svg">
<g clip-path="url(#clip0_948_8016)">
<path d="M23.7571 159.118C33.7266 165.092 45.4612 164.79 55.7129 158.497C71.7465 148.558 88.7259 136.92 107.682 141.988C133.402 148.796 160.129 162.496 186.157 151.672C199.875 146.026 210.024 133.889 213.486 119.211C216.082 108.226 215.687 97.2052 213.141 86.7018C212.505 84.0763 211.73 81.4828 210.821 78.9321C208.236 71.5728 204.043 65.0542 198.046 59.8093C188.438 51.6735 177.385 45.8078 170.784 34.9718C162.708 21.6644 153.943 6.59497 137.638 2.97026C133.774 1.80778 129.748 0.959577 125.554 0.480554C111.885 -1.04958 98.5489 1.13502 86.0607 6.22731C59.2369 17.1533 35.8227 35.4615 18.1019 58.0137C15.3879 61.7742 12.947 65.7529 10.8112 69.8932C2.26662 86.4531 -1.39013 105.582 2.0027 123.487C2.85091 127.963 4.14 132.365 5.90354 136.629C7.66708 140.892 9.90507 145.019 12.648 148.944C15.3055 152.029 19.8364 157.091 23.7571 159.118Z" fill="#E6F0ED"/>
<path d="M92.7186 169.969C100.819 169.481 111.213 166.197 113.187 157.658C114.499 151.701 106.656 149.004 101.512 148.653C93.0863 148.005 81.8399 148.203 77.8322 157.043C76.1267 160.793 78.3296 165.095 81.5927 167.217C84.4318 169.162 88.3311 170.195 92.7186 169.969Z" fill="#E6F0ED"/>
<path d="M8.0236 34.9565C3.28371 40.4028 2.40194 47.1015 6.00224 49.9283C9.60255 52.7552 16.3318 50.6636 21.0915 45.2494C25.8512 39.8368 26.823 33.1198 23.2029 30.2609C19.5827 27.4035 12.7635 29.5118 8.0236 34.9565Z" fill="#E6F0ED"/>
<g opacity="0.37">
<path d="M60.4769 102.503C60.8186 102.459 61.1329 102.702 61.1771 103.043L61.8209 108.043C61.8651 108.384 61.6226 108.699 61.2809 108.743C60.9391 108.787 60.6249 108.545 60.5806 108.203L59.9368 103.204C59.8926 102.86 60.1352 102.548 60.4769 102.503Z" fill="#F5F5F5"/>
<path d="M58.2992 105.324L63.2984 104.68C63.6401 104.636 63.9544 104.879 63.9986 105.22C64.0429 105.562 63.8003 105.876 63.4586 105.921L58.4593 106.564C58.1176 106.609 57.8034 106.366 57.7591 106.024C57.7149 105.681 57.9574 105.368 58.2992 105.324Z" fill="#F5F5F5"/>
<path d="M129.834 33.2693C130.176 33.2251 130.49 33.4676 130.535 33.8094L131.085 38.087C131.13 38.4287 130.887 38.743 130.545 38.7872C130.204 38.8315 129.889 38.5889 129.845 38.2472L129.294 33.9695C129.25 33.6263 129.491 33.3135 129.834 33.2693Z" fill="#F5F5F5"/>
<path d="M127.969 35.6827L132.247 35.132C132.588 35.0877 132.903 35.3303 132.947 35.672C132.991 36.0138 132.749 36.328 132.407 36.3723L128.129 36.923C127.788 36.9672 127.473 36.7247 127.429 36.3829C127.385 36.0412 127.627 35.7269 127.969 35.6827Z" fill="#F5F5F5"/>
<path d="M132.854 139.329C133.195 139.285 133.51 139.527 133.554 139.869L134.104 144.146C134.149 144.488 133.906 144.802 133.564 144.847C133.223 144.891 132.908 144.648 132.864 144.307L132.313 140.029C132.271 139.687 132.512 139.373 132.854 139.329Z" fill="#F5F5F5"/>
<path d="M130.991 141.744L135.268 141.193C135.61 141.149 135.924 141.391 135.968 141.733C136.013 142.075 135.77 142.389 135.428 142.433L131.151 142.984C130.809 143.028 130.495 142.786 130.451 142.444C130.406 142.101 130.647 141.788 130.991 141.744Z" fill="#F5F5F5"/>
<path d="M17.5199 31.939C17.8616 31.8947 18.1759 32.1373 18.2201 32.479L18.7708 36.7567C18.8151 37.0984 18.5725 37.4127 18.2308 37.4569C17.8891 37.5012 17.5748 37.2586 17.5306 36.9169L16.9798 32.6392C16.9356 32.296 17.1766 31.9817 17.5199 31.939Z" fill="#F5F5F5"/>
<path d="M15.6566 34.3524L19.9342 33.8017C20.276 33.7575 20.5902 34 20.6345 34.3418C20.6787 34.6835 20.4361 34.9977 20.0944 35.042L15.8168 35.5927C15.475 35.637 15.1608 35.3944 15.1165 35.0527C15.0723 34.7109 15.3149 34.3967 15.6566 34.3524Z" fill="#F5F5F5"/>
<path d="M175.542 135.504C176.682 135.358 177.728 136.165 177.874 137.304C178.021 138.444 177.214 139.491 176.074 139.637C174.935 139.783 173.89 138.976 173.742 137.837C173.595 136.697 174.402 135.651 175.542 135.504ZM175.914 138.397C176.37 138.339 176.692 137.919 176.634 137.465C176.576 137.008 176.157 136.687 175.702 136.745C175.246 136.802 174.924 137.222 174.982 137.677C175.04 138.133 175.458 138.455 175.914 138.397Z" fill="#F5F5F5"/>
<path d="M19.595 104.708C20.7346 104.561 21.7811 105.368 21.9275 106.508C22.074 107.648 21.267 108.694 20.1274 108.841C18.9878 108.987 17.9413 108.18 17.7948 107.04C17.6468 105.899 18.4554 104.854 19.595 104.708ZM19.9672 107.6C20.4233 107.542 20.7452 107.123 20.6873 106.668C20.6293 106.212 20.2098 105.89 19.7552 105.948C19.299 106.006 18.9771 106.426 19.0351 106.88C19.0931 107.335 19.5111 107.658 19.9672 107.6Z" fill="#F5F5F5"/>
<path d="M194.191 80.1511C194.9 80.0595 195.553 80.563 195.645 81.2723C195.736 81.9833 195.233 82.6347 194.524 82.7262C193.814 82.8177 193.161 82.3143 193.07 81.6049C192.977 80.8955 193.48 80.2426 194.191 80.1511Z" fill="#F5F5F5"/>
<path d="M82.9527 156.682C83.6621 156.59 84.315 157.094 84.4065 157.805C84.4981 158.516 83.9946 159.167 83.2852 159.259C82.5759 159.35 81.9229 158.847 81.8314 158.137C81.7383 157.425 82.2418 156.772 82.9527 156.682Z" fill="#F5F5F5"/>
<path d="M115.265 6.91993C115.975 6.82839 116.627 7.33182 116.719 8.04121C116.811 8.75211 116.307 9.40353 115.598 9.49506C114.888 9.58659 114.235 9.08316 114.144 8.37378C114.051 7.66439 114.554 7.01146 115.265 6.91993Z" fill="#F5F5F5"/>
<path d="M152.337 19.6492C153.265 19.5302 154.116 20.1877 154.235 21.1152C154.354 22.0428 153.697 22.894 152.769 23.0145C151.842 23.1335 150.99 22.476 150.871 21.5485C150.752 20.6209 151.41 19.7682 152.337 19.6492ZM152.61 21.7743C152.855 21.7422 153.027 21.5195 152.996 21.2739C152.964 21.0298 152.74 20.8574 152.498 20.8879C152.253 20.92 152.081 21.1427 152.112 21.3868C152.142 21.6324 152.366 21.8048 152.61 21.7743Z" fill="#F5F5F5"/>
<path d="M57.8147 26.7689C58.7423 26.6499 59.5935 27.3074 59.714 28.235C59.833 29.1625 59.1755 30.0138 58.248 30.1343C57.3204 30.2533 56.4692 29.5958 56.3502 28.6682C56.2297 27.7407 56.8872 26.8894 57.8147 26.7689ZM58.0878 28.894C58.3319 28.862 58.5043 28.6377 58.4738 28.3936C58.4417 28.1495 58.219 27.9772 57.9749 28.0077C57.7308 28.0397 57.5584 28.2624 57.5889 28.5065C57.621 28.7521 57.8437 28.926 58.0878 28.894Z" fill="#F5F5F5"/>
</g>
<path d="M43.8379 30.4851V139.152C43.8379 141.492 45.7342 143.388 48.0744 143.388H178.59C180.93 143.388 182.827 141.492 182.827 139.152V39.7559V31.5362C182.827 28.6163 180.459 26.2487 177.539 26.2487H48.0744C45.7357 26.2487 43.8379 28.1464 43.8379 30.4851Z" fill="#C2DBD5"/>
<path d="M38.6562 25.0679V133.735C38.6562 136.075 40.5525 137.971 42.8927 137.971H173.408C175.749 137.971 177.645 136.075 177.645 133.735V34.3387V26.119C177.645 23.1991 175.277 20.8314 172.357 20.8314H42.8927C40.554 20.8314 38.6562 22.7292 38.6562 25.0679Z" fill="#F7F7F7"/>
<path d="M177.645 42.8482H38.6562V24.3371C38.6562 22.3768 40.2444 20.7887 42.2047 20.7887H174.095C176.055 20.7887 177.643 22.3768 177.643 24.3371V42.8482H177.645Z" fill="#002A1F"/>
<path d="M48.0238 34.8695C49.7088 34.8695 51.0749 33.5035 51.0749 31.8184C51.0749 30.1334 49.7088 28.7673 48.0238 28.7673C46.3387 28.7673 44.9727 30.1334 44.9727 31.8184C44.9727 33.5035 46.3387 34.8695 48.0238 34.8695Z" fill="#FAFAFA"/>
<path d="M56.9202 34.8695C58.6053 34.8695 59.9714 33.5035 59.9714 31.8184C59.9714 30.1334 58.6053 28.7673 56.9202 28.7673C55.2352 28.7673 53.8691 30.1334 53.8691 31.8184C53.8691 33.5035 55.2352 34.8695 56.9202 34.8695Z" fill="#FAFAFA"/>
<path d="M65.8187 34.8695C67.5038 34.8695 68.8698 33.5035 68.8698 31.8184C68.8698 30.1334 67.5038 28.7673 65.8187 28.7673C64.1336 28.7673 62.7676 30.1334 62.7676 31.8184C62.7676 33.5035 64.1336 34.8695 65.8187 34.8695Z" fill="#FAFAFA"/>
<path d="M165.109 34.4592L161.191 30.5431L162.789 28.9459L165.109 31.2662L167.762 28.6118L169.359 30.209L165.109 34.4592Z" fill="#FAFAFA"/>
<path d="M158.875 95.4981H57.7678C56.4985 95.4981 55.4688 94.4683 55.4688 93.1991V76.0518C55.4688 74.7826 56.4985 73.7528 57.7678 73.7528H158.875C160.145 73.7528 161.174 74.7826 161.174 76.0518V93.1991C161.174 94.4683 160.145 95.4981 158.875 95.4981Z" fill="white" stroke="#006A4E" stroke-width="2" stroke-miterlimit="10"/>
<path d="M150.049 92.984L158.528 101.461" stroke="#2E856E" stroke-width="6" stroke-miterlimit="10" stroke-linecap="square"/>
<path d="M133.383 76.3158C137.898 71.8001 145.22 71.8001 149.737 76.3158C154.252 80.8314 154.252 88.1525 149.737 92.6697C145.221 97.1853 137.9 97.1853 133.383 92.6697C128.867 88.1541 128.867 80.8314 133.383 76.3158Z" stroke="#2E856E" stroke-width="6" stroke-miterlimit="10" stroke-linecap="square"/>
</g>
<defs>
<clipPath id="clip0_948_8016">
<rect width="214.507" height="170" fill="white" transform="translate(0.746094)"/>
</clipPath>
</defs>
</svg>
