<svg width="185" height="150" viewBox="0 0 185 150" fill="none" xmlns="http://www.w3.org/2000/svg">
<g clip-path="url(#clip0_895_5400)">
<path d="M19.746 140.399C28.301 145.67 38.3705 145.403 47.1677 139.851C60.9263 131.081 75.4965 120.812 91.7634 125.283C113.833 131.291 136.769 143.379 159.103 133.828C170.875 128.846 179.584 118.137 182.554 105.187C184.783 95.4934 184.443 85.7694 182.259 76.5016C181.713 74.185 181.048 71.8967 180.267 69.6461C178.05 63.1526 174.451 57.4008 169.305 52.773C161.06 45.5944 151.576 40.4187 145.912 30.8575C138.981 19.1157 131.46 5.81916 117.469 2.62088C114.153 1.59517 110.698 0.846751 107.099 0.424083C95.3699 -0.926032 83.9258 1.00155 73.2095 5.49475C50.1917 15.1354 30.0997 31.2896 14.8932 51.1887C12.5643 54.5067 10.4698 58.0173 8.63703 61.6706C1.30478 76.2822 -1.83312 93.1607 1.07831 108.96C1.80617 112.909 2.91235 116.792 4.42567 120.555C5.93898 124.317 7.85943 127.958 10.2132 131.422C12.4936 134.143 16.3816 138.61 19.746 140.399Z" fill="#E6F0ED"/>
<path d="M78.9228 149.973C85.8741 149.542 94.793 146.644 96.487 139.11C97.6128 133.854 90.8827 131.474 86.4684 131.164C79.2383 130.592 69.5876 130.767 66.1486 138.568C64.6851 141.876 66.5754 145.672 69.3756 147.545C71.8118 149.261 75.1578 150.172 78.9228 149.973Z" fill="#E6F0ED"/>
<path d="M6.24532 30.844C2.17795 35.6495 1.4213 41.5601 4.51076 44.0544C7.60023 46.5487 13.3747 44.7032 17.459 39.926C21.5434 35.1501 22.3773 29.2233 19.2708 26.7008C16.1643 24.1796 10.3127 26.0399 6.24532 30.844Z" fill="#E6F0ED"/>
<g opacity="0.37">
<path d="M51.257 90.4442C51.5502 90.4052 51.8199 90.6192 51.8578 90.9207L52.4103 95.3318C52.4482 95.6334 52.2401 95.9106 51.9468 95.9497C51.6536 95.9887 51.3839 95.7747 51.346 95.4732L50.7935 91.0621C50.7556 90.7592 50.9637 90.4833 51.257 90.4442Z" fill="#F5F5F5"/>
<path d="M49.3878 92.9331L53.6777 92.3651C53.971 92.3261 54.2406 92.5401 54.2786 92.8416C54.3166 93.1431 54.1084 93.4204 53.8152 93.4595L49.5253 94.0275C49.232 94.0665 48.9624 93.8525 48.9244 93.551C48.8864 93.2481 49.0946 92.9722 49.3878 92.9331Z" fill="#F5F5F5"/>
<path d="M110.773 29.3553C111.066 29.3163 111.336 29.5303 111.373 29.8318L111.846 33.6062C111.884 33.9077 111.676 34.185 111.383 34.2241C111.089 34.2631 110.82 34.0491 110.782 33.7475L110.309 29.9732C110.271 29.6703 110.478 29.3943 110.773 29.3553Z" fill="#F5F5F5"/>
<path d="M109.173 31.4848L112.844 30.9989C113.137 30.9598 113.407 31.1738 113.445 31.4754C113.483 31.7769 113.274 32.0542 112.981 32.0932L109.31 32.5792C109.017 32.6182 108.748 32.4042 108.71 32.1026C108.672 31.8011 108.88 31.5238 109.173 31.4848Z" fill="#F5F5F5"/>
<path d="M113.364 122.937C113.657 122.898 113.927 123.112 113.965 123.414L114.438 127.188C114.476 127.49 114.267 127.767 113.974 127.806C113.681 127.845 113.411 127.631 113.373 127.329L112.901 123.555C112.864 123.254 113.071 122.976 113.364 122.937Z" fill="#F5F5F5"/>
<path d="M111.765 125.068L115.435 124.582C115.729 124.543 115.998 124.757 116.036 125.059C116.074 125.36 115.866 125.637 115.573 125.676L111.902 126.162C111.609 126.201 111.339 125.987 111.301 125.686C111.263 125.383 111.47 125.107 111.765 125.068Z" fill="#F5F5F5"/>
<path d="M14.3956 28.1815C14.6889 28.1424 14.9586 28.3565 14.9965 28.658L15.4691 32.4324C15.5071 32.7339 15.2989 33.0112 15.0057 33.0502C14.7124 33.0893 14.4428 32.8752 14.4048 32.5737L13.9322 28.7993C13.8943 28.4965 14.1011 28.2192 14.3956 28.1815Z" fill="#F5F5F5"/>
<path d="M12.796 30.311L16.4667 29.8251C16.76 29.7861 17.0296 30.0001 17.0676 30.3016C17.1056 30.6031 16.8974 30.8804 16.6042 30.9195L12.9335 31.4054C12.6402 31.4444 12.3706 31.2304 12.3326 30.9289C12.2946 30.6274 12.5028 30.3501 12.796 30.311Z" fill="#F5F5F5"/>
<path d="M149.995 119.563C150.973 119.433 151.871 120.145 151.997 121.151C152.122 122.157 151.43 123.08 150.452 123.209C149.474 123.338 148.577 122.626 148.45 121.621C148.325 120.615 149.017 119.692 149.995 119.563ZM150.314 122.115C150.706 122.064 150.982 121.693 150.932 121.292C150.883 120.89 150.523 120.606 150.132 120.657C149.741 120.708 149.465 121.078 149.515 121.479C149.564 121.882 149.923 122.166 150.314 122.115Z" fill="#F5F5F5"/>
<path d="M16.175 92.3894C17.1529 92.2601 18.0509 92.9722 18.1766 93.9777C18.3022 94.9832 17.6097 95.9067 16.6318 96.0359C15.6539 96.1651 14.7559 95.453 14.6302 94.4475C14.5032 93.4406 15.1971 92.5186 16.175 92.3894ZM16.4944 94.9415C16.8858 94.8904 17.162 94.5202 17.1123 94.1191C17.0625 93.7166 16.7025 93.4326 16.3124 93.4837C15.921 93.5349 15.6448 93.905 15.6945 94.3062C15.7443 94.7073 16.103 94.9927 16.4944 94.9415Z" fill="#F5F5F5"/>
<path d="M165.999 70.7216C166.608 70.6408 167.168 71.085 167.247 71.7109C167.325 72.3382 166.893 72.913 166.284 72.9938C165.676 73.0745 165.115 72.6303 165.037 72.0044C164.957 71.3785 165.389 70.8023 165.999 70.7216Z" fill="#F5F5F5"/>
<path d="M70.544 138.249C71.1527 138.168 71.713 138.612 71.7915 139.24C71.8701 139.867 71.4381 140.442 70.8293 140.522C70.2206 140.603 69.6603 140.159 69.5818 139.533C69.5019 138.904 69.9339 138.328 70.544 138.249Z" fill="#F5F5F5"/>
<path d="M98.2725 6.10586C98.8812 6.02509 99.4415 6.4693 99.52 7.09522C99.5986 7.72249 99.1666 8.29727 98.5579 8.37803C97.9491 8.4588 97.3888 8.01459 97.3103 7.38867C97.2304 6.76274 97.6624 6.18662 98.2725 6.10586Z" fill="#F5F5F5"/>
<path d="M130.082 17.3375C130.878 17.2325 131.609 17.8127 131.711 18.6311C131.813 19.4495 131.249 20.2006 130.453 20.307C129.657 20.412 128.927 19.8318 128.824 19.0134C128.722 18.195 129.287 17.4425 130.082 17.3375ZM130.317 19.2126C130.526 19.1843 130.674 18.9878 130.648 18.7711C130.621 18.5557 130.428 18.4036 130.22 18.4305C130.01 18.4588 129.863 18.6553 129.889 18.8707C129.915 19.0874 130.107 19.2395 130.317 19.2126Z" fill="#F5F5F5"/>
<path d="M48.9721 23.6197C49.768 23.5147 50.4985 24.0949 50.6019 24.9133C50.704 25.7317 50.1398 26.4828 49.3439 26.5891C48.5479 26.6941 47.8175 26.114 47.7154 25.2956C47.6119 24.4771 48.1761 23.726 48.9721 23.6197ZM49.2064 25.4948C49.4159 25.4665 49.5638 25.2686 49.5376 25.0533C49.5101 24.8379 49.319 24.6858 49.1095 24.7127C48.9001 24.741 48.7522 24.9375 48.7783 25.1529C48.8058 25.3696 48.997 25.523 49.2064 25.4948Z" fill="#F5F5F5"/>
</g>
<g clip-path="url(#clip1_895_5400)">
<path d="M99.347 126.323L159.025 82.3575L94.4441 72.6428L24.7461 108.074C24.7461 108.074 25.302 110.237 25.2287 110.258L99.347 126.323Z" fill="#CE6B19"/>
<path d="M159.029 82.2871L99.3514 126.253L25.2338 110.187L25.1387 112.173L99.3124 129.726L158.881 85.3829L159.029 82.2871Z" fill="#C15011"/>
<path d="M158.168 67.3008L100.234 107.841L90.546 109.122L89.7539 117.315L96.6462 124.224L156.416 81.9661C156.416 81.9661 154.747 79.2413 155.449 75.0488C156.15 70.8555 158.168 67.3008 158.168 67.3008Z" fill="#EAD2B0"/>
<path d="M158.167 67.3008L100.234 107.841L94.2651 108.63C94.0234 109.027 93.7968 109.434 93.5921 109.856C92.2921 112.529 91.9081 115.858 93.3279 118.466C114.387 103.513 135.264 88.2866 155.954 72.7976C156.829 69.6582 158.167 67.3008 158.167 67.3008Z" fill="#DBC5A9"/>
<path d="M28.324 89.2728C28.324 89.2728 22.7167 91.5197 21.7631 97.8C20.1865 108.178 25.1373 112.172 25.1373 112.172L28.324 89.2728Z" fill="#C15011"/>
<path d="M97.5389 51.6577C97.5389 51.6577 29.1348 89.0398 28.3242 89.2728L102.443 105.338L162.12 61.3724L97.5389 51.6577Z" fill="#CE6B19"/>
<path d="M162.119 61.3724L102.441 105.339L28.3231 89.2728L27.8418 91.167L102.402 108.812L161.971 64.469L162.119 61.3724Z" fill="#C15011"/>
<path d="M99.8095 108.198L27.8435 91.167L25.6152 108.744L96.6475 124.223C96.6475 124.223 91.9971 119.062 93.3745 114.096C94.7525 109.132 99.8095 108.198 99.8095 108.198Z" fill="#F4DEC9"/>
<path d="M23.0586 99.0783C22.1145 104.03 25.4128 110.197 25.4128 110.197L27.843 91.1677C27.8424 91.167 24.2059 93.057 23.0586 99.0783Z" fill="#933B0F"/>
<path d="M25.9648 105.868C25.9648 105.868 93.7631 119.369 93.7535 119.343C93.7446 119.316 26.1394 104.969 26.1394 104.969L25.9648 105.868Z" fill="#FFF2E1"/>
<path d="M26.5137 101.997L93.3748 114.096L26.8224 100.023L26.5137 101.997Z" fill="#FFF2E1"/>
<path d="M27.3008 96.7314L68.63 104.561L27.3994 94.657L27.3008 96.7314Z" fill="#FFF2E1"/>
<path d="M94.4609 120.958L95.1216 122.127L144.459 86.329C144.459 86.3297 94.9203 120.455 94.4609 120.958Z" fill="#DBC5A9"/>
<path d="M134.414 73.6881C119.419 79.1927 103.991 83.4465 88.3292 86.3938C82.615 87.4694 76.8632 88.3514 71.0779 88.9004C60.9311 89.8641 50.6125 89.8162 40.5834 87.8016C38.4626 87.3757 36.3582 86.8612 34.2799 86.253C30.8406 88.1078 28.7061 89.2446 28.5664 89.2847L102.684 105.35L159.936 63.1724C151.529 66.9376 143.048 70.5184 134.414 73.6881Z" fill="#DD6F1D"/>
<path d="M96.9427 56.1902L84.6094 63.5939L138.211 71.7671L149.182 63.9642L96.9427 56.1902Z" fill="#FFB103"/>
<path d="M91.6629 66.4223L89.082 68.1131L123.383 74.1013L126.218 71.5911L91.6629 66.4223Z" fill="#F4DEC9"/>
<path d="M111.039 95.1194V80.3598L27.0076 65.9218C27.0076 65.9218 24.8184 67.9533 24.8184 72.9208C24.8184 78.8266 27.5943 80.3598 27.5943 80.3598L111.039 95.1194Z" fill="#296BCC"/>
<path d="M75.0671 47.0808L27.0078 65.9218L111.039 80.3597C111.039 80.3597 147.743 56.0888 148.174 55.7939C148.605 55.4989 75.0671 47.0808 75.0671 47.0808Z" fill="#359CEF"/>
<path d="M145.542 65.9218L111.039 88.8201V95.1194L150.041 68.1996V66.3153L145.542 65.9218Z" fill="#359CEF"/>
<path d="M111.039 80.3597V82.3363L148.174 57.1024V55.7938L111.039 80.3597Z" fill="#296BCC"/>
<path d="M111.039 92.5719V95.1194L150.041 68.1996V66.3152L111.039 92.5719Z" fill="#296BCC"/>
<path d="M111.039 82.3363V91.2218L147.659 66.316C147.659 66.316 146.207 64.8504 146.207 61.794C146.207 58.7376 147.241 57.7374 147.241 57.7374L111.039 82.3363Z" fill="#EAD2B0"/>
<path d="M111.039 91.2211V82.3363C111.039 82.3363 108.843 84.3003 109.085 87.6826C109.327 91.0649 111.039 91.2211 111.039 91.2211Z" fill="#1C54A5"/>
<path d="M44.9785 69.0479L44.0256 68.8839C43.2958 70.9245 42.8399 73.0679 42.7283 75.2437C42.5859 78.0143 43.0426 80.8286 44.207 83.3366L45.3886 83.5457C44.8053 82.4462 44.3624 81.265 44.0756 80.0303C43.43 77.2513 43.5615 74.3188 44.2214 71.5566C44.424 70.7049 44.6787 69.8679 44.9785 69.0479Z" fill="#0098FF"/>
<path d="M33.7808 67.1241L32.823 66.9594C31.9701 69.3822 31.7462 72.0325 32.0734 74.5891C32.3082 76.4235 32.7936 78.2093 33.4843 79.917C33.7061 80.4646 33.9416 81.0228 34.2059 81.567L35.3929 81.7767C35.026 81.1207 34.7207 80.4238 34.4393 79.7452C33.1763 76.6938 32.5403 73.2777 33.0469 69.9749C33.1968 68.9993 33.4419 68.0434 33.7808 67.1241Z" fill="#0098FF"/>
<path d="M39.605 68.125L38.6158 67.9547C38.355 68.4587 38.1174 68.9739 37.9251 69.5124C37.4781 70.7619 37.3398 72.1064 37.3418 73.4311C37.3452 75.992 37.7779 78.5662 38.5905 80.9862C38.7548 81.4762 38.9355 81.9605 39.1306 82.4391L40.2567 82.6383C39.5482 81.0271 39.0211 79.3349 38.6911 77.5948C38.4652 76.4031 38.3365 75.1944 38.303 73.9816C38.2681 72.7047 38.3338 71.4158 38.7062 70.1889C38.9259 69.466 39.2456 68.7846 39.605 68.125Z" fill="#0098FF"/>
<path d="M85.5605 79.9775V86.286L102.434 89.1537V82.3363L85.5605 79.9775Z" fill="#0098FF"/>
<path d="M111.039 85.354L146.218 61.2654L111.039 83.8913V85.354Z" fill="#DBC5A9"/>
<path d="M111.039 88.4329L130.54 73.757L111.039 86.7787V88.4329Z" fill="#DBC5A9"/>
<path d="M111.039 90.8192L146.918 65.1693L111.039 89.6218V90.8192Z" fill="#DBC5A9"/>
<path d="M100.662 58.0781C100.739 47.4955 94.4453 38.9443 94.4453 38.9443L94.5213 73.4833C94.5213 73.4833 100.592 67.6605 100.662 58.0781Z" fill="#FFB600"/>
<path d="M46.6406 60.7319L94.5212 73.484L94.4452 38.9451L47.3259 32.9935C47.3259 32.9935 50.718 42.6434 50.2244 48.5788C49.5412 56.7858 46.6406 60.7319 46.6406 60.7319Z" fill="#F4DEC9"/>
<path d="M128.628 41.2222C127.986 33.2159 125.577 28.4511 125.577 28.4511L94.4453 38.9444L94.5213 73.4833L125.577 57.7367C125.577 57.7367 129.605 53.4274 128.628 41.2222Z" fill="#FFB600"/>
<path d="M82.1895 23.8235L45.3867 32.9934L94.4448 38.9443L125.577 28.4511L82.1895 23.8235Z" fill="#FFCE55"/>
<path d="M45.3867 32.9935V35.1714L94.4502 41.527L94.4448 38.9444L45.3867 32.9935Z" fill="#FFB600"/>
<path d="M44.4512 61.4998V63.7207L94.5217 73.4832L94.5422 70.9766L44.4512 61.4998Z" fill="#FFB600"/>
<path d="M44.4512 61.4998L94.5422 70.9766L94.5128 69.4724L46.6411 60.7319L47.6577 58.92L44.4512 61.4998Z" fill="#FFE000"/>
<path d="M99.0885 57.427C99.3555 47.4026 94.4512 41.5277 94.4512 41.5277L94.5121 69.4731C94.5121 69.4724 98.8208 67.4514 99.0885 57.427Z" fill="#E28C03"/>
<path d="M94.5213 73.4833L125.577 57.7367C125.577 57.7367 129.344 54.2165 128.977 43.2164C128.61 32.2163 125.577 28.4511 125.577 28.4511L94.4453 38.9444C94.4453 38.9444 100.878 42.8687 101.172 54.9697C101.535 69.9271 94.5213 73.4833 94.5213 73.4833Z" fill="#FFB94A"/>
<path d="M128.939 43.2164C128.825 39.7996 128.454 37.0825 127.996 34.9573C127.972 36.2884 127.923 37.6174 127.718 38.9274C126.992 43.5725 124.326 47.7242 120.958 50.9094C117.591 54.0946 113.541 56.4098 109.444 58.5047C107.148 59.6788 104.717 60.8022 102.126 60.9993C101.702 61.0317 101.273 61.0183 100.842 60.9895C99.538 70.9175 94.4824 73.4832 94.4824 73.4832L125.539 57.736C125.539 57.7367 129.306 54.2164 128.939 43.2164Z" fill="#FFA943"/>
<path d="M49.8262 42.6638L94.3407 49.3003L94.4447 47.0808L49.8262 42.6638Z" fill="#FFF2E1"/>
<path d="M54.8828 40.3627L94.5225 44.6143L94.4465 43.4733L54.8828 40.3627Z" fill="#FFF2E1"/>
<path d="M94.4455 52.5995C94.4455 52.5995 61.4839 50.1626 54.6895 49.4629L94.4455 54.7774V52.5995Z" fill="#FFF2E1"/>
<path d="M54.6887 49.4629L53.4688 49.2996C53.4989 49.3292 53.9363 49.3855 54.6887 49.4629Z" fill="#FFF2E1"/>
<path d="M51.7695 56.2141L94.446 64.1057L94.4973 62.2966L51.7695 56.2141Z" fill="#FFF2E1"/>
<path d="M106.433 56.1156C106.421 56.1156 106.421 56.1353 106.433 56.1353C106.445 56.1353 106.445 56.1156 106.433 56.1156Z" fill="#B56217"/>
<g opacity="0.63">
<path d="M125.417 44.7164C125.688 44.7615 125.802 44.3342 125.531 44.2913C117.172 42.977 111.052 49.2679 106.646 55.7137C106.639 55.7242 106.656 55.7334 106.663 55.7235C110.976 49.5312 117.399 43.3874 125.417 44.7164Z" fill="#B56217"/>
</g>
<path d="M122.167 43.581C122.155 43.581 122.155 43.6007 122.167 43.6007C122.18 43.6007 122.18 43.581 122.167 43.581Z" fill="#B56217"/>
<g opacity="0.63">
<path d="M110.199 55.2047C111.08 55.6341 112.054 54.2347 112.479 53.6934C112.709 53.3998 113.955 51.1128 114.385 50.1534C114.369 49.8972 114.404 49.712 114.524 49.7282C114.559 49.7332 114.5 49.8993 114.385 50.1534C114.415 50.6215 114.624 51.3296 114.843 51.5063C115.496 52.0364 116.326 51.6753 116.891 51.2064C117.723 50.5166 118.364 49.4453 119.029 48.602C119.134 48.4696 119.853 47.3842 119.976 47.4032C120.428 47.4722 120.044 47.708 120.22 48.0747C121.348 50.4307 122.674 46.2798 122.975 45.207C123.026 45.0247 122.748 44.9465 122.699 45.1289C122.517 45.799 122.403 46.9942 121.87 47.3666C121.286 47.7742 120.374 47.7587 120.484 46.7197C120.494 46.6219 120.348 46.5585 120.288 46.6366C119.587 47.5454 118.886 48.4541 118.186 49.3629C117.955 49.6621 117.638 50.297 117.316 50.4842C116.843 50.7595 114.591 50.128 114.805 49.2341C114.839 49.0926 114.649 49.0468 114.598 49.1757C114.067 50.5229 113.527 51.8984 112.718 53.1014C112.453 53.5392 112.134 53.9271 111.763 54.2649C111.281 54.8527 110.689 54.7028 109.991 53.8327C109.91 54.0538 109.814 54.2868 109.709 54.5254C109.753 54.8091 109.894 55.0561 110.199 55.2047Z" fill="#B56217"/>
<path d="M109.989 53.8327C110.082 53.5814 110.159 53.3449 110.22 53.1323C110.267 52.9704 110.036 52.9127 109.979 53.0641C109.917 53.2309 109.845 53.4322 109.789 53.6455C109.799 53.6321 109.809 53.6201 109.816 53.6138C109.875 53.6955 109.932 53.7616 109.989 53.8327Z" fill="#B56217"/>
<path d="M115.013 43.6943C114.973 43.6886 114.934 43.6837 114.895 43.6788C114.934 43.7112 114.975 43.714 115.013 43.6943Z" fill="#B56217"/>
<path d="M114.523 49.7282C114.404 49.712 114.368 49.8979 114.385 50.1534C114.499 49.8993 114.559 49.7324 114.523 49.7282Z" fill="#B56217"/>
<path d="M109.71 54.5254C109.815 54.2875 109.91 54.0538 109.992 53.8327C109.935 53.7617 109.878 53.6948 109.819 53.6138C109.812 53.6195 109.802 53.6314 109.792 53.6455C109.715 53.9362 109.666 54.2481 109.71 54.5254Z" fill="#B56217"/>
<path d="M115.013 43.6943C115.207 43.721 115.401 43.7492 115.593 43.7766C115.722 43.7956 115.816 43.6253 115.687 43.5465C114.767 42.9784 115.768 41.9331 116.628 41.7353C117.199 41.6036 118.329 41.8345 118.766 41.9352C119.986 42.2175 121.108 42.7595 122.139 43.4789C122.168 43.4993 122.192 43.4521 122.165 43.431C120.508 42.121 117.283 40.6224 115.156 41.7008C114.686 41.9387 114.171 42.316 114.421 42.9601C114.479 43.1107 114.731 43.1853 114.751 43.3142C114.76 43.3705 114.771 43.4169 114.782 43.4592C114.832 43.4507 114.875 43.4388 114.903 43.4212C115.271 43.1853 115.174 43.6126 115.013 43.6943Z" fill="#B56217"/>
<path d="M106.077 52.6903C105.342 53.5258 104.816 54.5894 104.636 55.7044C104.457 56.8152 104.63 58.4131 106.057 58.3047C107.667 58.1822 108.967 56.2134 109.709 54.5254C109.665 54.248 109.713 53.9362 109.791 53.6455C109.607 53.889 109.032 55.3067 108.815 55.6228C108.446 56.1634 107.516 57.4523 106.898 57.5937C106.235 57.4445 105.572 57.296 104.91 57.1468C104.788 56.5034 104.822 55.8663 105.015 55.2363C105.44 53.6166 106.536 52.3637 107.945 51.5654C108.06 51.5 108.003 51.3233 107.879 51.3184C107.032 50.5497 106.931 49.8887 107.576 49.3368C107.918 48.8462 108.344 48.4443 108.856 48.1296C109.544 47.6679 110.316 47.4004 111.112 47.2131C111.252 47.18 111.244 46.9675 111.112 46.9302C110.142 46.8189 109.864 46.0601 110.278 44.6537C110.647 44.2715 111.078 44.0117 111.573 43.8738C112.639 43.4472 113.78 43.5288 114.894 43.6781C114.853 43.6443 114.814 43.5774 114.781 43.4585C114.328 43.538 113.053 43.2825 112.693 43.3233C112.087 43.3916 111.504 43.5253 110.963 43.8182C110.325 44.1631 109.278 45 109.279 45.8567C109.28 46.467 109.22 46.2438 109.624 46.6606C109.896 46.9407 110.465 46.9238 110.432 47.0766C110.427 47.1012 108.763 47.8657 108.72 47.8945C108.014 48.3753 106.983 49.2144 106.801 50.1273C106.614 51.0664 107.235 50.9059 107.331 51.5274C107.35 51.6351 106.288 52.4502 106.077 52.6903Z" fill="#B56217"/>
<path d="M114.895 43.6788C114.935 43.6837 114.975 43.6886 115.014 43.6943C115.175 43.6126 115.272 43.1853 114.904 43.4211C114.876 43.4387 114.833 43.4507 114.783 43.4591C114.815 43.5781 114.854 43.645 114.895 43.6788Z" fill="#B56217"/>
</g>
<path d="M60.215 30.6614L54.8828 32.0249L94.5827 36.2849L99.1002 34.3738L60.215 30.6614Z" fill="#FFA403"/>
<path d="M70.5811 29.949L68.6328 30.441L88.4472 32.5711L90.3592 31.9157L70.5811 29.949Z" fill="#FFA403"/>
<path d="M94.483 73.4832L94.4453 74.2287L127.186 58.1809L125.539 57.7367L94.483 73.4832Z" fill="#1C54A5"/>
<path d="M44.4512 63.7206L94.4457 74.2287L94.4834 73.4832L44.4512 63.7206Z" fill="#1C54A5"/>
<path d="M150.04 68.1997L111.038 95.1194L40.2559 82.6384L111.038 96.509L151.128 68.1997H150.04Z" fill="#933B0F"/>
</g>
</g>
<defs>
<clipPath id="clip0_895_5400">
<rect width="184.071" height="150" fill="white"/>
</clipPath>
<clipPath id="clip1_895_5400">
<rect width="140.667" height="105.902" fill="white" transform="translate(21.4531 23.8235)"/>
</clipPath>
</defs>
</svg>
