<svg width="41" height="40" viewBox="0 0 41 40" fill="none" xmlns="http://www.w3.org/2000/svg">
<g clip-path="url(#clip0_2434_29222)">
<path fill-rule="evenodd" clip-rule="evenodd" d="M12.47 26.1553L18.5816 28.6596L13.7675 39.1049C13.7301 39.186 13.6563 39.236 13.5677 39.2401C13.4791 39.2442 13.4011 39.2012 13.3565 39.1238L11.5629 36.0058L8.04618 36.6265C7.95886 36.6419 7.87603 36.6093 7.82212 36.5382C7.76822 36.4671 7.75847 36.3779 7.7959 36.2968L12.47 26.1553Z" fill="#FC5F60"/>
<path fill-rule="evenodd" clip-rule="evenodd" d="M17.3943 28.1709L18.5836 28.6582L16.1701 33.8947L16.0743 34.1026L15.9785 34.3105L15.8826 34.5184L15.7868 34.7263L15.691 34.9342L15.5952 35.1421L15.4993 35.35L15.4035 35.5578L15.3077 35.7657L15.2119 35.9736L15.1161 36.1815L15.0202 36.3894L14.9244 36.5973L14.8286 36.8052L14.7328 37.0131L14.6369 37.221L14.5411 37.4289L14.4453 37.6368L14.3495 37.8446L14.2536 38.0525L14.1578 38.2604L14.062 38.4683L13.9662 38.6762L13.8703 38.8841L13.7745 39.092L13.7695 39.1029L13.7677 39.1068C13.7297 39.1857 13.6569 39.2342 13.5697 39.2382C13.4811 39.2422 13.4031 39.1993 13.3585 39.1218L12.7969 38.1455L16.5221 30.0628L17.3943 28.1709Z" fill="#B12C28"/>
<path fill-rule="evenodd" clip-rule="evenodd" d="M28.0296 26.1553L21.918 28.6596L26.732 39.1049C26.7695 39.186 26.8433 39.236 26.9319 39.2401C27.0204 39.2442 27.0985 39.2012 27.143 39.1237L28.9366 36.0057L32.4533 36.6264C32.5406 36.6418 32.6235 36.6093 32.6774 36.5382C32.7313 36.4671 32.741 36.3778 32.7036 36.2967L28.0296 26.1553Z" fill="#FC5F60"/>
<path fill-rule="evenodd" clip-rule="evenodd" d="M28.033 26.1553L26.8438 26.6426L31.3556 36.4322L32.4567 36.6265C32.5441 36.6419 32.6269 36.6093 32.6808 36.5382C32.7347 36.4672 32.7444 36.3779 32.707 36.2968L28.033 26.1553Z" fill="#B12C28"/>
<path fill-rule="evenodd" clip-rule="evenodd" d="M22.2272 1.44981L24.2564 2.98411C24.8114 3.40372 25.3955 3.61848 26.0876 3.65739L28.6183 3.79958C30.1337 3.88473 31.3644 4.92794 31.7106 6.42067L32.2887 8.91356C32.4468 9.59536 32.7576 10.1392 33.263 10.6183L35.1112 12.3706C36.2179 13.4197 36.4968 15.018 35.8121 16.3863L34.6687 18.6714C34.356 19.2963 34.248 19.9147 34.3303 20.61L34.6312 23.1523C34.8113 24.6746 34.008 26.08 32.6128 26.6836L30.2828 27.6916C29.6456 27.9673 29.1694 28.3709 28.79 28.957L27.4026 31.0998C26.572 32.3828 25.0623 32.9379 23.6094 32.4944L21.1831 31.7537C20.5196 31.5511 19.898 31.5511 19.2344 31.7537L16.8081 32.4944C15.3553 32.9379 13.8456 32.3828 13.0149 31.0998L11.6276 28.957C11.2482 28.3709 10.772 27.9673 10.1347 27.6917L7.80495 26.6835C6.40983 26.08 5.6065 24.6745 5.78662 23.1522L6.08747 20.6099C6.16969 19.9146 6.0618 19.2962 5.74904 18.6713L4.60557 16.3862C3.92089 15.018 4.19985 13.4197 5.3065 12.3705L7.15468 10.6182C7.6601 10.139 7.97092 9.59528 8.12901 8.91348L8.70712 6.42059C9.05329 4.92786 10.284 3.88466 11.7994 3.7995L14.3301 3.65731C15.0223 3.61841 15.6064 3.40364 16.1613 2.98403L18.1905 1.44974C19.4056 0.531065 21.0122 0.531065 22.2272 1.44981Z" fill="#F13637"/>
<path fill-rule="evenodd" clip-rule="evenodd" d="M22.2288 1.44974L24.258 2.98404C24.8129 3.40365 25.3971 3.61842 26.0892 3.65732L28.6199 3.79951C30.1353 3.88467 31.366 4.92779 31.7122 6.42052L32.2903 8.91341C32.4484 9.59521 32.7592 10.139 33.2646 10.6183L35.1128 12.3705C36.2194 13.4197 36.4984 15.0179 35.8137 16.3861L34.6703 18.6712C34.3575 19.2962 34.2496 19.9146 34.3318 20.6098L34.6327 23.1522C34.8128 24.6744 34.0095 26.0799 32.6143 26.6835L30.2843 27.6915C29.6471 27.9672 29.1709 28.3708 28.7915 28.9569L27.4042 31.0997C26.6363 32.2858 25.2882 32.8496 23.9412 32.5778C24.7945 32.4023 25.5621 31.8887 26.073 31.0997L27.4603 28.9569C27.8397 28.3708 28.3159 27.9672 28.9531 27.6915L31.2831 26.6835C32.6782 26.08 33.4815 24.6744 33.3014 23.1522L33.0006 20.6098C32.9183 19.9145 33.0262 19.2961 33.339 18.6712L34.4825 16.3861C35.1672 15.0179 34.8882 13.4197 33.7815 12.3705L31.9334 10.6183C31.4279 10.139 31.1171 9.59521 30.959 8.91341L30.3809 6.42052C30.0348 4.92779 28.804 3.88459 27.2887 3.79951L24.758 3.65732C24.0658 3.61842 23.4816 3.40365 22.9267 2.98404L20.8975 1.44974C20.482 1.13553 20.0207 0.928885 19.5449 0.829588C20.4603 0.638494 21.4293 0.845213 22.2288 1.44974ZM19.5448 31.6734C19.4427 31.6952 19.3399 31.7219 19.2361 31.7536L16.8098 32.4944C16.2504 32.6651 15.6826 32.6877 15.1484 32.5779C15.2586 32.5556 15.3687 32.5279 15.4785 32.4944L17.9048 31.7536C18.4646 31.5827 18.9945 31.556 19.5448 31.6734Z" fill="#B3312D"/>
<path d="M27.5412 24.2124C31.5837 20.1288 31.5837 13.5079 27.5412 9.4243C23.4986 5.34068 16.9443 5.34068 12.9017 9.4243C8.85918 13.5079 8.85918 20.1288 12.9017 24.2124C16.9443 28.296 23.4986 28.296 27.5412 24.2124Z" fill="#B12C28"/>
<path fill-rule="evenodd" clip-rule="evenodd" d="M20.2087 6.24561C20.4323 6.24561 20.6541 6.25357 20.8743 6.26771C15.4666 6.61443 11.1867 11.1539 11.1867 16.704C11.1867 22.254 15.4667 26.7935 20.8743 27.1402C20.6541 27.1544 20.4323 27.1623 20.2087 27.1623C14.4907 27.1623 9.85547 22.48 9.85547 16.704C9.85547 10.928 14.4907 6.24561 20.2087 6.24561Z" fill="#B12C28"/>
<path fill-rule="evenodd" clip-rule="evenodd" d="M18.961 12.8755C18.2885 12.1961 17.1925 12.1906 16.5132 12.8631C15.8338 13.5357 15.8283 14.6316 16.5008 15.311L17.9946 16.8199L16.5008 18.3288C15.8283 19.0082 15.8338 20.1042 16.5132 20.7767C17.1925 21.4493 18.2885 21.4437 18.961 20.7643L20.4302 19.2803L21.8041 20.6681C22.4766 21.3475 23.5726 21.353 24.252 20.6805C24.9313 20.0079 24.9369 18.912 24.2643 18.2326L22.8658 16.8199L24.2643 15.4072C24.9369 14.7278 24.9313 13.6319 24.252 12.9593C23.5726 12.2868 22.4766 12.2923 21.8041 12.9717L20.4302 14.3596L18.961 12.8755Z" fill="white"/>
</g>
<defs>
<clipPath id="clip0_2434_29222">
<rect width="39.5978" height="40" fill="white" transform="translate(0.699219)"/>
</clipPath>
</defs>
</svg>
