<svg width="39" height="38" viewBox="0 0 39 38" fill="none" xmlns="http://www.w3.org/2000/svg">
<path fill-rule="evenodd" clip-rule="evenodd" d="M11.6604 24.2939L17.5673 26.6201L12.9145 36.3226C12.8783 36.398 12.807 36.4445 12.7213 36.4482C12.6357 36.452 12.5603 36.4121 12.5172 36.3402L10.7836 33.444L7.3847 34.0205C7.30031 34.0348 7.22025 34.0046 7.16815 33.9385C7.11605 33.8725 7.10663 33.7896 7.14281 33.7142L11.6604 24.2939Z" fill="#FFA158"/>
<path fill-rule="evenodd" clip-rule="evenodd" d="M16.4162 26.1674L17.5656 26.62L15.2329 31.4841L15.1403 31.6772L15.0477 31.8703L14.9551 32.0635L14.8625 32.2566L14.7699 32.4497L14.6773 32.6428L14.5846 32.8359L14.492 33.029L14.3994 33.2221L14.3068 33.4152L14.2142 33.6083L14.1216 33.8014L14.0289 33.9945L13.9363 34.1876L13.8437 34.3807L13.7511 34.5738L13.6585 34.7669L13.5659 34.96L13.4733 35.1532L13.3806 35.3463L13.288 35.5394L13.1954 35.7325L13.1028 35.9256L13.0102 36.1187L12.9176 36.3118L12.9127 36.3219L12.911 36.3255C12.8743 36.3989 12.8039 36.4439 12.7196 36.4476C12.634 36.4513 12.5585 36.4114 12.5155 36.3395L11.9727 35.4326L15.5731 27.9247L16.4162 26.1674Z" fill="#B2672D"/>
<path fill-rule="evenodd" clip-rule="evenodd" d="M26.6999 24.2938L20.793 26.62L25.4458 36.3225C25.482 36.3979 25.5534 36.4444 25.639 36.4481C25.7246 36.4519 25.8 36.412 25.8431 36.34L27.5766 33.4438L30.9755 34.0203C31.0599 34.0346 31.14 34.0044 31.1921 33.9383C31.2442 33.8723 31.2536 33.7894 31.2174 33.714L26.6999 24.2938Z" fill="#FFA158"/>
<path fill-rule="evenodd" clip-rule="evenodd" d="M26.7002 24.2938L25.5508 24.7465L29.9115 33.8399L30.9758 34.0204C31.0602 34.0347 31.1403 34.0044 31.1924 33.9384C31.2445 33.8724 31.2539 33.7895 31.2177 33.7141L26.7002 24.2938Z" fill="#B2672D"/>
<path fill-rule="evenodd" clip-rule="evenodd" d="M21.0896 1.34649L23.0508 2.77167C23.5872 3.16144 24.1518 3.36093 24.8207 3.39707L27.2667 3.52915C28.7313 3.60825 29.9208 4.57726 30.2554 5.96384L30.8141 8.27945C30.9669 8.91276 31.2674 9.41791 31.7558 9.86298L33.5421 11.4906C34.6117 12.4652 34.8814 13.9498 34.2196 15.2208L33.1144 17.3433C32.8122 17.9238 32.7079 18.4983 32.7874 19.1441L33.0782 21.5056C33.2523 22.9196 32.4758 24.2251 31.1274 24.7858L28.8754 25.7221C28.2595 25.9782 27.7993 26.3531 27.4325 26.8975L26.0917 28.8879C25.2889 30.0797 23.8297 30.5953 22.4255 30.1833L20.0805 29.4953C19.4391 29.3071 18.8383 29.3071 18.197 29.4953L15.8519 30.1833C14.4478 30.5953 12.9886 30.0797 12.1858 28.8879L10.8449 26.8975C10.4782 26.3531 10.0179 25.9782 9.402 25.7221L7.15023 24.7857C5.80182 24.2251 5.0254 22.9195 5.19949 21.5055L5.49027 19.144C5.56973 18.4981 5.46545 17.9237 5.16316 17.3433L4.05799 15.2207C3.39623 13.9498 3.66585 12.4652 4.73544 11.4906L6.52174 9.8629C7.01023 9.41777 7.31065 8.91269 7.46344 8.27937L8.02219 5.96377C8.35677 4.57719 9.54626 3.60818 11.0109 3.52908L13.4569 3.397C14.1259 3.36086 14.6905 3.16137 15.2268 2.7716L17.188 1.34642C18.3624 0.493077 19.9153 0.493077 21.0896 1.34649Z" fill="#FD8E39"/>
<path fill-rule="evenodd" clip-rule="evenodd" d="M21.0894 1.34642L23.0506 2.77161C23.587 3.16138 24.1516 3.36087 24.8205 3.39701L27.2665 3.52908C28.7311 3.60818 29.9206 4.57713 30.2552 5.96371L30.8139 8.27931C30.9667 8.91262 31.2671 9.41778 31.7556 9.86292L33.5419 11.4906C34.6115 12.4651 34.8811 13.9497 34.2194 15.2206L33.1142 17.3432C32.8119 17.9237 32.7076 18.4981 32.7871 19.1439L33.0779 21.5055C33.252 22.9195 32.4756 24.225 31.1271 24.7857L28.8752 25.7219C28.2593 25.978 27.7991 26.3529 27.4323 26.8973L26.0915 28.8878C25.3493 29.9895 24.0463 30.5133 22.7444 30.2608C23.5691 30.0978 24.3111 29.6207 24.8048 28.8878L26.1457 26.8973C26.5124 26.3529 26.9726 25.978 27.5885 25.7219L29.8405 24.7857C31.1889 24.2251 31.9653 22.9195 31.7912 21.5055L31.5004 19.1439C31.4209 18.4981 31.5253 17.9237 31.8275 17.3432L32.9327 15.2206C33.5945 13.9497 33.3249 12.4651 32.2553 11.4906L30.469 9.86292C29.9805 9.41778 29.6801 8.91262 29.5273 8.27931L28.9685 5.96371C28.6339 4.57713 27.4444 3.60811 25.9798 3.52908L23.5338 3.39701C22.8648 3.36087 22.3002 3.16138 21.7639 2.77161L19.8027 1.34642C19.4011 1.05455 18.9552 0.862606 18.4953 0.77037C19.3801 0.592866 20.3166 0.784884 21.0894 1.34642ZM18.4952 29.4207C18.3966 29.441 18.2972 29.4658 18.1968 29.4953L15.8518 30.1833C15.3111 30.3419 14.7624 30.3629 14.2461 30.2609C14.3525 30.2402 14.459 30.2145 14.5651 30.1833L16.9102 29.4953C17.4512 29.3365 17.9633 29.3116 18.4952 29.4207Z" fill="#B3672D"/>
<path d="M26.2277 22.4902C30.1349 18.697 30.1349 12.5469 26.2277 8.75372C22.3205 4.96051 15.9857 4.96051 12.0785 8.75372C8.17132 12.5469 8.17132 18.697 12.0785 22.4902C15.9857 26.2834 22.3205 26.2834 26.2277 22.4902Z" fill="#B2672D"/>
<path fill-rule="evenodd" clip-rule="evenodd" d="M19.1393 5.80029C19.3555 5.80029 19.5699 5.80769 19.7826 5.82083C14.5561 6.14289 10.4195 10.3595 10.4195 15.5149C10.4195 20.6702 14.5561 24.8869 19.7826 25.209C19.5699 25.2221 19.3555 25.2295 19.1393 25.2295C13.6129 25.2295 9.13281 20.8802 9.13281 15.515C9.13281 10.1497 13.6129 5.80029 19.1393 5.80029Z" fill="#B2672D"/>
<g clip-path="url(#clip0_2434_29204)">
<path d="M18.9194 19.8443C21.3213 19.8443 23.2685 17.954 23.2685 15.6221C23.2685 13.2902 21.3213 11.3999 18.9194 11.3999C16.5175 11.3999 14.5703 13.2902 14.5703 15.6221C14.5703 17.954 16.5175 19.8443 18.9194 19.8443Z" fill="white" stroke="white" stroke-width="1.42308" stroke-linejoin="round"/>
<path d="M18.9182 13.0887L18.918 15.6239L20.7618 17.414" stroke="#FD8E39" stroke-width="1.42308" stroke-linecap="round" stroke-linejoin="round"/>
</g>
<defs>
<clipPath id="clip0_2434_29204">
<rect width="10.4378" height="10.1333" fill="white" transform="translate(13.6992 10.5554)"/>
</clipPath>
</defs>
</svg>
