<svg width="150" height="150" viewBox="0 0 150 150" fill="none" xmlns="http://www.w3.org/2000/svg">
<g clip-path="url(#clip0_1036_8392)">
<mask id="mask0_1036_8392" style="mask-type:luminance" maskUnits="userSpaceOnUse" x="0" y="0" width="150" height="150">
<path d="M150 0H0V150H150V0Z" fill="white"/>
</mask>
<g mask="url(#mask0_1036_8392)">
<path d="M75 134.5C108.135 134.5 135 107.635 135 74.5C135 41.365 108.135 14.5 75 14.5C41.865 14.5 15 41.365 15 74.5C15 107.635 41.865 134.5 75 134.5Z" fill="#E6F0ED"/>
<path d="M52.5 31.78H98.77C103.19 31.78 106.77 35.36 106.77 39.78V101.295C106.77 105.715 103.19 109.295 98.77 109.295H52.5C48.08 109.295 44.5 105.715 44.5 101.295V39.78C44.5 35.36 48.08 31.78 52.5 31.78Z" fill="url(#paint0_linear_1036_8392)"/>
<path d="M52.45 41.78H72.55C73.905 41.78 75 42.875 75 44.23C75 45.585 73.905 46.68 72.55 46.68H52.45C51.095 46.68 50 45.585 50 44.23C50 42.875 51.095 41.78 52.45 41.78Z" fill="#006A4E"/>
<path d="M52.45 55.68H97.55C98.905 55.68 100 56.775 100 58.13C100 59.485 98.905 60.58 97.55 60.58H52.45C51.095 60.58 50 59.485 50 58.13C50 56.775 51.095 55.68 52.45 55.68Z" fill="#D5D5D5"/>
<path d="M52.45 69.58H97.55C98.905 69.58 100 70.675 100 72.03C100 73.385 98.905 74.48 97.55 74.48H52.45C51.095 74.48 50 73.385 50 72.03C50 70.675 51.095 69.58 52.45 69.58Z" fill="#D5D5D5"/>
<path d="M52.45 83.48H97.55C98.905 83.48 100 84.575 100 85.93C100 87.285 98.905 88.38 97.55 88.38H52.45C51.095 88.38 50 87.285 50 85.93C50 84.575 51.095 83.48 52.45 83.48Z" fill="#D5D5D5"/>
<path d="M52.45 97.3801H97.55C98.905 97.3801 100 98.4751 100 99.8301C100 101.185 98.905 102.28 97.55 102.28H52.45C51.095 102.28 50 101.185 50 99.8301C50 98.4751 51.095 97.3801 52.45 97.3801Z" fill="#D5D5D5"/>
<path d="M119 36.5C120.655 36.5 122 35.155 122 33.5C122 31.845 120.655 30.5 119 30.5C117.345 30.5 116 31.845 116 33.5C116 35.155 117.345 36.5 119 36.5Z" fill="#FFDA45"/>
<path d="M129 30.5H139C140.655 30.5 142 31.845 142 33.5C142 35.155 140.655 36.5 139 36.5H129C127.345 36.5 126 35.155 126 33.5C126 31.845 127.345 30.5 129 30.5Z" fill="#D5D5D5"/>
<path fill-rule="evenodd" clip-rule="evenodd" d="M92.5555 112.78C98.9955 112.78 104.981 110.83 109.956 107.495L130.305 126.92L137.685 118.36L118.051 99.6151C121.676 94.5101 123.81 88.2701 123.81 81.5351C123.81 64.275 109.821 50.285 92.5605 50.285C75.3005 50.285 61.3105 64.275 61.3105 81.5351C61.3055 98.7901 75.2955 112.78 92.5555 112.78ZM119.211 81.53C119.211 96.1401 107.366 107.985 92.7555 107.985C78.1455 107.985 66.3005 96.1401 66.3005 81.53C66.3005 66.92 78.1455 55.075 92.7555 55.075C107.366 55.075 119.211 66.92 119.211 81.53Z" fill="#006A4E"/>
<path d="M92.75 108.5C107.8 108.5 120 96.41 120 81.5C120 66.59 107.8 54.5 92.75 54.5C77.7 54.5 65.5 66.59 65.5 81.5C65.5 96.41 77.7 108.5 92.75 108.5Z" fill="white" fill-opacity="0.3"/>
<path d="M97.4613 81.5L104.056 74.93C104.676 74.28 105.011 73.415 105.001 72.52C104.991 71.625 104.626 70.775 103.991 70.14C103.356 69.51 102.496 69.145 101.596 69.135C100.696 69.125 99.8263 69.46 99.1713 70.075L92.5613 76.645L85.9663 70.075C85.6513 69.74 85.2663 69.475 84.8463 69.29C84.4213 69.105 83.9663 69.005 83.5063 69C83.0463 68.995 82.5863 69.08 82.1563 69.25C81.7263 69.425 81.3413 69.68 81.0113 70.005C80.6863 70.33 80.4263 70.715 80.2513 71.14C80.0763 71.565 79.9913 72.02 79.9963 72.48C80.0013 72.94 80.1013 73.39 80.2863 73.815C80.4713 74.235 80.7413 74.615 81.0763 74.93L87.6913 81.5L81.0863 88.07C80.7513 88.385 80.4813 88.765 80.2963 89.185C80.1113 89.605 80.0113 90.06 80.0063 90.52C80.0013 90.98 80.0863 91.435 80.2613 91.86C80.4363 92.285 80.6913 92.67 81.0213 92.995C81.3463 93.32 81.7363 93.575 82.1663 93.75C82.5963 93.925 83.0513 94.01 83.5163 94C83.9813 93.99 84.4363 93.895 84.8563 93.71C85.2813 93.525 85.6613 93.26 85.9763 92.925L92.5863 86.355L99.1963 92.925C99.8563 93.5 100.711 93.81 101.591 93.78C102.471 93.75 103.306 93.39 103.926 92.775C104.546 92.155 104.906 91.325 104.931 90.45C104.956 89.575 104.646 88.725 104.061 88.07L97.4613 81.5Z" fill="#FD0C0F"/>
<path d="M130.301 126.92L137.681 118.355L138.791 119.415C139.871 120.445 140.516 121.88 140.586 123.415C140.656 124.945 140.146 126.445 139.171 127.58C138.191 128.715 136.826 129.395 135.371 129.47C133.916 129.545 132.491 129.01 131.416 127.98L130.301 126.92Z" fill="#FFDA45"/>
<path fill-rule="evenodd" clip-rule="evenodd" d="M28.1556 45.585C28.1456 44.87 28.0556 44.155 27.8806 43.43C27.2506 40.89 24.4556 39.26 21.4756 38.875C18.4956 38.49 15.4006 39.365 14.2056 41.575C13.5206 42.84 13.4306 43.93 13.7056 44.845C13.9856 45.76 14.6406 46.515 15.5356 47.105C18.0306 48.75 22.3956 49.085 24.3906 48.395C25.3106 48.075 26.2106 47.695 27.0906 47.255C26.5906 50.13 24.7206 52.85 22.2306 55.3C16.8106 60.63 8.40561 64.675 3.82561 66.165C3.58061 66.245 3.44061 66.515 3.52061 66.775C3.59561 67.03 3.86061 67.175 4.10561 67.095C8.77561 65.58 17.3456 61.445 22.8706 56.01C25.7256 53.2 27.7606 50.04 28.1056 46.72C34.5556 43.12 39.8556 36.585 44.3856 31.09C44.5556 30.89 44.5306 30.58 44.3356 30.405C44.1406 30.23 43.8456 30.25 43.6756 30.455C39.3356 35.73 34.2906 42 28.1556 45.585ZM27.2206 46.11C27.2556 45.31 27.1806 44.495 26.9756 43.675C26.4306 41.475 23.9406 40.175 21.3606 39.845C19.7806 39.64 18.1556 39.81 16.8806 40.405C16.0806 40.78 15.4206 41.32 15.0206 42.06C14.5006 43.025 14.3856 43.855 14.6006 44.555C14.8156 45.26 15.3456 45.83 16.0406 46.285C18.3156 47.785 22.2906 48.1 24.1056 47.475C25.1706 47.105 26.2106 46.645 27.2206 46.11Z" fill="black"/>
<path d="M142.5 95C144.157 95 145.5 93.6569 145.5 92C145.5 90.3431 144.157 89 142.5 89C140.843 89 139.5 90.3431 139.5 92C139.5 93.6569 140.843 95 142.5 95Z" fill="#FF8F6B"/>
<path fill-rule="evenodd" clip-rule="evenodd" d="M29.19 112.695C29.725 112.495 30.29 112.23 30.725 111.84C31.24 111.38 31.45 110.79 31.59 110.17C31.77 109.37 31.845 108.52 32.06 107.72C32.14 107.42 32.3 107.31 32.365 107.26C32.535 107.135 32.705 107.1 32.865 107.115C33.055 107.13 33.32 107.205 33.49 107.545C33.515 107.595 33.545 107.665 33.57 107.77C33.585 107.845 33.595 108.075 33.615 108.17C33.655 108.405 33.69 108.64 33.725 108.875C33.835 109.66 33.895 110.325 34.24 111.045C34.705 112.025 35.17 112.62 35.805 112.885C36.415 113.14 37.15 113.095 38.085 112.89C38.175 112.865 38.26 112.85 38.35 112.83C38.76 112.755 39.155 113.04 39.235 113.47C39.315 113.9 39.055 114.32 38.645 114.415C38.56 114.435 38.475 114.455 38.395 114.47C37.13 114.8 35.67 115.975 34.82 117C34.56 117.315 34.175 118.205 33.785 118.77C33.495 119.185 33.17 119.46 32.9 119.56C32.715 119.625 32.565 119.615 32.435 119.58C32.25 119.53 32.095 119.425 31.98 119.26C31.915 119.17 31.855 119.045 31.83 118.89C31.815 118.815 31.815 118.625 31.815 118.535C31.735 118.245 31.64 117.965 31.565 117.675C31.395 116.98 31.065 116.54 30.67 115.96C30.3 115.415 29.905 115.075 29.32 114.8C29.245 114.78 28.635 114.625 28.42 114.535C28.105 114.405 27.955 114.18 27.9 114.06C27.805 113.86 27.8 113.68 27.815 113.535C27.84 113.315 27.935 113.13 28.1 112.98C28.2 112.885 28.355 112.795 28.56 112.75C28.715 112.72 29.135 112.7 29.19 112.695ZM32.775 111.565C32.805 111.63 32.835 111.7 32.865 111.765C33.545 113.2 34.31 114 35.235 114.385L35.265 114.4C34.645 114.885 34.085 115.425 33.655 115.945C33.48 116.16 33.245 116.605 32.99 117.06C32.76 116.275 32.385 115.72 31.915 115.025C31.555 114.495 31.175 114.095 30.71 113.77C31.07 113.575 31.415 113.345 31.715 113.08C32.215 112.635 32.545 112.125 32.775 111.565Z" fill="#FF8F6B"/>
</g>
</g>
<defs>
<linearGradient id="paint0_linear_1036_8392" x1="75.6343" y1="31.778" x2="75.6343" y2="109.293" gradientUnits="userSpaceOnUse">
<stop stop-color="white"/>
<stop offset="0.7188" stop-color="#FAFAFA"/>
</linearGradient>
<clipPath id="clip0_1036_8392">
<rect width="150" height="150" fill="white"/>
</clipPath>
</defs>
</svg>
