<svg width="42" height="41" viewBox="0 0 42 41" fill="none" xmlns="http://www.w3.org/2000/svg">
<g clip-path="url(#clip0_2425_28778)">
<path fill-rule="evenodd" clip-rule="evenodd" d="M13.8732 26.322L20.0468 28.8263L15.1839 39.2716C15.1461 39.3528 15.0715 39.4028 14.982 39.4069C14.8925 39.4109 14.8137 39.368 14.7687 39.2905L12.9568 36.1726L9.40441 36.7933C9.31621 36.8087 9.23254 36.7761 9.17809 36.705C9.12363 36.6339 9.11379 36.5447 9.1516 36.4635L13.8732 26.322Z" fill="#76D39D"/>
<path fill-rule="evenodd" clip-rule="evenodd" d="M18.8473 28.339L20.0486 28.8263L17.6106 34.0628L17.5138 34.2707L17.417 34.4786L17.3202 34.6865L17.2234 34.8944L17.1266 35.1023L17.0298 35.3102L16.933 35.5181L16.8362 35.7259L16.7395 35.9338L16.6427 36.1417L16.5459 36.3496L16.4491 36.5575L16.3523 36.7654L16.2555 36.9733L16.1587 37.1812L16.0619 37.3891L15.9651 37.597L15.8683 37.8048L15.7715 38.0127L15.6747 38.2206L15.5779 38.4285L15.4811 38.6364L15.3843 38.8443L15.2875 39.0522L15.1907 39.2601L15.1856 39.271L15.1838 39.2748C15.1455 39.3538 15.0719 39.4023 14.9837 39.4063C14.8943 39.4103 14.8155 39.3673 14.7705 39.2899L14.2031 38.3136L17.9662 30.2309L18.8473 28.339Z" fill="#49C47D"/>
<path fill-rule="evenodd" clip-rule="evenodd" d="M29.5916 26.322L23.418 28.8263L28.2809 39.2716C28.3187 39.3528 28.3934 39.4028 28.4828 39.4069C28.5723 39.4109 28.6511 39.368 28.6961 39.2905L30.5079 36.1725L34.0603 36.7932C34.1485 36.8086 34.2322 36.776 34.2866 36.7049C34.3411 36.6338 34.3509 36.5446 34.3131 36.4634L29.5916 26.322Z" fill="#76D39D"/>
<path fill-rule="evenodd" clip-rule="evenodd" d="M29.592 26.322L28.3906 26.8094L32.9483 36.5989L34.0606 36.7933C34.1488 36.8087 34.2325 36.7761 34.287 36.705C34.3414 36.6339 34.3513 36.5447 34.3134 36.4635L29.592 26.322Z" fill="#49C47D"/>
<path fill-rule="evenodd" clip-rule="evenodd" d="M23.7264 1.61778L25.7761 3.15208C26.3368 3.57169 26.9268 3.78645 27.626 3.82536L30.1824 3.96755C31.7132 4.0527 32.9564 5.09591 33.3061 6.58864L33.8901 9.08153C34.0497 9.76333 34.3637 10.3072 34.8743 10.7863L36.7412 12.5386C37.8591 13.5877 38.1409 15.186 37.4493 16.5543L36.2942 18.8393C35.9783 19.4643 35.8693 20.0827 35.9524 20.7779L36.2563 23.3203C36.4383 24.8425 35.6268 26.248 34.2175 26.8516L31.8638 27.8596C31.2201 28.1353 30.739 28.5389 30.3558 29.125L28.9543 31.2678C28.1153 32.5508 26.5902 33.1059 25.1226 32.6624L22.6717 31.9217C22.0014 31.7191 21.3735 31.7191 20.7032 31.9217L18.2522 32.6624C16.7847 33.1059 15.2597 32.5508 14.4205 31.2678L13.0191 29.125C12.6358 28.5389 12.1548 28.1353 11.5111 27.8597L9.15762 26.8515C7.74833 26.248 6.93684 24.8425 7.1188 23.3202L7.4227 20.7779C7.50575 20.0825 7.39676 19.4642 7.08083 18.8393L5.92575 16.5542C5.23411 15.186 5.5159 13.5877 6.6338 12.5385L8.50075 10.7862C9.0113 10.307 9.32528 9.76325 9.48497 9.08145L10.069 6.58856C10.4186 5.09583 11.6618 4.05263 13.1926 3.96747L15.749 3.82528C16.4483 3.78638 17.0383 3.57161 17.5989 3.152L19.6486 1.6177C20.8761 0.699033 22.499 0.699033 23.7264 1.61778Z" fill="#2BCB6F"/>
<path fill-rule="evenodd" clip-rule="evenodd" d="M23.7265 1.61783L25.7763 3.15213C26.3369 3.57174 26.927 3.78651 27.6261 3.82541L30.1825 3.9676C31.7133 4.05276 32.9565 5.09588 33.3062 6.58862L33.8902 9.08151C34.0499 9.7633 34.3638 10.3071 34.8744 10.7864L36.7413 12.5386C37.8592 13.5878 38.141 15.186 37.4494 16.5542L36.2943 18.8393C35.9784 19.4643 35.8694 20.0827 35.9524 20.7779L36.2563 23.3203C36.4383 24.8425 35.6269 26.248 34.2175 26.8516L31.8638 27.8596C31.2202 28.1353 30.7391 28.5389 30.3559 29.1249L28.9545 31.2678C28.1788 32.4539 26.817 33.0177 25.4563 32.7459C26.3182 32.5704 27.0937 32.0568 27.6097 31.2678L29.0111 29.1249C29.3944 28.5389 29.8754 28.1353 30.5191 27.8596L32.8727 26.8516C34.282 26.2481 35.0935 24.8425 34.9116 23.3203L34.6077 20.7779C34.5245 20.0826 34.6336 19.4642 34.9495 18.8393L36.1046 16.5542C36.7963 15.186 36.5145 13.5878 35.3966 12.5386L33.5296 10.7864C33.0191 10.3071 32.7051 9.7633 32.5454 9.08151L31.9614 6.58862C31.6117 5.09588 30.3685 4.05268 28.8377 3.9676L26.2813 3.82541C25.5821 3.78651 24.992 3.57174 24.4315 3.15213L22.3817 1.61783C21.962 1.30362 21.4959 1.09698 21.0153 0.997679C21.94 0.806585 22.9188 1.0133 23.7265 1.61783ZM21.0152 31.8415C20.9121 31.8633 20.8083 31.89 20.7034 31.9217L18.2524 32.6624C17.6873 32.8332 17.1138 32.8558 16.5742 32.746C16.6855 32.7237 16.7967 32.696 16.9077 32.6624L19.3586 31.9217C19.9241 31.7508 20.4593 31.7241 21.0152 31.8415Z" fill="#16914A"/>
<path d="M29.0767 24.2654C33.1603 20.1818 33.1603 13.5609 29.0767 9.47728C24.9931 5.39366 18.3722 5.39365 14.2886 9.47728C10.205 13.5609 10.205 20.1818 14.2886 24.2654C18.3722 28.349 24.9931 28.349 29.0767 24.2654Z" fill="#16914A"/>
<path fill-rule="evenodd" clip-rule="evenodd" d="M21.6888 6.4126C21.9148 6.4126 22.1388 6.42057 22.3612 6.43471C16.8986 6.78143 12.5752 11.3209 12.5752 16.871C12.5752 22.421 16.8987 26.9605 22.3612 27.3072C22.1388 27.3214 21.9148 27.3293 21.6888 27.3293C15.9128 27.3293 11.2305 22.647 11.2305 16.871C11.2305 11.0949 15.9128 6.4126 21.6888 6.4126Z" fill="#16914A"/>
<path fill-rule="evenodd" clip-rule="evenodd" d="M20.3817 17.7491L25.2224 12.8601C25.7955 12.2813 26.7303 12.2797 27.3074 12.8536C27.8843 13.4273 27.8861 14.3595 27.3138 14.9372C25.3508 16.9183 23.4011 18.9126 21.4291 20.8847C20.8526 21.4611 19.9174 21.4611 19.3409 20.8847L16.0691 17.6129C15.4926 17.0365 15.4926 16.1012 16.0691 15.5247C16.6456 14.9483 17.5808 14.9483 18.1574 15.5247L20.3817 17.7491Z" fill="#D1F0DE"/>
</g>
<defs>
<clipPath id="clip0_2425_28778">
<rect width="40" height="40" fill="white" transform="translate(1.6875 0.167969)"/>
</clipPath>
</defs>
</svg>
