<svg width="150" height="150" viewBox="0 0 150 150" fill="none" xmlns="http://www.w3.org/2000/svg">
<g clip-path="url(#clip0_2643_36022)">
<mask id="mask0_2643_36022" style="mask-type:luminance" maskUnits="userSpaceOnUse" x="0" y="0" width="150" height="150">
<path d="M150 0H0V150H150V0Z" fill="white"/>
</mask>
<g mask="url(#mask0_2643_36022)">
<path d="M75 134.5C108.135 134.5 135 107.635 135 74.5C135 41.365 108.135 14.5 75 14.5C41.865 14.5 15 41.365 15 74.5C15 107.635 41.865 134.5 75 134.5Z" fill="#E6F0ED"/>
<path d="M52.5 31.7803H98.77C103.19 31.7803 106.77 35.3603 106.77 39.7803V101.295C106.77 105.715 103.19 109.295 98.77 109.295H52.5C48.08 109.295 44.5 105.715 44.5 101.295V39.7803C44.5 35.3603 48.08 31.7803 52.5 31.7803Z" fill="url(#paint0_linear_2643_36022)"/>
<path d="M52.45 41.7803H72.55C73.905 41.7803 75 42.8753 75 44.2303C75 45.5853 73.905 46.6803 72.55 46.6803H52.45C51.095 46.6803 50 45.5853 50 44.2303C50 42.8753 51.095 41.7803 52.45 41.7803Z" fill="#006A4E"/>
<path d="M52.45 55.6797H97.55C98.905 55.6797 100 56.7747 100 58.1297C100 59.4847 98.905 60.5797 97.55 60.5797H52.45C51.095 60.5797 50 59.4847 50 58.1297C50 56.7747 51.095 55.6797 52.45 55.6797Z" fill="#D5D5D5"/>
<path d="M52.45 69.5801H97.55C98.905 69.5801 100 70.6751 100 72.0301C100 73.3851 98.905 74.4801 97.55 74.4801H52.45C51.095 74.4801 50 73.3851 50 72.0301C50 70.6751 51.095 69.5801 52.45 69.5801Z" fill="#D5D5D5"/>
<path d="M52.45 83.4805H97.55C98.905 83.4805 100 84.5755 100 85.9305C100 87.2855 98.905 88.3805 97.55 88.3805H52.45C51.095 88.3805 50 87.2855 50 85.9305C50 84.5755 51.095 83.4805 52.45 83.4805Z" fill="#D5D5D5"/>
<path d="M52.45 97.3799H97.55C98.905 97.3799 100 98.4749 100 99.8299C100 101.185 98.905 102.28 97.55 102.28H52.45C51.095 102.28 50 101.185 50 99.8299C50 98.4749 51.095 97.3799 52.45 97.3799Z" fill="#D5D5D5"/>
<path d="M119 36.5C120.655 36.5 122 35.155 122 33.5C122 31.845 120.655 30.5 119 30.5C117.345 30.5 116 31.845 116 33.5C116 35.155 117.345 36.5 119 36.5Z" fill="#FFDA45"/>
<path d="M129 30.5H139C140.655 30.5 142 31.845 142 33.5C142 35.155 140.655 36.5 139 36.5H129C127.345 36.5 126 35.155 126 33.5C126 31.845 127.345 30.5 129 30.5Z" fill="#D5D5D5"/>
<path fill-rule="evenodd" clip-rule="evenodd" d="M92.5555 112.78C98.9955 112.78 104.981 110.83 109.956 107.495L130.305 126.92L137.685 118.36L118.051 99.6152C121.676 94.5102 123.81 88.2702 123.81 81.5352C123.81 64.2752 109.821 50.2852 92.5605 50.2852C75.3005 50.2852 61.3105 64.2752 61.3105 81.5352C61.3055 98.7902 75.2955 112.78 92.5555 112.78ZM119.211 81.5302C119.211 96.1402 107.366 107.985 92.7555 107.985C78.1455 107.985 66.3005 96.1402 66.3005 81.5302C66.3005 66.9202 78.1455 55.0752 92.7555 55.0752C107.366 55.0752 119.211 66.9202 119.211 81.5302Z" fill="#006A4E"/>
<path d="M92.75 108.5C107.8 108.5 120 96.41 120 81.5C120 66.59 107.8 54.5 92.75 54.5C77.7 54.5 65.5 66.59 65.5 81.5C65.5 96.41 77.7 108.5 92.75 108.5Z" fill="white" fill-opacity="0.3"/>
<path d="M97.4613 81.5002L104.056 74.9302C104.676 74.2802 105.011 73.4152 105.001 72.5202C104.991 71.6252 104.626 70.7752 103.991 70.1402C103.356 69.5102 102.496 69.1452 101.596 69.1352C100.696 69.1252 99.8263 69.4602 99.1713 70.0752L92.5613 76.6452L85.9663 70.0752C85.6513 69.7402 85.2663 69.4752 84.8463 69.2902C84.4213 69.1052 83.9663 69.0052 83.5063 69.0002C83.0463 68.9952 82.5863 69.0802 82.1563 69.2502C81.7263 69.4252 81.3413 69.6802 81.0113 70.0052C80.6863 70.3302 80.4263 70.7152 80.2513 71.1402C80.0763 71.5652 79.9913 72.0202 79.9963 72.4802C80.0013 72.9402 80.1013 73.3902 80.2863 73.8152C80.4713 74.2352 80.7413 74.6152 81.0763 74.9302L87.6913 81.5002L81.0863 88.0702C80.7513 88.3852 80.4813 88.7652 80.2963 89.1852C80.1113 89.6052 80.0113 90.0602 80.0063 90.5202C80.0013 90.9802 80.0863 91.4352 80.2613 91.8602C80.4363 92.2852 80.6913 92.6702 81.0213 92.9952C81.3463 93.3202 81.7363 93.5752 82.1663 93.7502C82.5963 93.9252 83.0513 94.0102 83.5163 94.0002C83.9813 93.9902 84.4363 93.8952 84.8563 93.7102C85.2813 93.5252 85.6613 93.2602 85.9763 92.9252L92.5863 86.3552L99.1963 92.9252C99.8563 93.5002 100.711 93.8102 101.591 93.7802C102.471 93.7502 103.306 93.3902 103.926 92.7752C104.546 92.1552 104.906 91.3252 104.931 90.4502C104.956 89.5752 104.646 88.7252 104.061 88.0702L97.4613 81.5002Z" fill="#FD0C0F"/>
<path d="M130.301 126.92L137.681 118.355L138.791 119.415C139.871 120.445 140.516 121.88 140.586 123.415C140.656 124.945 140.146 126.445 139.171 127.58C138.191 128.715 136.826 129.395 135.371 129.47C133.916 129.545 132.491 129.01 131.416 127.98L130.301 126.92Z" fill="#FFDA45"/>
<path fill-rule="evenodd" clip-rule="evenodd" d="M28.1556 45.5848C28.1456 44.8698 28.0556 44.1548 27.8806 43.4298C27.2506 40.8898 24.4556 39.2598 21.4756 38.8748C18.4956 38.4898 15.4006 39.3648 14.2056 41.5748C13.5206 42.8398 13.4306 43.9298 13.7056 44.8448C13.9856 45.7598 14.6406 46.5148 15.5356 47.1048C18.0306 48.7498 22.3956 49.0848 24.3906 48.3948C25.3106 48.0748 26.2106 47.6948 27.0906 47.2548C26.5906 50.1298 24.7206 52.8498 22.2306 55.2998C16.8106 60.6298 8.40561 64.6748 3.82561 66.1648C3.58061 66.2448 3.44061 66.5148 3.52061 66.7748C3.59561 67.0298 3.86061 67.1748 4.10561 67.0948C8.77561 65.5798 17.3456 61.4448 22.8706 56.0098C25.7256 53.1998 27.7606 50.0398 28.1056 46.7198C34.5556 43.1198 39.8556 36.5848 44.3856 31.0898C44.5556 30.8898 44.5306 30.5798 44.3356 30.4048C44.1406 30.2298 43.8456 30.2498 43.6756 30.4548C39.3356 35.7298 34.2906 41.9998 28.1556 45.5848ZM27.2206 46.1098C27.2556 45.3098 27.1806 44.4948 26.9756 43.6748C26.4306 41.4748 23.9406 40.1748 21.3606 39.8448C19.7806 39.6398 18.1556 39.8098 16.8806 40.4048C16.0806 40.7798 15.4206 41.3198 15.0206 42.0598C14.5006 43.0248 14.3856 43.8548 14.6006 44.5548C14.8156 45.2598 15.3456 45.8298 16.0406 46.2848C18.3156 47.7848 22.2906 48.0998 24.1056 47.4748C25.1706 47.1048 26.2106 46.6448 27.2206 46.1098Z" fill="black"/>
<path d="M142.5 95C144.157 95 145.5 93.6569 145.5 92C145.5 90.3431 144.157 89 142.5 89C140.843 89 139.5 90.3431 139.5 92C139.5 93.6569 140.843 95 142.5 95Z" fill="#FF8F6B"/>
<path fill-rule="evenodd" clip-rule="evenodd" d="M29.19 112.695C29.725 112.495 30.29 112.23 30.725 111.84C31.24 111.38 31.45 110.79 31.59 110.17C31.77 109.37 31.845 108.52 32.06 107.72C32.14 107.42 32.3 107.31 32.365 107.26C32.535 107.135 32.705 107.1 32.865 107.115C33.055 107.13 33.32 107.205 33.49 107.545C33.515 107.595 33.545 107.665 33.57 107.77C33.585 107.845 33.595 108.075 33.615 108.17C33.655 108.405 33.69 108.64 33.725 108.875C33.835 109.66 33.895 110.325 34.24 111.045C34.705 112.025 35.17 112.62 35.805 112.885C36.415 113.14 37.15 113.095 38.085 112.89C38.175 112.865 38.26 112.85 38.35 112.83C38.76 112.755 39.155 113.04 39.235 113.47C39.315 113.9 39.055 114.32 38.645 114.415C38.56 114.435 38.475 114.455 38.395 114.47C37.13 114.8 35.67 115.975 34.82 117C34.56 117.315 34.175 118.205 33.785 118.77C33.495 119.185 33.17 119.46 32.9 119.56C32.715 119.625 32.565 119.615 32.435 119.58C32.25 119.53 32.095 119.425 31.98 119.26C31.915 119.17 31.855 119.045 31.83 118.89C31.815 118.815 31.815 118.625 31.815 118.535C31.735 118.245 31.64 117.965 31.565 117.675C31.395 116.98 31.065 116.54 30.67 115.96C30.3 115.415 29.905 115.075 29.32 114.8C29.245 114.78 28.635 114.625 28.42 114.535C28.105 114.405 27.955 114.18 27.9 114.06C27.805 113.86 27.8 113.68 27.815 113.535C27.84 113.315 27.935 113.13 28.1 112.98C28.2 112.885 28.355 112.795 28.56 112.75C28.715 112.72 29.135 112.7 29.19 112.695ZM32.775 111.565C32.805 111.63 32.835 111.7 32.865 111.765C33.545 113.2 34.31 114 35.235 114.385L35.265 114.4C34.645 114.885 34.085 115.425 33.655 115.945C33.48 116.16 33.245 116.605 32.99 117.06C32.76 116.275 32.385 115.72 31.915 115.025C31.555 114.495 31.175 114.095 30.71 113.77C31.07 113.575 31.415 113.345 31.715 113.08C32.215 112.635 32.545 112.125 32.775 111.565Z" fill="#FF8F6B"/>
</g>
</g>
<defs>
<linearGradient id="paint0_linear_2643_36022" x1="75.6343" y1="31.7783" x2="75.6343" y2="109.293" gradientUnits="userSpaceOnUse">
<stop stop-color="white"/>
<stop offset="0.7188" stop-color="#FAFAFA"/>
</linearGradient>
<clipPath id="clip0_2643_36022">
<rect width="150" height="150" fill="white"/>
</clipPath>
</defs>
</svg>
