<svg width="80" height="80" viewBox="0 0 80 80" fill="none" xmlns="http://www.w3.org/2000/svg">
<path fill-rule="evenodd" clip-rule="evenodd" d="M28.8723 49.026L37.927 52.699L30.7947 68.0188C30.7392 68.1378 30.6299 68.2112 30.4986 68.2171C30.3674 68.2231 30.2518 68.1601 30.1858 68.0465L27.5284 63.4735L22.3181 64.3839C22.1888 64.4064 22.0661 64.3587 21.9862 64.2544C21.9063 64.1501 21.8919 64.0193 21.9473 63.9002L28.8723 49.026Z" fill="#76D39D"/>
<path fill-rule="evenodd" clip-rule="evenodd" d="M36.1669 51.9842L37.9288 52.699L34.3531 60.3792L34.2112 60.6841L34.0692 60.989L33.9272 61.2939L33.7853 61.5988L33.6433 61.9037L33.5013 62.2086L33.3594 62.5135L33.2174 62.8184L33.0754 63.1233L32.9334 63.4282L32.7915 63.7331L32.6495 64.038L32.5075 64.3429L32.3656 64.6479L32.2236 64.9528L32.0816 65.2577L31.9397 65.5626L31.7977 65.8675L31.6557 66.1724L31.5138 66.4773L31.3718 66.7822L31.2298 67.0871L31.0879 67.392L30.9459 67.6969L30.8039 68.0018L30.7965 68.0179L30.7938 68.0235C30.7376 68.1393 30.6296 68.2104 30.5004 68.2162C30.3692 68.2222 30.2536 68.1591 30.1876 68.0456L29.3555 66.6136L34.8746 54.759L36.1669 51.9842Z" fill="#49C47D"/>
<path fill-rule="evenodd" clip-rule="evenodd" d="M51.9258 49.026L42.8711 52.699L50.0034 68.0188C50.0589 68.1378 50.1683 68.2112 50.2995 68.2171C50.4307 68.2231 50.5463 68.1601 50.6123 68.0464L53.2696 63.4734L58.4799 64.3837C58.6092 64.4063 58.7319 64.3585 58.8118 64.2543C58.8917 64.15 58.9061 64.0191 58.8506 63.9001L51.9258 49.026Z" fill="#76D39D"/>
<path fill-rule="evenodd" clip-rule="evenodd" d="M51.926 49.026L50.1641 49.7408L56.8486 64.0988L58.4801 64.3839C58.6094 64.4064 58.7321 64.3587 58.812 64.2544C58.8919 64.1501 58.9063 64.0193 58.8509 63.9002L51.926 49.026Z" fill="#49C47D"/>
<path fill-rule="evenodd" clip-rule="evenodd" d="M43.3216 12.7935L46.3279 15.0438C47.1502 15.6592 48.0156 15.9742 49.041 16.0313L52.7904 16.2398C55.0356 16.3647 56.8589 17.8948 57.3718 20.0841L58.2283 23.7403C58.4625 24.7403 58.923 25.5379 59.6718 26.2407L62.41 28.8106C64.0496 30.3494 64.4629 32.6935 63.4485 34.7003L61.7544 38.0518C61.2911 38.9683 61.1312 39.8754 61.2531 40.8951L61.6988 44.6238C61.9657 46.8565 60.7755 48.9178 58.7085 49.8031L55.2565 51.2815C54.3123 51.6858 53.6068 52.2778 53.0447 53.1374L50.9893 56.2802C49.7587 58.162 47.5219 58.9761 45.3694 58.3256L41.7747 57.2392C40.7916 56.9421 39.8707 56.9421 38.8876 57.2392L35.2929 58.3256C33.1404 58.9761 30.9037 58.162 29.673 56.2802L27.6176 53.1374C27.0555 52.2778 26.35 51.6858 25.4058 51.2816L21.9541 49.803C19.8871 48.9178 18.697 46.8564 18.9638 44.6237L19.4095 40.8949C19.5313 39.8752 19.3715 38.9682 18.9081 38.0517L17.214 34.7002C16.1996 32.6935 16.6129 30.3494 18.2525 28.8105L20.9907 26.2405C21.7395 25.5377 22.2 24.7402 22.4342 23.7402L23.2907 20.084C23.8036 17.8946 25.627 16.3646 27.8721 16.2397L31.6215 16.0312C32.647 15.9741 33.5125 15.6591 34.3346 15.0437L37.3409 12.7934C39.1411 11.446 41.5215 11.446 43.3216 12.7935Z" fill="#2BCB6F"/>
<path fill-rule="evenodd" clip-rule="evenodd" d="M43.322 12.7934L46.3284 15.0437C47.1506 15.6591 48.016 15.9741 49.0415 16.0312L52.7909 16.2397C55.036 16.3646 56.8594 17.8945 57.3722 20.0839L58.2288 23.7401C58.463 24.7401 58.9235 25.5377 59.6723 26.2406L62.4105 28.8106C64.05 30.3493 64.4633 32.6934 63.4489 34.7001L61.7548 38.0516C61.2915 38.9683 61.1316 39.8752 61.2534 40.8949L61.6991 44.6236C61.966 46.8563 60.7759 48.9176 58.7089 49.8029L55.2568 51.2813C54.3127 51.6856 53.6073 52.2776 53.0451 53.1372L50.9897 56.28C49.852 58.0196 47.8547 58.8465 45.859 58.4479C47.1232 58.1905 48.2606 57.4373 49.0174 56.28L51.0728 53.1372C51.6349 52.2776 52.3404 51.6856 53.2845 51.2813L56.7365 49.8029C58.8035 48.9178 59.9937 46.8563 59.7268 44.6236L59.2811 40.8949C59.1592 39.8751 59.3191 38.9681 59.7825 38.0516L61.4766 34.7001C62.491 32.6934 62.0777 30.3493 60.4381 28.8106L57.6999 26.2406C56.9511 25.5377 56.4906 24.7401 56.2564 23.7401L55.3999 20.0839C54.887 17.8945 53.0637 16.3645 50.8185 16.2397L47.0691 16.0312C46.0436 15.9741 45.1782 15.6591 44.356 15.0437L41.3497 12.7934C40.734 12.3325 40.0506 12.0295 39.3456 11.8838C40.7018 11.6036 42.1375 11.9068 43.322 12.7934ZM39.3455 57.1215C39.1943 57.1534 39.042 57.1926 38.8881 57.2391L35.2934 58.3255C34.4646 58.576 33.6235 58.6091 32.832 58.448C32.9952 58.4153 33.1584 58.3748 33.3211 58.3255L36.9158 57.2391C37.7451 56.9884 38.5301 56.9492 39.3455 57.1215Z" fill="#16914A"/>
<path d="M51.1706 46.0103C57.1599 40.021 57.1599 30.3104 51.1706 24.3211C45.1813 18.3317 35.4707 18.3317 29.4813 24.3211C23.492 30.3104 23.492 40.021 29.4813 46.0103C35.4707 51.9996 45.1813 51.9996 51.1706 46.0103Z" fill="#16914A"/>
<path fill-rule="evenodd" clip-rule="evenodd" d="M40.3311 19.826C40.6625 19.826 40.9911 19.8376 41.3172 19.8584C33.3054 20.3669 26.9645 27.0248 26.9645 35.1649C26.9645 43.3049 33.3055 49.9629 41.3172 50.4714C40.9911 50.4921 40.6625 50.5038 40.3311 50.5038C31.8596 50.5038 24.9922 43.6364 24.9922 35.165C24.9922 26.6934 31.8596 19.826 40.3311 19.826Z" fill="#16914A"/>
<path fill-rule="evenodd" clip-rule="evenodd" d="M38.4124 36.4526L45.5122 29.2819C46.3527 28.4331 47.7238 28.4307 48.5701 29.2724C49.4163 30.1139 49.4189 31.4811 48.5795 32.3284C45.7005 35.2341 42.8409 38.1589 39.9486 41.0514C39.1031 41.8969 37.7314 41.8969 36.8859 41.0514L32.0873 36.2528C31.2417 35.4073 31.2417 34.0357 32.0873 33.1901C32.9328 32.3446 34.3044 32.3446 35.1501 33.1901L38.4124 36.4526Z" fill="#D1F0DE"/>
</svg>
