<svg width="185" height="150" viewBox="0 0 185 150" fill="none" xmlns="http://www.w3.org/2000/svg">
<g clip-path="url(#clip0_1964_42715)">
<path d="M19.746 140.399C28.301 145.67 38.3705 145.404 47.1677 139.851C60.9263 131.081 75.4965 120.812 91.7634 125.284C113.833 131.291 136.769 143.379 159.103 133.829C170.875 128.847 179.584 118.138 182.554 105.187C184.783 95.4938 184.443 85.7698 182.259 76.502C181.713 74.1854 181.048 71.8971 180.267 69.6465C178.05 63.153 174.451 57.4012 169.305 52.7734C161.06 45.5948 151.576 40.4191 145.912 30.858C138.981 19.1161 131.46 5.81958 117.469 2.62131C114.153 1.5956 110.698 0.847178 107.099 0.42451C95.3699 -0.925605 83.9258 1.00198 73.2095 5.49518C50.1917 15.1358 30.0997 31.29 14.8932 51.1891C12.5643 54.5072 10.4698 58.0177 8.63703 61.671C1.30478 76.2826 -1.83312 93.1611 1.07831 108.96C1.80617 112.909 2.91235 116.793 4.42567 120.555C5.93898 124.317 7.85943 127.959 10.2132 131.422C12.4936 134.144 16.3816 138.61 19.746 140.399Z" fill="#E6F0ED"/>
<path d="M78.9228 149.973C85.8741 149.542 94.793 146.644 96.487 139.11C97.6128 133.854 90.8827 131.474 86.4684 131.164C79.2383 130.592 69.5876 130.767 66.1486 138.568C64.6851 141.876 66.5754 145.672 69.3756 147.545C71.8118 149.261 75.1578 150.172 78.9228 149.973Z" fill="#E6F0ED"/>
<path d="M6.24532 30.8444C2.17795 35.6499 1.4213 41.5605 4.51076 44.0548C7.60023 46.5491 13.3747 44.7036 17.459 39.9264C21.5434 35.1505 22.3773 29.2237 19.2708 26.7012C16.1643 24.18 10.3127 26.0402 6.24532 30.8444Z" fill="#E6F0ED"/>
<g opacity="0.37">
<path d="M51.257 90.444C51.5502 90.405 51.8199 90.619 51.8578 90.9206L52.4103 95.3317C52.4482 95.6332 52.2401 95.9105 51.9468 95.9495C51.6536 95.9885 51.3839 95.7745 51.346 95.473L50.7935 91.0619C50.7556 90.759 50.9637 90.4831 51.257 90.444Z" fill="#F5F5F5"/>
<path d="M49.3878 92.933L53.6777 92.3649C53.971 92.3259 54.2406 92.5399 54.2786 92.8415C54.3166 93.143 54.1084 93.4203 53.8152 93.4593L49.5253 94.0274C49.232 94.0664 48.9624 93.8524 48.9244 93.5508C48.8864 93.248 49.0946 92.972 49.3878 92.933Z" fill="#F5F5F5"/>
<path d="M110.773 29.3552C111.066 29.3161 111.336 29.5302 111.373 29.8317L111.846 33.6061C111.884 33.9076 111.676 34.1849 111.383 34.2239C111.089 34.263 110.82 34.0489 110.782 33.7474L110.309 29.973C110.271 29.6702 110.478 29.3942 110.773 29.3552Z" fill="#F5F5F5"/>
<path d="M109.173 31.4847L112.844 30.9987C113.137 30.9597 113.407 31.1737 113.445 31.4752C113.483 31.7768 113.274 32.0541 112.981 32.0931L109.31 32.579C109.017 32.6181 108.748 32.404 108.71 32.1025C108.672 31.801 108.88 31.5237 109.173 31.4847Z" fill="#F5F5F5"/>
<path d="M113.364 122.937C113.657 122.898 113.927 123.112 113.965 123.414L114.438 127.188C114.476 127.49 114.267 127.767 113.974 127.806C113.681 127.845 113.411 127.631 113.373 127.329L112.901 123.555C112.864 123.254 113.071 122.976 113.364 122.937Z" fill="#F5F5F5"/>
<path d="M111.765 125.069L115.435 124.583C115.729 124.544 115.998 124.758 116.036 125.059C116.074 125.361 115.866 125.638 115.573 125.677L111.902 126.163C111.609 126.202 111.339 125.988 111.301 125.686C111.263 125.384 111.47 125.108 111.765 125.069Z" fill="#F5F5F5"/>
<path d="M14.3956 28.1814C14.6889 28.1423 14.9586 28.3563 14.9965 28.6579L15.4691 32.4323C15.5071 32.7338 15.2989 33.0111 15.0057 33.0501C14.7124 33.0891 14.4428 32.8751 14.4048 32.5736L13.9322 28.7992C13.8943 28.4963 14.1011 28.219 14.3956 28.1814Z" fill="#F5F5F5"/>
<path d="M12.796 30.3108L16.4667 29.8249C16.76 29.7859 17.0296 29.9999 17.0676 30.3014C17.1056 30.6029 16.8974 30.8802 16.6042 30.9193L12.9335 31.4052C12.6402 31.4442 12.3706 31.2302 12.3326 30.9287C12.2946 30.6272 12.5028 30.3499 12.796 30.3108Z" fill="#F5F5F5"/>
<path d="M149.995 119.563C150.973 119.434 151.871 120.146 151.997 121.151C152.122 122.157 151.43 123.08 150.452 123.21C149.474 123.339 148.577 122.627 148.45 121.621C148.325 120.616 149.017 119.692 149.995 119.563ZM150.314 122.115C150.706 122.064 150.982 121.694 150.932 121.293C150.883 120.89 150.523 120.606 150.132 120.657C149.741 120.709 149.465 121.079 149.515 121.48C149.564 121.882 149.923 122.166 150.314 122.115Z" fill="#F5F5F5"/>
<path d="M16.175 92.3892C17.1529 92.2599 18.0509 92.972 18.1766 93.9775C18.3022 94.9831 17.6097 95.9065 16.6318 96.0357C15.6539 96.1649 14.7559 95.4528 14.6302 94.4473C14.5032 93.4405 15.1971 92.5184 16.175 92.3892ZM16.4944 94.9413C16.8858 94.8902 17.162 94.52 17.1123 94.1189C17.0625 93.7164 16.7025 93.4324 16.3124 93.4835C15.921 93.5347 15.6448 93.9048 15.6945 94.306C15.7443 94.7071 16.103 94.9925 16.4944 94.9413Z" fill="#F5F5F5"/>
<path d="M165.999 70.7214C166.608 70.6406 167.168 71.0848 167.247 71.7108C167.325 72.338 166.893 72.9128 166.284 72.9936C165.676 73.0743 165.115 72.6301 165.037 72.0042C164.957 71.3783 165.389 70.8022 165.999 70.7214Z" fill="#F5F5F5"/>
<path d="M70.544 138.249C71.1527 138.168 71.713 138.612 71.7915 139.239C71.8701 139.867 71.4381 140.441 70.8293 140.522C70.2206 140.603 69.6603 140.159 69.5818 139.533C69.5019 138.904 69.9339 138.328 70.544 138.249Z" fill="#F5F5F5"/>
<path d="M98.2725 6.10616C98.8812 6.0254 99.4415 6.4696 99.52 7.09553C99.5986 7.7228 99.1666 8.29757 98.5579 8.37834C97.9491 8.4591 97.3888 8.0149 97.3103 7.38897C97.2304 6.76305 97.6624 6.18693 98.2725 6.10616Z" fill="#F5F5F5"/>
<path d="M130.082 17.3375C130.878 17.2325 131.609 17.8126 131.711 18.6311C131.813 19.4495 131.249 20.2006 130.453 20.3069C129.657 20.4119 128.927 19.8318 128.824 19.0133C128.722 18.1949 129.287 17.4425 130.082 17.3375ZM130.317 19.2126C130.526 19.1843 130.674 18.9878 130.648 18.771C130.621 18.5557 130.428 18.4036 130.22 18.4305C130.01 18.4588 129.863 18.6553 129.889 18.8707C129.915 19.0874 130.107 19.2395 130.317 19.2126Z" fill="#F5F5F5"/>
<path d="M48.9721 23.6197C49.768 23.5147 50.4985 24.0949 50.6019 24.9133C50.704 25.7317 50.1398 26.4828 49.3439 26.5891C48.5479 26.6941 47.8175 26.114 47.7154 25.2956C47.6119 24.4771 48.1761 23.726 48.9721 23.6197ZM49.2064 25.4948C49.4159 25.4665 49.5638 25.2686 49.5376 25.0533C49.5101 24.8379 49.319 24.6858 49.1095 24.7127C48.9001 24.741 48.7522 24.9375 48.7783 25.1529C48.8058 25.3696 48.997 25.523 49.2064 25.4948Z" fill="#F5F5F5"/>
</g>
<g clip-path="url(#clip1_1964_42715)">
<path d="M99.347 126.323L159.025 82.3573L94.4441 72.6426L24.7461 108.074C24.7461 108.074 25.302 110.237 25.2287 110.258L99.347 126.323Z" fill="#CE6B19"/>
<path d="M159.029 82.2861L99.3514 126.252L25.2338 110.186L25.1387 112.172L99.3124 129.725L158.881 85.3819L159.029 82.2861Z" fill="#C15011"/>
<path d="M158.168 67.3008L100.234 107.841L90.546 109.122L89.7539 117.315L96.6462 124.224L156.416 81.9661C156.416 81.9661 154.747 79.2413 155.449 75.0488C156.15 70.8555 158.168 67.3008 158.168 67.3008Z" fill="#EAD2B0"/>
<path d="M158.167 67.3008L100.234 107.841L94.2651 108.63C94.0234 109.027 93.7968 109.434 93.5921 109.856C92.2921 112.529 91.9081 115.858 93.3279 118.466C114.387 103.513 135.264 88.2866 155.954 72.7976C156.829 69.6582 158.167 67.3008 158.167 67.3008Z" fill="#DBC5A9"/>
<path d="M28.324 89.2725C28.324 89.2725 22.7167 91.5194 21.7631 97.7997C20.1865 108.178 25.1373 112.172 25.1373 112.172L28.324 89.2725Z" fill="#C15011"/>
<path d="M97.5389 51.6572C97.5389 51.6572 29.1348 89.0393 28.3242 89.2723L102.443 105.338L162.12 61.3719L97.5389 51.6572Z" fill="#CE6B19"/>
<path d="M162.119 61.3721L102.441 105.339L28.3231 89.2724L27.8418 91.1666L102.402 108.812L161.971 64.4686L162.119 61.3721Z" fill="#C15011"/>
<path d="M99.8095 108.198L27.8435 91.167L25.6152 108.744L96.6475 124.223C96.6475 124.223 91.9971 119.062 93.3745 114.096C94.7525 109.132 99.8095 108.198 99.8095 108.198Z" fill="#F4DEC9"/>
<path d="M23.0586 99.0776C22.1145 104.029 25.4128 110.196 25.4128 110.196L27.843 91.167C27.8424 91.1663 24.2059 93.0563 23.0586 99.0776Z" fill="#933B0F"/>
<path d="M25.9648 105.868C25.9648 105.868 93.7631 119.369 93.7535 119.343C93.7446 119.317 26.1394 104.969 26.1394 104.969L25.9648 105.868Z" fill="#FFF2E1"/>
<path d="M26.5137 101.996L93.3748 114.096L26.8224 100.022L26.5137 101.996Z" fill="#FFF2E1"/>
<path d="M27.3008 96.7307L68.63 104.56L27.3994 94.6562L27.3008 96.7307Z" fill="#FFF2E1"/>
<path d="M94.4609 120.957L95.1216 122.126L144.459 86.3281C144.459 86.3288 94.9203 120.455 94.4609 120.957Z" fill="#DBC5A9"/>
<path d="M134.414 73.6876C119.419 79.1922 103.991 83.446 88.3292 86.3933C82.615 87.4689 76.8632 88.3509 71.0779 88.8999C60.9311 89.8636 50.6125 89.8157 40.5834 87.8011C38.4626 87.3752 36.3582 86.8607 34.2799 86.2525C30.8406 88.1073 28.7061 89.2441 28.5664 89.2843L102.684 105.35L159.936 63.1719C151.529 66.9371 143.048 70.5179 134.414 73.6876Z" fill="#DD6F1D"/>
<path d="M96.9427 56.1895L84.6094 63.5932L138.211 71.7664L149.182 63.9635L96.9427 56.1895Z" fill="#FFB103"/>
<path d="M91.6629 66.4219L89.082 68.1127L123.383 74.1009L126.218 71.5907L91.6629 66.4219Z" fill="#F4DEC9"/>
<path d="M111.039 95.1195V80.3598L27.0076 65.9219C27.0076 65.9219 24.8184 67.9534 24.8184 72.9209C24.8184 78.8267 27.5943 80.3598 27.5943 80.3598L111.039 95.1195Z" fill="#296BCC"/>
<path d="M75.0671 47.0811L27.0078 65.922L111.039 80.36C111.039 80.36 147.743 56.089 148.174 55.7941C148.605 55.4992 75.0671 47.0811 75.0671 47.0811Z" fill="#359CEF"/>
<path d="M145.542 65.9219L111.039 88.8202V95.1195L150.041 68.1997V66.3154L145.542 65.9219Z" fill="#359CEF"/>
<path d="M111.039 80.3598V82.3364L148.174 57.1025V55.7939L111.039 80.3598Z" fill="#296BCC"/>
<path d="M111.039 92.5721V95.1196L150.041 68.1998V66.3154L111.039 92.5721Z" fill="#296BCC"/>
<path d="M111.039 82.3363V91.2218L147.659 66.3159C147.659 66.3159 146.207 64.8504 146.207 61.794C146.207 58.7376 147.241 57.7373 147.241 57.7373L111.039 82.3363Z" fill="#EAD2B0"/>
<path d="M111.039 91.2217V82.3369C111.039 82.3369 108.843 84.3008 109.085 87.6831C109.327 91.0654 111.039 91.2217 111.039 91.2217Z" fill="#1C54A5"/>
<path d="M44.9785 69.0488L44.0256 68.8848C43.2958 70.9254 42.8399 73.0688 42.7283 75.2446C42.5859 78.0152 43.0426 80.8295 44.207 83.3375L45.3886 83.5466C44.8053 82.4471 44.3624 81.2659 44.0756 80.0312C43.43 77.2522 43.5615 74.3197 44.2214 71.5575C44.424 70.7058 44.6787 69.8688 44.9785 69.0488Z" fill="#0098FF"/>
<path d="M33.7808 67.1247L32.823 66.96C31.9701 69.3828 31.7462 72.0331 32.0734 74.5897C32.3082 76.4241 32.7936 78.2099 33.4843 79.9176C33.7061 80.4653 33.9416 81.0235 34.2059 81.5676L35.3929 81.7773C35.026 81.1213 34.7207 80.4244 34.4393 79.7459C33.1763 76.6944 32.5403 73.2783 33.0469 69.9755C33.1968 68.9999 33.4419 68.044 33.7808 67.1247Z" fill="#0098FF"/>
<path d="M39.605 68.1254L38.6158 67.9551C38.355 68.4591 38.1174 68.9743 37.9251 69.5128C37.4781 70.7623 37.3398 72.1068 37.3418 73.4315C37.3452 75.9924 37.7779 78.5666 38.5905 80.9866C38.7548 81.4766 38.9355 81.9609 39.1306 82.4395L40.2567 82.6387C39.5482 81.0275 39.0211 79.3353 38.6911 77.5952C38.4652 76.4035 38.3365 75.1948 38.303 73.982C38.2681 72.7051 38.3338 71.4162 38.7062 70.1893C38.9259 69.4664 39.2456 68.785 39.605 68.1254Z" fill="#0098FF"/>
<path d="M85.5605 79.9775V86.286L102.434 89.1538V82.3364L85.5605 79.9775Z" fill="#0098FF"/>
<path d="M111.039 85.3543L146.218 61.2656L111.039 83.8915V85.3543Z" fill="#DBC5A9"/>
<path d="M111.039 88.4327L130.54 73.7568L111.039 86.7785V88.4327Z" fill="#DBC5A9"/>
<path d="M111.039 90.8198L146.918 65.1699L111.039 89.6225V90.8198Z" fill="#DBC5A9"/>
<path d="M100.662 58.0781C100.739 47.4955 94.4453 38.9443 94.4453 38.9443L94.5213 73.4833C94.5213 73.4833 100.592 67.6605 100.662 58.0781Z" fill="#FFB600"/>
<path d="M46.6406 60.7316L94.5212 73.4837L94.4452 38.9448L47.3259 32.9932C47.3259 32.9932 50.718 42.6431 50.2244 48.5785C49.5412 56.7854 46.6406 60.7316 46.6406 60.7316Z" fill="#F4DEC9"/>
<path d="M128.628 41.2213C127.986 33.215 125.577 28.4502 125.577 28.4502L94.4453 38.9434L94.5213 73.4824L125.577 57.7358C125.577 57.7358 129.605 53.4265 128.628 41.2213Z" fill="#FFB600"/>
<path d="M82.1895 23.8232L45.3867 32.9931L94.4448 38.944L125.577 28.4508L82.1895 23.8232Z" fill="#FFCE55"/>
<path d="M45.3867 32.9932V35.1711L94.4502 41.5267L94.4448 38.9441L45.3867 32.9932Z" fill="#FFB600"/>
<path d="M44.4512 61.499V63.7199L94.5217 73.4825L94.5422 70.9758L44.4512 61.499Z" fill="#FFB600"/>
<path d="M44.4512 61.4998L94.5422 70.9766L94.5128 69.4723L46.6411 60.7318L47.6577 58.9199L44.4512 61.4998Z" fill="#FFE000"/>
<path d="M99.0885 57.4266C99.3555 47.4022 94.4512 41.5273 94.4512 41.5273L94.5121 69.4727C94.5121 69.472 98.8208 67.4511 99.0885 57.4266Z" fill="#E28C03"/>
<path d="M94.5213 73.4824L125.577 57.7358C125.577 57.7358 129.344 54.2155 128.977 43.2155C128.61 32.2154 125.577 28.4502 125.577 28.4502L94.4453 38.9434C94.4453 38.9434 100.878 42.8678 101.172 54.9687C101.535 69.9262 94.5213 73.4824 94.5213 73.4824Z" fill="#FFB94A"/>
<path d="M128.939 43.2161C128.825 39.7993 128.454 37.0821 127.996 34.957C127.972 36.2881 127.923 37.6171 127.718 38.9271C126.992 43.5722 124.326 47.7239 120.958 50.9091C117.591 54.0943 113.541 56.4095 109.444 58.5044C107.148 59.6785 104.717 60.8019 102.126 60.999C101.702 61.0314 101.273 61.018 100.842 60.9892C99.538 70.9172 94.4824 73.4829 94.4824 73.4829L125.539 57.7357C125.539 57.7364 129.306 54.2161 128.939 43.2161Z" fill="#FFA943"/>
<path d="M49.8262 42.6631L94.3407 49.2996L94.4447 47.0801L49.8262 42.6631Z" fill="#FFF2E1"/>
<path d="M54.8828 40.3623L94.5225 44.6139L94.4465 43.4729L54.8828 40.3623Z" fill="#FFF2E1"/>
<path d="M94.4455 52.5995C94.4455 52.5995 61.4839 50.1626 54.6895 49.4629L94.4455 54.7774V52.5995Z" fill="#FFF2E1"/>
<path d="M54.6887 49.4621L53.4688 49.2988C53.4989 49.3284 53.9363 49.3847 54.6887 49.4621Z" fill="#FFF2E1"/>
<path d="M51.7695 56.2139L94.446 64.1054L94.4973 62.2964L51.7695 56.2139Z" fill="#FFF2E1"/>
<path d="M106.433 56.1152C106.421 56.1152 106.421 56.1349 106.433 56.1349C106.445 56.1349 106.445 56.1152 106.433 56.1152Z" fill="#B56217"/>
<g opacity="0.63">
<path d="M125.417 44.7159C125.688 44.7609 125.802 44.3336 125.531 44.2907C117.172 42.9765 111.052 49.2674 106.646 55.7131C106.639 55.7237 106.656 55.7328 106.663 55.723C110.976 49.5306 117.399 43.3869 125.417 44.7159Z" fill="#B56217"/>
</g>
<path d="M122.167 43.5811C122.155 43.5811 122.155 43.6008 122.167 43.6008C122.18 43.6008 122.18 43.5811 122.167 43.5811Z" fill="#B56217"/>
<g opacity="0.63">
<path d="M110.199 55.204C111.08 55.6334 112.054 54.234 112.479 53.6927C112.709 53.3992 113.955 51.1122 114.385 50.1527C114.369 49.8965 114.404 49.7114 114.524 49.7276C114.559 49.7325 114.5 49.8986 114.385 50.1527C114.415 50.6208 114.624 51.329 114.843 51.5056C115.496 52.0357 116.326 51.6746 116.891 51.2058C117.723 50.5159 118.364 49.4446 119.029 48.6013C119.134 48.469 119.853 47.3835 119.976 47.4025C120.428 47.4715 120.044 47.7073 120.22 48.0741C121.348 50.4301 122.674 46.2791 122.975 45.2063C123.026 45.024 122.748 44.9459 122.699 45.1282C122.517 45.7983 122.403 46.9936 121.87 47.3659C121.286 47.7735 120.374 47.758 120.484 46.719C120.494 46.6212 120.348 46.5578 120.288 46.636C119.587 47.5447 118.886 48.4535 118.186 49.3622C117.955 49.6614 117.638 50.2963 117.316 50.4836C116.843 50.7588 114.591 50.1274 114.805 49.2334C114.839 49.0919 114.649 49.0462 114.598 49.175C114.067 50.5223 113.527 51.8977 112.718 53.1007C112.453 53.5385 112.134 53.9264 111.763 54.2643C111.281 54.852 110.689 54.7021 109.991 53.8321C109.91 54.0531 109.814 54.2861 109.709 54.5247C109.753 54.8084 109.894 55.0555 110.199 55.204Z" fill="#B56217"/>
<path d="M109.989 53.8322C110.082 53.5809 110.159 53.3444 110.22 53.1318C110.267 52.9699 110.036 52.9122 109.979 53.0636C109.917 53.2304 109.845 53.4317 109.789 53.645C109.799 53.6316 109.809 53.6197 109.816 53.6133C109.875 53.695 109.932 53.7611 109.989 53.8322Z" fill="#B56217"/>
<path d="M115.013 43.6942C114.973 43.6886 114.934 43.6836 114.895 43.6787C114.934 43.7111 114.975 43.7139 115.013 43.6942Z" fill="#B56217"/>
<path d="M114.523 49.7275C114.404 49.7114 114.368 49.8972 114.385 50.1527C114.499 49.8986 114.559 49.7318 114.523 49.7275Z" fill="#B56217"/>
<path d="M109.71 54.5249C109.815 54.2869 109.91 54.0532 109.992 53.8322C109.935 53.7611 109.878 53.6942 109.819 53.6133C109.812 53.6189 109.802 53.6309 109.792 53.645C109.715 53.9357 109.666 54.2475 109.71 54.5249Z" fill="#B56217"/>
<path d="M115.013 43.6939C115.207 43.7207 115.401 43.7488 115.593 43.7763C115.722 43.7953 115.816 43.6249 115.687 43.5461C114.767 42.978 115.768 41.9327 116.628 41.7349C117.199 41.6033 118.329 41.8342 118.766 41.9348C119.986 42.2171 121.108 42.7591 122.139 43.4785C122.168 43.4989 122.192 43.4518 122.165 43.4306C120.508 42.1207 117.283 40.622 115.156 41.7004C114.686 41.9383 114.171 42.3156 114.421 42.9597C114.479 43.1104 114.731 43.185 114.751 43.3138C114.76 43.3701 114.771 43.4166 114.782 43.4588C114.832 43.4504 114.875 43.4384 114.903 43.4208C115.271 43.185 115.174 43.6123 115.013 43.6939Z" fill="#B56217"/>
<path d="M106.077 52.6898C105.342 53.5253 104.816 54.589 104.636 55.704C104.457 56.8147 104.63 58.4126 106.057 58.3042C107.667 58.1817 108.967 56.2129 109.709 54.5249C109.665 54.2476 109.713 53.9357 109.791 53.645C109.607 53.8886 109.032 55.3062 108.815 55.6223C108.446 56.1629 107.516 57.4518 106.898 57.5933C106.235 57.444 105.572 57.2955 104.91 57.1463C104.788 56.5029 104.822 55.8659 105.015 55.2359C105.44 53.6161 106.536 52.3632 107.945 51.5649C108.06 51.4995 108.003 51.3228 107.879 51.3179C107.032 50.5492 106.931 49.8882 107.576 49.3363C107.918 48.8457 108.344 48.4438 108.856 48.1291C109.544 47.6674 110.316 47.3999 111.112 47.2126C111.252 47.1796 111.244 46.967 111.112 46.9297C110.142 46.8184 109.864 46.0596 110.278 44.6532C110.647 44.271 111.078 44.0112 111.573 43.8733C112.639 43.4467 113.78 43.5284 114.894 43.6776C114.853 43.6438 114.814 43.5769 114.781 43.458C114.328 43.5375 113.053 43.282 112.693 43.3228C112.087 43.3911 111.504 43.5248 110.963 43.8177C110.325 44.1626 109.278 44.9995 109.279 45.8562C109.28 46.4665 109.22 46.2433 109.624 46.6601C109.896 46.9402 110.465 46.9233 110.432 47.0761C110.427 47.1007 108.763 47.8652 108.72 47.894C108.014 48.3748 106.983 49.2139 106.801 50.1268C106.614 51.0659 107.235 50.9054 107.331 51.5269C107.35 51.6346 106.288 52.4498 106.077 52.6898Z" fill="#B56217"/>
<path d="M114.895 43.6784C114.935 43.6833 114.975 43.6883 115.014 43.6939C115.175 43.6122 115.272 43.185 114.904 43.4208C114.876 43.4384 114.833 43.4503 114.783 43.4588C114.815 43.5777 114.854 43.6446 114.895 43.6784Z" fill="#B56217"/>
</g>
<path d="M60.215 30.6611L54.8828 32.0246L94.5827 36.2847L99.1002 34.3736L60.215 30.6611Z" fill="#FFA403"/>
<path d="M70.5811 29.9482L68.6328 30.4403L88.4472 32.5703L90.3592 31.915L70.5811 29.9482Z" fill="#FFA403"/>
<path d="M94.483 73.4829L94.4453 74.2283L127.186 58.1805L125.539 57.7363L94.483 73.4829Z" fill="#1C54A5"/>
<path d="M44.4512 63.7207L94.4457 74.2287L94.4834 73.4833L44.4512 63.7207Z" fill="#1C54A5"/>
<path d="M150.04 68.1992L111.038 95.119L40.2559 82.6379L111.038 96.5085L151.128 68.1992H150.04Z" fill="#933B0F"/>
</g>
</g>
<defs>
<clipPath id="clip0_1964_42715">
<rect width="184.071" height="150" fill="white"/>
</clipPath>
<clipPath id="clip1_1964_42715">
<rect width="140.667" height="105.902" fill="white" transform="translate(21.4531 23.8232)"/>
</clipPath>
</defs>
</svg>
