<svg width="232" height="232" viewBox="0 0 232 232" fill="none" xmlns="http://www.w3.org/2000/svg">
<rect width="232" height="232" rx="8" fill="#E6F2F4"/>
<path fill-rule="evenodd" clip-rule="evenodd" d="M117.064 105.786C118.026 106.574 118.504 107.002 118.988 107.02C119.466 107.002 119.95 106.574 120.912 105.786L146.276 79.8142C153.778 71.7877 153.778 58.6497 146.276 50.6186C139.459 43.3242 128.266 44.9453 121.165 51.9309L119.83 53.2434C119.057 54.0033 118.909 54.0033 118.118 53.225L116.806 51.9309C109.718 44.9406 98.5111 43.3242 91.6949 50.6186C84.1929 58.6497 84.1929 71.7877 91.6949 79.8142L94.7371 82.9319L117.064 105.786Z" fill="#FD8087"/>
<path fill-rule="evenodd" clip-rule="evenodd" d="M124.289 49.3753C127.939 54.6711 130.056 60.9614 130.056 67.7078C130.056 68.4445 130.028 69.1722 129.978 69.8906C129.573 75.8817 127.492 81.4537 124.169 86.2108C122.706 88.3061 121.003 90.2447 119.088 91.9947C117.045 93.8644 114.767 95.513 112.295 96.8991C111.448 97.3734 110.578 97.82 109.686 98.2345L117.063 105.787C118.025 106.574 118.504 107.003 118.987 107.021C119.466 107.002 119.949 106.574 120.911 105.787L128.671 97.8384L146.275 79.8142C152.203 73.4731 153.446 63.9363 150.008 56.2552C149.092 54.2152 147.849 52.3041 146.275 50.6186C145.239 49.5134 144.103 48.6108 142.897 47.9017C138.966 45.5947 134.286 45.3322 129.867 46.6859C127.93 47.28 126.038 48.1919 124.289 49.3753Z" fill="#FE636E"/>
<path d="M126.467 77.002C126.46 77.002 126.453 77.0019 126.446 77.0019C126.013 76.9942 125.617 76.755 125.409 76.3753L119.168 64.9977L114.522 73.12C114.311 73.4881 113.923 73.7187 113.499 73.7276C113.072 73.7355 112.678 73.5223 112.452 73.1634L109.566 68.575L107.388 72.1944C107.17 72.5573 106.778 72.7792 106.354 72.7792H98.8107C98.144 72.7792 97.6035 72.2384 97.6035 71.5714C97.6035 70.9044 98.144 70.3636 98.8107 70.3636H105.672L108.509 65.6481C108.726 65.2889 109.112 65.0673 109.532 65.0633C109.536 65.0631 109.54 65.0631 109.544 65.0631C109.958 65.0631 110.344 65.2761 110.565 65.6277L113.425 70.1741L118.143 61.927C118.358 61.5509 118.758 61.3192 119.19 61.3192C119.194 61.3192 119.197 61.3192 119.201 61.3194C119.638 61.3233 120.039 61.563 120.249 61.9461L126.51 73.3619L129.669 68.0567C129.886 67.6911 130.28 67.467 130.706 67.467H140.767C141.433 67.467 141.974 68.0078 141.974 68.6748C141.974 69.3419 141.433 69.8827 140.767 69.8827H131.392L127.504 76.4123C127.286 76.7783 126.892 77.002 126.467 77.002Z" fill="#F8F2F0"/>
<path fill-rule="evenodd" clip-rule="evenodd" d="M142.897 58.3505C150.114 58.3505 156 52.4606 156 45.2355C156 38.0148 150.114 32.125 142.897 32.125C135.676 32.125 129.789 38.0148 129.789 45.2355C129.789 52.4606 135.676 58.3505 142.897 58.3505Z" fill="#F8F2F0"/>
<path fill-rule="evenodd" clip-rule="evenodd" d="M138.198 32.9908C142.805 35.0263 146.018 39.6313 146.018 44.9914C146.018 45.0742 146.018 45.1572 146.013 45.2355C145.986 46.7597 145.7 48.2195 145.194 49.5688C143.887 53.087 141.107 55.8914 137.609 57.2361C139.225 57.9545 141.015 58.3505 142.898 58.3505C145.516 58.3505 147.96 57.5814 150.008 56.2552C153.617 53.9158 156.001 49.8542 156.001 45.2355C156.001 37.9964 150.133 32.125 142.897 32.125C141.241 32.125 139.657 32.4289 138.198 32.9908Z" fill="#D6DCEA"/>
<path d="M147.665 44.0275H144.104V40.4646C144.104 39.7976 143.564 39.2568 142.897 39.2568C142.23 39.2568 141.69 39.7976 141.69 40.4646V44.0276H138.129C137.462 44.0276 136.922 44.5684 136.922 45.2354C136.922 45.9025 137.462 46.4432 138.129 46.4432H141.69V50.0062C141.69 50.6732 142.23 51.214 142.897 51.214C143.564 51.214 144.104 50.6732 144.104 50.0062V46.4431H147.665C148.332 46.4431 148.873 45.9023 148.873 45.2353C148.873 44.5682 148.332 44.0275 147.665 44.0275Z" fill="#FD8087"/>
<path fill-rule="evenodd" clip-rule="evenodd" d="M87.18 85.8514L84.4922 94.5733L87.18 103.815L99.5606 107.186L109.603 109.917C115.462 111.741 118.049 110.7 123.438 108.968L143.187 102.632C148.857 100.813 148.011 93.0122 139.713 95.6784L128.671 97.8381L126.867 98.1927C124.188 98.713 123.82 98.9294 121.119 98.5105L112.296 96.8988L110.694 96.6041C107.076 95.4483 108.485 90.6038 111.642 91.0827C113.778 91.3544 116.64 91.7411 119.089 91.9944C119.139 91.9989 119.19 92.0036 119.236 92.0081C123.963 92.487 125.859 88.955 124.17 86.2105C123.53 85.1652 122.366 84.2303 120.64 83.6824L113.989 82.462C109.677 81.67 106.611 82.6555 99.9195 83.7561L96.1502 84.3778L87.18 85.8514Z" fill="#FED1A3"/>
<path fill-rule="evenodd" clip-rule="evenodd" d="M76 84.2904V105.542C76 105.809 76.2808 106.026 76.6214 106.026H86.5536C86.8988 106.026 87.1795 105.81 87.1795 105.542V103.816V85.8514V84.2904C87.1795 84.0233 86.8988 83.8068 86.5536 83.8068H76.6214C76.2808 83.8069 76 84.0233 76 84.2904Z" fill="#99E6FC"/>
<path fill-rule="evenodd" clip-rule="evenodd" d="M76 102.277V105.542C76 105.809 76.2808 106.026 76.6214 106.026H86.5536C86.8988 106.026 87.1795 105.81 87.1795 105.542V103.815V102.277C87.1795 102.54 86.8988 102.761 86.5536 102.761H76.6214C76.2808 102.761 76 102.54 76 102.277Z" fill="#62DBFB"/>
<path fill-rule="evenodd" clip-rule="evenodd" d="M87.1797 102.277V103.815L99.5603 107.186L109.603 109.917C115.462 111.741 118.048 110.7 123.438 108.968L143.187 102.632C146.386 101.61 147.509 98.6809 146.395 96.7975C145.847 97.8842 144.775 98.8605 143.187 99.367L123.438 105.703C118.048 107.43 115.462 108.476 109.603 106.652L99.5603 103.921L87.1797 100.546V102.277Z" fill="#FFBC85"/>
<path fill-rule="evenodd" clip-rule="evenodd" d="M111.642 87.8179C109.138 87.4402 107.734 90.4013 109.06 92.2202C109.589 91.4327 110.501 90.9124 111.642 91.0827C113.777 91.3544 116.64 91.7411 119.089 91.9944L119.236 92.0082C123.742 92.4641 125.675 89.2821 124.386 86.6064C124.032 87.288 123.438 87.8728 122.619 88.2643C121.744 88.6833 120.608 88.8813 119.236 88.7432L119.089 88.7294C116.64 88.4763 113.778 88.0894 111.642 87.8179Z" fill="#FFBC85"/>
<path d="M82.352 151.5V150.94C82.9867 150.903 83.4627 150.828 83.78 150.716C84.0973 150.604 84.3027 150.38 84.396 150.044C84.508 149.708 84.564 149.204 84.564 148.532V134.644C84.564 133.953 84.508 133.449 84.396 133.132C84.3027 132.796 84.088 132.572 83.752 132.46C83.4347 132.329 82.968 132.255 82.352 132.236V131.676C82.8187 131.695 83.3973 131.713 84.088 131.732C84.7973 131.751 85.4973 131.76 86.188 131.76C86.972 131.76 87.7 131.751 88.372 131.732C89.044 131.713 89.5853 131.695 89.996 131.676V132.236C89.38 132.255 88.9133 132.329 88.596 132.46C88.2787 132.572 88.064 132.796 87.952 133.132C87.84 133.449 87.784 133.953 87.784 134.644V148.532C87.784 149.204 87.84 149.708 87.952 150.044C88.064 150.38 88.2787 150.604 88.596 150.716C88.9133 150.828 89.38 150.903 89.996 150.94V151.5C89.5853 151.463 89.044 151.444 88.372 151.444C87.7 151.425 86.972 151.416 86.188 151.416C85.4973 151.416 84.7973 151.425 84.088 151.444C83.3973 151.444 82.8187 151.463 82.352 151.5ZM70.592 151.5V150.94C71.2267 150.903 71.7027 150.828 72.02 150.716C72.3373 150.604 72.5427 150.38 72.636 150.044C72.748 149.708 72.804 149.204 72.804 148.532V134.644C72.804 133.953 72.748 133.449 72.636 133.132C72.5427 132.796 72.328 132.572 71.992 132.46C71.6747 132.329 71.208 132.255 70.592 132.236V131.676C71.0213 131.695 71.572 131.713 72.244 131.732C72.9347 131.751 73.672 131.76 74.456 131.76C75.1653 131.76 75.856 131.751 76.528 131.732C77.2187 131.713 77.788 131.695 78.236 131.676V132.236C77.62 132.255 77.1533 132.329 76.836 132.46C76.5187 132.572 76.304 132.796 76.192 133.132C76.08 133.449 76.024 133.953 76.024 134.644V148.532C76.024 149.204 76.08 149.708 76.192 150.044C76.304 150.38 76.5187 150.604 76.836 150.716C77.1533 150.828 77.62 150.903 78.236 150.94V151.5C77.788 151.463 77.2187 151.444 76.528 151.444C75.856 151.425 75.1653 151.416 74.456 151.416C73.672 151.416 72.9347 151.425 72.244 151.444C71.572 151.444 71.0213 151.463 70.592 151.5ZM74.764 141.812V141.252H85.824V141.812H74.764ZM98.3094 136.66C99.952 136.66 101.24 137.155 102.173 138.144C103.107 139.133 103.573 140.701 103.573 142.848H93.9134L93.8574 142.316H100.605C100.624 141.401 100.549 140.561 100.381 139.796C100.213 139.012 99.952 138.387 99.5974 137.92C99.2427 137.453 98.776 137.22 98.1974 137.22C97.3947 137.22 96.6947 137.649 96.0974 138.508C95.5187 139.348 95.164 140.701 95.0334 142.568L95.1174 142.708C95.0987 142.969 95.08 143.259 95.0614 143.576C95.0427 143.875 95.0334 144.173 95.0334 144.472C95.0334 145.76 95.2294 146.843 95.6214 147.72C96.0134 148.597 96.5267 149.26 97.1614 149.708C97.796 150.137 98.44 150.352 99.0934 150.352C99.5974 150.352 100.083 150.277 100.549 150.128C101.035 149.96 101.492 149.689 101.921 149.316C102.351 148.924 102.733 148.392 103.069 147.72L103.629 147.944C103.405 148.579 103.06 149.204 102.593 149.82C102.127 150.436 101.529 150.94 100.801 151.332C100.073 151.705 99.224 151.892 98.2534 151.892C96.9467 151.892 95.808 151.603 94.8374 151.024C93.8667 150.427 93.12 149.577 92.5974 148.476C92.0747 147.375 91.8134 146.068 91.8134 144.556C91.8134 142.895 92.084 141.476 92.6254 140.3C93.1667 139.124 93.9227 138.228 94.8934 137.612C95.8827 136.977 97.0214 136.66 98.3094 136.66ZM109.45 151.696C108.666 151.696 107.994 151.547 107.434 151.248C106.874 150.949 106.454 150.539 106.174 150.016C105.894 149.493 105.754 148.896 105.754 148.224C105.754 147.403 105.941 146.74 106.314 146.236C106.687 145.713 107.163 145.293 107.742 144.976C108.339 144.659 108.965 144.397 109.618 144.192C110.29 143.968 110.915 143.763 111.494 143.576C112.091 143.371 112.577 143.137 112.95 142.876C113.342 142.615 113.538 142.269 113.538 141.84V139.936C113.538 139.264 113.426 138.732 113.202 138.34C112.997 137.929 112.707 137.64 112.334 137.472C111.979 137.304 111.55 137.22 111.046 137.22C110.617 137.22 110.159 137.285 109.674 137.416C109.189 137.528 108.806 137.761 108.526 138.116C108.937 138.228 109.273 138.452 109.534 138.788C109.814 139.105 109.954 139.507 109.954 139.992C109.954 140.515 109.777 140.925 109.422 141.224C109.086 141.523 108.657 141.672 108.134 141.672C107.555 141.672 107.126 141.495 106.846 141.14C106.566 140.767 106.426 140.337 106.426 139.852C106.426 139.348 106.547 138.937 106.79 138.62C107.051 138.303 107.387 138.004 107.798 137.724C108.246 137.425 108.815 137.173 109.506 136.968C110.215 136.763 110.999 136.66 111.858 136.66C112.661 136.66 113.351 136.753 113.93 136.94C114.527 137.108 115.022 137.388 115.414 137.78C115.881 138.209 116.189 138.751 116.338 139.404C116.487 140.039 116.562 140.813 116.562 141.728V149.456C116.562 149.923 116.618 150.259 116.73 150.464C116.861 150.651 117.066 150.744 117.346 150.744C117.533 150.744 117.71 150.697 117.878 150.604C118.065 150.511 118.279 150.371 118.522 150.184L118.802 150.66C118.41 150.977 118.009 151.229 117.598 151.416C117.206 151.603 116.702 151.696 116.086 151.696C115.489 151.696 115.003 151.603 114.63 151.416C114.257 151.229 113.977 150.959 113.79 150.604C113.622 150.249 113.538 149.811 113.538 149.288C113.053 150.072 112.474 150.669 111.802 151.08C111.13 151.491 110.346 151.696 109.45 151.696ZM110.794 150.352C111.317 150.352 111.802 150.203 112.25 149.904C112.717 149.605 113.146 149.157 113.538 148.56V142.988C113.333 143.287 113.034 143.548 112.642 143.772C112.25 143.977 111.83 144.192 111.382 144.416C110.934 144.64 110.505 144.901 110.094 145.2C109.702 145.48 109.375 145.844 109.114 146.292C108.853 146.74 108.722 147.309 108.722 148C108.722 148.728 108.909 149.307 109.282 149.736C109.655 150.147 110.159 150.352 110.794 150.352ZM124.511 129.548V148.896C124.511 149.68 124.66 150.212 124.959 150.492C125.276 150.772 125.799 150.912 126.527 150.912V151.5C126.209 151.481 125.715 151.463 125.043 151.444C124.371 151.407 123.699 151.388 123.027 151.388C122.355 151.388 121.673 151.407 120.983 151.444C120.311 151.463 119.807 151.481 119.471 151.5V150.912C120.199 150.912 120.712 150.772 121.011 150.492C121.328 150.212 121.487 149.68 121.487 148.896V132.908C121.487 132.068 121.347 131.452 121.067 131.06C120.787 130.649 120.255 130.444 119.471 130.444V129.856C120.068 129.912 120.647 129.94 121.207 129.94C121.823 129.94 122.411 129.912 122.971 129.856C123.531 129.781 124.044 129.679 124.511 129.548ZM132.769 132.432V137.08H136.633V137.64H132.769V148.644C132.769 149.409 132.909 149.951 133.189 150.268C133.469 150.585 133.871 150.744 134.393 150.744C134.879 150.744 135.308 150.548 135.681 150.156C136.073 149.764 136.409 149.101 136.689 148.168L137.221 148.364C136.997 149.353 136.596 150.193 136.017 150.884C135.457 151.556 134.627 151.892 133.525 151.892C132.891 151.892 132.359 151.808 131.929 151.64C131.5 151.491 131.127 151.267 130.809 150.968C130.399 150.539 130.119 150.025 129.969 149.428C129.82 148.831 129.745 148.037 129.745 147.048V137.64H127.169V137.08H129.745V132.992C130.324 132.973 130.865 132.927 131.369 132.852C131.873 132.759 132.34 132.619 132.769 132.432ZM142.584 129.576V139.768C143.051 138.611 143.704 137.808 144.544 137.36C145.403 136.893 146.308 136.66 147.26 136.66C148.007 136.66 148.614 136.763 149.08 136.968C149.566 137.155 149.967 137.416 150.284 137.752C150.62 138.107 150.863 138.564 151.012 139.124C151.162 139.684 151.236 140.44 151.236 141.392V148.896C151.236 149.68 151.386 150.212 151.684 150.492C152.002 150.772 152.524 150.912 153.252 150.912V151.5C152.916 151.481 152.412 151.463 151.74 151.444C151.068 151.407 150.415 151.388 149.78 151.388C149.127 151.388 148.483 151.407 147.848 151.444C147.232 151.463 146.775 151.481 146.476 151.5V150.912C147.111 150.912 147.559 150.772 147.82 150.492C148.082 150.212 148.212 149.68 148.212 148.896V140.608C148.212 140.067 148.166 139.581 148.072 139.152C147.979 138.704 147.774 138.349 147.456 138.088C147.158 137.808 146.71 137.668 146.112 137.668C145.44 137.668 144.834 137.864 144.292 138.256C143.77 138.629 143.35 139.152 143.032 139.824C142.734 140.496 142.584 141.261 142.584 142.12V148.896C142.584 149.68 142.715 150.212 142.976 150.492C143.238 150.772 143.686 150.912 144.32 150.912V151.5C144.003 151.481 143.536 151.463 142.92 151.444C142.323 151.407 141.707 151.388 141.072 151.388C140.419 151.388 139.747 151.407 139.056 151.444C138.384 151.463 137.88 151.481 137.544 151.5V150.912C138.272 150.912 138.786 150.772 139.084 150.492C139.402 150.212 139.56 149.68 139.56 148.896V132.936C139.56 132.096 139.411 131.48 139.112 131.088C138.832 130.677 138.31 130.472 137.544 130.472V129.884C138.142 129.94 138.72 129.968 139.28 129.968C139.896 129.968 140.484 129.94 141.044 129.884C141.604 129.809 142.118 129.707 142.584 129.576Z" fill="black"/>
<path d="M52.168 187.038C52.624 187.11 53.038 187.296 53.41 187.596C53.794 187.896 54.094 188.268 54.31 188.712C54.538 189.156 54.652 189.63 54.652 190.134C54.652 190.77 54.49 191.346 54.166 191.862C53.842 192.366 53.368 192.768 52.744 193.068C52.132 193.356 51.406 193.5 50.566 193.5H45.886V180.954H50.386C51.238 180.954 51.964 181.098 52.564 181.386C53.164 181.662 53.614 182.04 53.914 182.52C54.214 183 54.364 183.54 54.364 184.14C54.364 184.884 54.16 185.502 53.752 185.994C53.356 186.474 52.828 186.822 52.168 187.038ZM47.524 186.372H50.278C51.046 186.372 51.64 186.192 52.06 185.832C52.48 185.472 52.69 184.974 52.69 184.338C52.69 183.702 52.48 183.204 52.06 182.844C51.64 182.484 51.034 182.304 50.242 182.304H47.524V186.372ZM50.422 192.15C51.238 192.15 51.874 191.958 52.33 191.574C52.786 191.19 53.014 190.656 53.014 189.972C53.014 189.276 52.774 188.73 52.294 188.334C51.814 187.926 51.172 187.722 50.368 187.722H47.524V192.15H50.422ZM65.9251 188.19C65.9251 188.502 65.9071 188.832 65.8711 189.18H57.9871C58.0471 190.152 58.3771 190.914 58.9771 191.466C59.5891 192.006 60.3271 192.276 61.1911 192.276C61.8991 192.276 62.4871 192.114 62.9551 191.79C63.4351 191.454 63.7711 191.01 63.9631 190.458H65.7271C65.4631 191.406 64.9351 192.18 64.1431 192.78C63.3511 193.368 62.3671 193.662 61.1911 193.662C60.2551 193.662 59.4151 193.452 58.6711 193.032C57.9391 192.612 57.3631 192.018 56.9431 191.25C56.5231 190.47 56.3131 189.57 56.3131 188.55C56.3131 187.53 56.5171 186.636 56.9251 185.868C57.3331 185.1 57.9031 184.512 58.6351 184.104C59.3791 183.684 60.2311 183.474 61.1911 183.474C62.1271 183.474 62.9551 183.678 63.6751 184.086C64.3951 184.494 64.9471 185.058 65.3311 185.778C65.7271 186.486 65.9251 187.29 65.9251 188.19ZM64.2331 187.848C64.2331 187.224 64.0951 186.69 63.8191 186.246C63.5431 185.79 63.1651 185.448 62.6851 185.22C62.2171 184.98 61.6951 184.86 61.1191 184.86C60.2911 184.86 59.5831 185.124 58.9951 185.652C58.4191 186.18 58.0891 186.912 58.0051 187.848H64.2331ZM71.5792 193.662C70.8232 193.662 70.1452 193.536 69.5452 193.284C68.9452 193.02 68.4712 192.66 68.1232 192.204C67.7752 191.736 67.5832 191.202 67.5472 190.602H69.2392C69.2872 191.094 69.5152 191.496 69.9232 191.808C70.3432 192.12 70.8892 192.276 71.5612 192.276C72.1852 192.276 72.6772 192.138 73.0372 191.862C73.3972 191.586 73.5772 191.238 73.5772 190.818C73.5772 190.386 73.3852 190.068 73.0012 189.864C72.6172 189.648 72.0232 189.438 71.2192 189.234C70.4872 189.042 69.8872 188.85 69.4192 188.658C68.9632 188.454 68.5672 188.16 68.2312 187.776C67.9072 187.38 67.7452 186.864 67.7452 186.228C67.7452 185.724 67.8952 185.262 68.1952 184.842C68.4952 184.422 68.9212 184.092 69.4732 183.852C70.0252 183.6 70.6552 183.474 71.3632 183.474C72.4552 183.474 73.3372 183.75 74.0092 184.302C74.6812 184.854 75.0412 185.61 75.0892 186.57H73.4512C73.4152 186.054 73.2052 185.64 72.8212 185.328C72.4492 185.016 71.9452 184.86 71.3092 184.86C70.7212 184.86 70.2532 184.986 69.9052 185.238C69.5572 185.49 69.3832 185.82 69.3832 186.228C69.3832 186.552 69.4852 186.822 69.6892 187.038C69.9052 187.242 70.1692 187.41 70.4812 187.542C70.8052 187.662 71.2492 187.8 71.8132 187.956C72.5212 188.148 73.0972 188.34 73.5412 188.532C73.9852 188.712 74.3632 188.988 74.6752 189.36C74.9992 189.732 75.1672 190.218 75.1792 190.818C75.1792 191.358 75.0292 191.844 74.7292 192.276C74.4292 192.708 74.0032 193.05 73.4512 193.302C72.9112 193.542 72.2872 193.662 71.5792 193.662ZM79.4895 184.986V190.8C79.4895 191.28 79.5915 191.622 79.7955 191.826C79.9995 192.018 80.3535 192.114 80.8575 192.114H82.0635V193.5H80.5875C79.6755 193.5 78.9915 193.29 78.5355 192.87C78.0795 192.45 77.8515 191.76 77.8515 190.8V184.986H76.5735V183.636H77.8515V181.152H79.4895V183.636H82.0635V184.986H79.4895ZM88.2349 187.218C88.2349 185.994 88.5109 184.896 89.0629 183.924C89.6149 182.94 90.3649 182.172 91.3129 181.62C92.2729 181.068 93.3349 180.792 94.4989 180.792C95.8669 180.792 97.0609 181.122 98.0809 181.782C99.1009 182.442 99.8449 183.378 100.313 184.59H98.3509C98.0029 183.834 97.4989 183.252 96.8389 182.844C96.1909 182.436 95.4109 182.232 94.4989 182.232C93.6229 182.232 92.8369 182.436 92.1409 182.844C91.4449 183.252 90.8989 183.834 90.5029 184.59C90.1069 185.334 89.9089 186.21 89.9089 187.218C89.9089 188.214 90.1069 189.09 90.5029 189.846C90.8989 190.59 91.4449 191.166 92.1409 191.574C92.8369 191.982 93.6229 192.186 94.4989 192.186C95.4109 192.186 96.1909 191.988 96.8389 191.592C97.4989 191.184 98.0029 190.602 98.3509 189.846H100.313C99.8449 191.046 99.1009 191.976 98.0809 192.636C97.0609 193.284 95.8669 193.608 94.4989 193.608C93.3349 193.608 92.2729 193.338 91.3129 192.798C90.3649 192.246 89.6149 191.484 89.0629 190.512C88.5109 189.54 88.2349 188.442 88.2349 187.218ZM107.053 193.662C106.129 193.662 105.289 193.452 104.533 193.032C103.789 192.612 103.201 192.018 102.769 191.25C102.349 190.47 102.139 189.57 102.139 188.55C102.139 187.542 102.355 186.654 102.787 185.886C103.231 185.106 103.831 184.512 104.587 184.104C105.343 183.684 106.189 183.474 107.125 183.474C108.061 183.474 108.907 183.684 109.663 184.104C110.419 184.512 111.013 185.1 111.445 185.868C111.889 186.636 112.111 187.53 112.111 188.55C112.111 189.57 111.883 190.47 111.427 191.25C110.983 192.018 110.377 192.612 109.609 193.032C108.841 193.452 107.989 193.662 107.053 193.662ZM107.053 192.222C107.641 192.222 108.193 192.084 108.709 191.808C109.225 191.532 109.639 191.118 109.951 190.566C110.275 190.014 110.437 189.342 110.437 188.55C110.437 187.758 110.281 187.086 109.969 186.534C109.657 185.982 109.249 185.574 108.745 185.31C108.241 185.034 107.695 184.896 107.107 184.896C106.507 184.896 105.955 185.034 105.451 185.31C104.959 185.574 104.563 185.982 104.263 186.534C103.963 187.086 103.813 187.758 103.813 188.55C103.813 189.354 103.957 190.032 104.245 190.584C104.545 191.136 104.941 191.55 105.433 191.826C105.925 192.09 106.465 192.222 107.053 192.222ZM115.903 180.18V193.5H114.265V180.18H115.903ZM120.333 180.18V193.5H118.695V180.18H120.333ZM132.124 188.19C132.124 188.502 132.106 188.832 132.07 189.18H124.186C124.246 190.152 124.576 190.914 125.176 191.466C125.788 192.006 126.526 192.276 127.39 192.276C128.098 192.276 128.686 192.114 129.154 191.79C129.634 191.454 129.97 191.01 130.162 190.458H131.926C131.662 191.406 131.134 192.18 130.342 192.78C129.55 193.368 128.566 193.662 127.39 193.662C126.454 193.662 125.614 193.452 124.87 193.032C124.138 192.612 123.562 192.018 123.142 191.25C122.722 190.47 122.512 189.57 122.512 188.55C122.512 187.53 122.716 186.636 123.124 185.868C123.532 185.1 124.102 184.512 124.834 184.104C125.578 183.684 126.43 183.474 127.39 183.474C128.326 183.474 129.154 183.678 129.874 184.086C130.594 184.494 131.146 185.058 131.53 185.778C131.926 186.486 132.124 187.29 132.124 188.19ZM130.432 187.848C130.432 187.224 130.294 186.69 130.018 186.246C129.742 185.79 129.364 185.448 128.884 185.22C128.416 184.98 127.894 184.86 127.318 184.86C126.49 184.86 125.782 185.124 125.194 185.652C124.618 186.18 124.288 186.912 124.204 187.848H130.432ZM133.674 188.55C133.674 187.53 133.878 186.642 134.286 185.886C134.694 185.118 135.258 184.524 135.978 184.104C136.71 183.684 137.544 183.474 138.48 183.474C139.692 183.474 140.688 183.768 141.468 184.356C142.26 184.944 142.782 185.76 143.034 186.804H141.27C141.102 186.204 140.772 185.73 140.28 185.382C139.8 185.034 139.2 184.86 138.48 184.86C137.544 184.86 136.788 185.184 136.212 185.832C135.636 186.468 135.348 187.374 135.348 188.55C135.348 189.738 135.636 190.656 136.212 191.304C136.788 191.952 137.544 192.276 138.48 192.276C139.2 192.276 139.8 192.108 140.28 191.772C140.76 191.436 141.09 190.956 141.27 190.332H143.034C142.77 191.34 142.242 192.15 141.45 192.762C140.658 193.362 139.668 193.662 138.48 193.662C137.544 193.662 136.71 193.452 135.978 193.032C135.258 192.612 134.694 192.018 134.286 191.25C133.878 190.482 133.674 189.582 133.674 188.55ZM147.218 184.986V190.8C147.218 191.28 147.32 191.622 147.524 191.826C147.728 192.018 148.082 192.114 148.586 192.114H149.792V193.5H148.316C147.404 193.5 146.72 193.29 146.264 192.87C145.808 192.45 145.58 191.76 145.58 190.8V184.986H144.302V183.636H145.58V181.152H147.218V183.636H149.792V184.986H147.218ZM152.623 182.034C152.311 182.034 152.047 181.926 151.831 181.71C151.615 181.494 151.507 181.23 151.507 180.918C151.507 180.606 151.615 180.342 151.831 180.126C152.047 179.91 152.311 179.802 152.623 179.802C152.923 179.802 153.175 179.91 153.379 180.126C153.595 180.342 153.703 180.606 153.703 180.918C153.703 181.23 153.595 181.494 153.379 181.71C153.175 181.926 152.923 182.034 152.623 182.034ZM153.415 183.636V193.5H151.777V183.636H153.415ZM160.508 193.662C159.584 193.662 158.744 193.452 157.988 193.032C157.244 192.612 156.656 192.018 156.224 191.25C155.804 190.47 155.594 189.57 155.594 188.55C155.594 187.542 155.81 186.654 156.242 185.886C156.686 185.106 157.286 184.512 158.042 184.104C158.798 183.684 159.644 183.474 160.58 183.474C161.516 183.474 162.362 183.684 163.118 184.104C163.874 184.512 164.468 185.1 164.9 185.868C165.344 186.636 165.566 187.53 165.566 188.55C165.566 189.57 165.338 190.47 164.882 191.25C164.438 192.018 163.832 192.612 163.064 193.032C162.296 193.452 161.444 193.662 160.508 193.662ZM160.508 192.222C161.096 192.222 161.648 192.084 162.164 191.808C162.68 191.532 163.094 191.118 163.406 190.566C163.73 190.014 163.892 189.342 163.892 188.55C163.892 187.758 163.736 187.086 163.424 186.534C163.112 185.982 162.704 185.574 162.2 185.31C161.696 185.034 161.15 184.896 160.562 184.896C159.962 184.896 159.41 185.034 158.906 185.31C158.414 185.574 158.018 185.982 157.718 186.534C157.418 187.086 157.268 187.758 157.268 188.55C157.268 189.354 157.412 190.032 157.7 190.584C158 191.136 158.396 191.55 158.888 191.826C159.38 192.09 159.92 192.222 160.508 192.222ZM172.526 183.456C173.726 183.456 174.698 183.822 175.442 184.554C176.186 185.274 176.558 186.318 176.558 187.686V193.5H174.938V187.92C174.938 186.936 174.692 186.186 174.2 185.67C173.708 185.142 173.036 184.878 172.184 184.878C171.32 184.878 170.63 185.148 170.114 185.688C169.61 186.228 169.358 187.014 169.358 188.046V193.5H167.72V183.636H169.358V185.04C169.682 184.536 170.12 184.146 170.672 183.87C171.236 183.594 171.854 183.456 172.526 183.456ZM182.726 193.662C181.97 193.662 181.292 193.536 180.692 193.284C180.092 193.02 179.618 192.66 179.27 192.204C178.922 191.736 178.73 191.202 178.694 190.602H180.386C180.434 191.094 180.662 191.496 181.07 191.808C181.49 192.12 182.036 192.276 182.708 192.276C183.332 192.276 183.824 192.138 184.184 191.862C184.544 191.586 184.724 191.238 184.724 190.818C184.724 190.386 184.532 190.068 184.148 189.864C183.764 189.648 183.17 189.438 182.366 189.234C181.634 189.042 181.034 188.85 180.566 188.658C180.11 188.454 179.714 188.16 179.378 187.776C179.054 187.38 178.892 186.864 178.892 186.228C178.892 185.724 179.042 185.262 179.342 184.842C179.642 184.422 180.068 184.092 180.62 183.852C181.172 183.6 181.802 183.474 182.51 183.474C183.602 183.474 184.484 183.75 185.156 184.302C185.828 184.854 186.188 185.61 186.236 186.57H184.598C184.562 186.054 184.352 185.64 183.968 185.328C183.596 185.016 183.092 184.86 182.456 184.86C181.868 184.86 181.4 184.986 181.052 185.238C180.704 185.49 180.53 185.82 180.53 186.228C180.53 186.552 180.632 186.822 180.836 187.038C181.052 187.242 181.316 187.41 181.628 187.542C181.952 187.662 182.396 187.8 182.96 187.956C183.668 188.148 184.244 188.34 184.688 188.532C185.132 188.712 185.51 188.988 185.822 189.36C186.146 189.732 186.314 190.218 186.326 190.818C186.326 191.358 186.176 191.844 185.876 192.276C185.576 192.708 185.15 193.05 184.598 193.302C184.058 193.542 183.434 193.662 182.726 193.662Z" fill="#696969"/>
</svg>
