<svg width="232" height="232" viewBox="0 0 232 232" fill="none" xmlns="http://www.w3.org/2000/svg">
<rect width="232" height="232" rx="8" fill="#F4E6E5"/>
<g clip-path="url(#clip0_225_5524)">
<path d="M131.551 111.5C126.536 111.5 121.029 110.702 114.75 104.916C113.681 103.931 112.709 102.841 111.776 101.583C111.093 100.662 109.822 98.6405 109.185 97.5171C108.84 96.9096 108.502 96.2933 108.174 95.6974C106.993 93.5484 105.84 91.452 104.315 89.5444C102.032 91.5695 98.8608 92.6658 95.1873 92.6658C91.8149 92.6658 88.7792 91.5047 87.0666 89.56C85.965 88.3088 85.4858 86.838 85.6813 85.3066C85.8797 83.7516 86.7875 82.4231 88.2377 81.5658C90.5024 80.2271 93.9024 80.1272 96.8988 81.311C100.064 82.5612 102.411 84.1609 104.268 85.9556C105.616 83.7896 105.96 80.9686 105.23 77.9042C105.078 77.2653 105.473 76.6241 106.112 76.4718C106.75 76.3201 107.392 76.7143 107.544 77.3533C108.485 81.3026 107.909 84.9729 105.927 87.754C107.706 89.9079 108.992 92.2478 110.258 94.5517C110.582 95.1408 110.917 95.75 111.254 96.3439C111.845 97.3869 113.063 99.325 113.687 100.167C114.529 101.304 115.404 102.285 116.361 103.167C121.724 108.109 126.312 109.121 131.551 109.121C141.405 109.121 145.215 103.622 145.253 103.567C145.619 103.021 146.358 102.876 146.903 103.243C147.448 103.61 147.593 104.348 147.227 104.894C147.046 105.163 142.658 111.5 131.551 111.5ZM92.6013 82.8652C91.4041 82.8652 90.291 83.1156 89.4481 83.6138C88.6206 84.1028 88.1471 84.7737 88.0407 85.6078C87.9329 86.4537 88.2058 87.2546 88.8518 87.9883C90.1006 89.4065 92.5283 90.2875 95.1873 90.2875C98.2563 90.2875 100.876 89.4052 102.723 87.7757C101.037 86.1188 98.9138 84.6647 96.025 83.5236C94.9123 83.084 93.7202 82.8652 92.6013 82.8652Z" fill="#C8C3CA"/>
<path d="M103.791 105.412C100.005 105.412 96.5161 103.447 95.1803 100.213C94.9294 99.6058 95.2183 98.9105 95.8254 98.6598C96.4322 98.4091 97.1279 98.6978 97.3786 99.3048C98.6644 102.418 102.817 103.875 106.634 102.554C109.953 101.405 113.318 99.1497 116.574 96.9691C117.444 96.386 118.321 95.7986 119.203 95.2279C117.693 91.9686 117.739 88.1508 119.344 84.6865C119.62 84.0906 120.327 83.8308 120.923 84.107C121.519 84.3831 121.778 85.09 121.502 85.686C120.239 88.4137 120.152 91.392 121.24 93.9555C123.781 92.4358 126.365 91.1826 128.976 90.6823C132.563 89.9952 135.548 90.5143 137.381 92.1453C138.684 93.3054 139.327 94.9669 139.192 96.8233C139.079 98.3632 138.317 99.7095 136.989 100.717C134.925 102.283 131.719 102.818 128.414 102.148C125.024 101.461 122.248 99.7568 120.415 97.2754C119.585 97.8146 118.746 98.3767 117.897 98.9452C114.517 101.21 111.021 103.552 107.412 104.801C106.215 105.216 104.988 105.412 103.791 105.412ZM122.439 96.0059C123.926 97.9335 126.16 99.2647 128.886 99.8172C131.492 100.345 134.046 99.9639 135.552 98.822C136.331 98.2311 136.757 97.5004 136.819 96.6502C136.901 95.5322 136.548 94.589 135.799 93.9224C134.532 92.7948 132.268 92.4735 129.423 93.0188C127.12 93.46 124.807 94.5841 122.439 96.0059Z" fill="#B1ABB4"/>
<path d="M109.055 73.5094C109.642 74.1067 110.141 74.7164 110.21 75.1222C110.389 76.1796 108.174 77.3259 106.387 77.6288C104.601 77.9318 102.132 77.5801 101.952 76.5227C101.883 76.117 102.153 75.3771 102.511 74.6192C103.086 73.4027 108.111 72.5505 109.055 73.5094Z" fill="#EBB3B8"/>
<path d="M103.89 72.1401C103.89 72.1401 103.087 73.4027 102.512 74.6194C103.358 75.0114 104.79 75.1037 105.927 74.911C107.063 74.7184 108.385 74.1588 109.055 73.5097C108.111 72.5508 106.936 71.6237 106.936 71.6237L103.89 72.1401Z" fill="#E27F86"/>
<path d="M124.778 82.9239C124.994 83.7338 125.126 84.5101 124.985 84.8971C124.618 85.9048 122.126 85.8063 120.423 85.1865C118.72 84.5666 116.748 83.0403 117.115 82.0325C117.256 81.6457 117.855 81.1356 118.541 80.654C119.643 79.8808 124.432 81.6238 124.778 82.9239Z" fill="#E27F86"/>
<path d="M120.965 79.1804C120.965 79.1804 119.642 79.8808 118.541 80.6542C119.083 81.4131 120.282 82.2017 121.366 82.5958C122.449 82.99 123.875 83.1573 124.777 82.9238C124.431 81.6236 123.868 80.237 123.868 80.237L120.965 79.1804Z" fill="#DF646E"/>
<path d="M81.6773 38.9327C79.1417 41.671 77.8604 45.5146 78.5328 49.4785C80.9204 63.5559 99.7436 73.07 105.45 72.1022C109.149 71.4747 116.6 64.8711 120.733 56.4682C122.976 51.9089 83.4774 36.9886 81.6773 38.9327Z" fill="#E27F86"/>
<path d="M123.402 41.8683C122.252 35.0904 115.826 30.5276 109.048 31.6773C104.82 32.3943 101.455 35.1643 99.7997 38.7916C97.0407 35.9131 92.9504 34.4074 88.723 35.1245C85.9089 35.6018 83.4789 36.9907 81.6788 38.9348C81.0835 40.7786 80.9081 42.7878 81.2546 44.8301C83.6422 58.9076 102.465 68.4216 108.172 67.4538C111.155 66.948 116.576 62.5552 120.731 56.4676C122.974 51.9081 124.241 46.8199 123.402 41.8683Z" fill="#EBB3B8"/>
<path d="M117.339 44.893C115.878 46.2109 109.378 61.4033 112.362 67.7218C115.347 74.0403 119.621 78.9291 122.341 79.9189C127.548 81.8142 146.31 76.4238 152.186 64.1872C152.448 63.6423 149.003 61.2008 135.645 54.7501C122.287 48.2993 120.65 41.9061 117.339 44.893Z" fill="#E27F86"/>
<path d="M145.452 46.5574C141.423 45.0909 137.128 45.8353 133.896 48.1701C132.921 44.3039 130.11 40.9733 126.08 39.5066C124.882 39.0704 123.66 38.83 122.449 38.769C119.066 38.5983 111.982 53.0687 113.684 58.3146C116.427 66.7753 122.155 73.9396 125.512 75.1616C129.986 76.7901 144.468 73.0378 152.184 64.186C152.445 63.6411 152.683 63.0837 152.892 62.5117C155.243 56.0518 151.912 48.9087 145.452 46.5574Z" fill="#E6989E"/>
<path d="M110.126 46.9464C107.682 53.66 109.38 61.4145 112.369 67.7356C113.571 66.6102 114.794 65.3034 115.969 63.8551C120.745 57.9688 115.715 39.8477 113.268 42.1583C111.904 43.446 110.811 45.0631 110.126 46.9464Z" fill="#C63C50"/>
<path d="M115.969 63.8547C120.745 57.9683 124.738 49.7452 123.402 41.8682C123.216 40.772 122.891 39.7349 122.449 38.7694C119.132 38.6012 115.902 39.7787 113.476 41.9667C113.427 42.0133 113.379 42.0592 113.331 42.104C113.32 42.1327 113.308 42.1603 113.297 42.1892C110.739 49.2168 112.721 57.3841 115.969 63.8547Z" fill="#DF646E"/>
</g>
<path d="M49.092 131.676C49.5213 131.695 50.072 131.713 50.744 131.732C51.4347 131.751 52.116 131.76 52.788 131.76C53.684 131.76 54.5333 131.751 55.336 131.732C56.1573 131.713 56.736 131.704 57.072 131.704C58.6587 131.704 59.9747 131.909 61.02 132.32C62.084 132.731 62.868 133.309 63.372 134.056C63.8947 134.784 64.156 135.624 64.156 136.576C64.156 137.155 64.0347 137.771 63.792 138.424C63.568 139.059 63.1667 139.656 62.588 140.216C62.0093 140.757 61.2253 141.205 60.236 141.56C59.2467 141.915 57.9867 142.092 56.456 142.092H53.768V141.532H56.176C57.4267 141.532 58.3787 141.327 59.032 140.916C59.704 140.487 60.152 139.927 60.376 139.236C60.6187 138.527 60.74 137.743 60.74 136.884C60.74 135.409 60.4227 134.271 59.788 133.468C59.1533 132.647 58.052 132.236 56.484 132.236C55.6813 132.236 55.1493 132.395 54.888 132.712C54.6453 133.029 54.524 133.673 54.524 134.644V148.532C54.524 149.204 54.58 149.708 54.692 150.044C54.804 150.38 55.0187 150.604 55.336 150.716C55.6533 150.828 56.12 150.903 56.736 150.94V151.5C56.288 151.463 55.7187 151.444 55.028 151.444C54.356 151.425 53.6653 151.416 52.956 151.416C52.172 151.416 51.4347 151.425 50.744 151.444C50.072 151.444 49.5213 151.463 49.092 151.5V150.94C49.7267 150.903 50.2027 150.828 50.52 150.716C50.8373 150.604 51.0427 150.38 51.136 150.044C51.248 149.708 51.304 149.204 51.304 148.532V134.644C51.304 133.953 51.248 133.449 51.136 133.132C51.0427 132.796 50.828 132.572 50.492 132.46C50.1747 132.329 49.708 132.255 49.092 132.236V131.676ZM53.824 141.616C54.776 141.653 55.5413 141.7 56.12 141.756C56.6987 141.793 57.184 141.831 57.576 141.868C57.968 141.905 58.332 141.952 58.668 142.008C60.068 142.195 61.0853 142.568 61.72 143.128C62.3733 143.688 62.8213 144.547 63.064 145.704L63.764 148.56C63.932 149.363 64.1093 149.932 64.296 150.268C64.5013 150.604 64.8 150.772 65.192 150.772C65.4907 150.753 65.7333 150.669 65.92 150.52C66.1253 150.352 66.34 150.128 66.564 149.848L66.956 150.156C66.5267 150.735 66.0787 151.173 65.612 151.472C65.1453 151.752 64.52 151.892 63.736 151.892C62.9333 151.892 62.2427 151.687 61.664 151.276C61.104 150.847 60.7027 150.044 60.46 148.868L59.9 146.068C59.732 145.265 59.5453 144.575 59.34 143.996C59.1347 143.399 58.8453 142.932 58.472 142.596C58.1173 142.26 57.5947 142.092 56.904 142.092H53.88L53.824 141.616ZM74.3224 136.66C75.5731 136.66 76.6837 136.921 77.6544 137.444C78.6251 137.967 79.3997 138.788 79.9784 139.908C80.5571 141.028 80.8464 142.493 80.8464 144.304C80.8464 146.115 80.5571 147.58 79.9784 148.7C79.3997 149.801 78.6251 150.613 77.6544 151.136C76.6837 151.64 75.5731 151.892 74.3224 151.892C73.0904 151.892 71.9797 151.64 70.9904 151.136C70.0011 150.613 69.2171 149.801 68.6384 148.7C68.0784 147.58 67.7984 146.115 67.7984 144.304C67.7984 142.493 68.0784 141.028 68.6384 139.908C69.2171 138.788 70.0011 137.967 70.9904 137.444C71.9797 136.921 73.0904 136.66 74.3224 136.66ZM74.3224 137.22C73.3517 137.22 72.5584 137.78 71.9424 138.9C71.3264 140.001 71.0184 141.803 71.0184 144.304C71.0184 146.805 71.3264 148.607 71.9424 149.708C72.5584 150.791 73.3517 151.332 74.3224 151.332C75.2744 151.332 76.0584 150.791 76.6744 149.708C77.3091 148.607 77.6264 146.805 77.6264 144.304C77.6264 141.803 77.3091 140.001 76.6744 138.9C76.0584 137.78 75.2744 137.22 74.3224 137.22ZM92.3743 136.66C93.0836 136.66 93.681 136.763 94.1663 136.968C94.6516 137.155 95.0436 137.416 95.3423 137.752C95.6783 138.107 95.9116 138.583 96.0423 139.18C96.173 139.759 96.2383 140.496 96.2383 141.392V148.896C96.2383 149.68 96.3876 150.212 96.6863 150.492C96.985 150.772 97.489 150.912 98.1983 150.912V151.5C97.881 151.481 97.3863 151.463 96.7143 151.444C96.061 151.407 95.417 151.388 94.7823 151.388C94.1476 151.388 93.5223 151.407 92.9063 151.444C92.309 151.463 91.8516 151.481 91.5343 151.5V150.912C92.1503 150.912 92.5796 150.772 92.8223 150.492C93.0836 150.212 93.2143 149.68 93.2143 148.896V140.608C93.2143 140.067 93.177 139.581 93.1023 139.152C93.0276 138.704 92.8503 138.349 92.5703 138.088C92.309 137.808 91.889 137.668 91.3103 137.668C90.657 137.668 90.069 137.864 89.5463 138.256C89.0423 138.648 88.6316 139.189 88.3143 139.88C88.0156 140.552 87.8663 141.308 87.8663 142.148V148.896C87.8663 149.68 87.997 150.212 88.2583 150.492C88.5196 150.772 88.949 150.912 89.5463 150.912V151.5C89.2476 151.481 88.7996 151.463 88.2023 151.444C87.605 151.407 86.989 151.388 86.3543 151.388C85.7196 151.388 85.057 151.407 84.3663 151.444C83.6756 151.463 83.1623 151.481 82.8263 151.5V150.912C83.5543 150.912 84.0676 150.772 84.3663 150.492C84.6836 150.212 84.8423 149.68 84.8423 148.896V140.104C84.8423 139.264 84.7023 138.648 84.4223 138.256C84.1423 137.845 83.6103 137.64 82.8263 137.64V137.052C83.4236 137.108 84.0023 137.136 84.5623 137.136C85.197 137.136 85.785 137.108 86.3263 137.052C86.8863 136.977 87.3996 136.875 87.8663 136.744V139.796C88.3516 138.676 88.9956 137.873 89.7983 137.388C90.6196 136.903 91.4783 136.66 92.3743 136.66ZM100.802 136.66C101.512 136.66 102.109 136.763 102.594 136.968C103.08 137.155 103.472 137.416 103.77 137.752C104.106 138.107 104.34 138.583 104.47 139.18C104.601 139.759 104.666 140.496 104.666 141.392V148.896C104.666 149.68 104.816 150.212 105.114 150.492C105.432 150.772 105.954 150.912 106.682 150.912V151.5C106.365 151.481 105.87 151.463 105.198 151.444C104.526 151.407 103.864 151.388 103.21 151.388C102.576 151.388 101.95 151.407 101.334 151.444C100.737 151.463 100.28 151.481 99.9623 151.5V150.912C100.578 150.912 101.008 150.772 101.25 150.492C101.512 150.212 101.642 149.68 101.642 148.896V140.608C101.642 140.067 101.605 139.581 101.53 139.152C101.456 138.704 101.278 138.349 100.998 138.088C100.718 137.808 100.28 137.668 99.6823 137.668C99.029 137.668 98.441 137.873 97.9183 138.284C97.4143 138.676 97.0036 139.217 96.6863 139.908C96.3876 140.58 96.2383 141.336 96.2383 142.176L96.1263 139.852C96.6303 138.62 97.3023 137.78 98.1423 137.332C99.001 136.884 99.8876 136.66 100.802 136.66ZM111.794 151.696C111.01 151.696 110.338 151.547 109.778 151.248C109.218 150.949 108.798 150.539 108.518 150.016C108.238 149.493 108.098 148.896 108.098 148.224C108.098 147.403 108.285 146.74 108.658 146.236C109.031 145.713 109.507 145.293 110.086 144.976C110.683 144.659 111.309 144.397 111.962 144.192C112.634 143.968 113.259 143.763 113.838 143.576C114.435 143.371 114.921 143.137 115.294 142.876C115.686 142.615 115.882 142.269 115.882 141.84V139.936C115.882 139.264 115.77 138.732 115.546 138.34C115.341 137.929 115.051 137.64 114.678 137.472C114.323 137.304 113.894 137.22 113.39 137.22C112.961 137.22 112.503 137.285 112.018 137.416C111.533 137.528 111.15 137.761 110.87 138.116C111.281 138.228 111.617 138.452 111.878 138.788C112.158 139.105 112.298 139.507 112.298 139.992C112.298 140.515 112.121 140.925 111.766 141.224C111.43 141.523 111.001 141.672 110.478 141.672C109.899 141.672 109.47 141.495 109.19 141.14C108.91 140.767 108.77 140.337 108.77 139.852C108.77 139.348 108.891 138.937 109.134 138.62C109.395 138.303 109.731 138.004 110.142 137.724C110.59 137.425 111.159 137.173 111.85 136.968C112.559 136.763 113.343 136.66 114.202 136.66C115.005 136.66 115.695 136.753 116.274 136.94C116.871 137.108 117.366 137.388 117.758 137.78C118.225 138.209 118.533 138.751 118.682 139.404C118.831 140.039 118.906 140.813 118.906 141.728V149.456C118.906 149.923 118.962 150.259 119.074 150.464C119.205 150.651 119.41 150.744 119.69 150.744C119.877 150.744 120.054 150.697 120.222 150.604C120.409 150.511 120.623 150.371 120.866 150.184L121.146 150.66C120.754 150.977 120.353 151.229 119.942 151.416C119.55 151.603 119.046 151.696 118.43 151.696C117.833 151.696 117.347 151.603 116.974 151.416C116.601 151.229 116.321 150.959 116.134 150.604C115.966 150.249 115.882 149.811 115.882 149.288C115.397 150.072 114.818 150.669 114.146 151.08C113.474 151.491 112.69 151.696 111.794 151.696ZM113.138 150.352C113.661 150.352 114.146 150.203 114.594 149.904C115.061 149.605 115.49 149.157 115.882 148.56V142.988C115.677 143.287 115.378 143.548 114.986 143.772C114.594 143.977 114.174 144.192 113.726 144.416C113.278 144.64 112.849 144.901 112.438 145.2C112.046 145.48 111.719 145.844 111.458 146.292C111.197 146.74 111.066 147.309 111.066 148C111.066 148.728 111.253 149.307 111.626 149.736C111.999 150.147 112.503 150.352 113.138 150.352ZM131.727 136.66C132.473 136.66 133.08 136.763 133.547 136.968C134.032 137.155 134.433 137.416 134.751 137.752C135.087 138.107 135.32 138.564 135.451 139.124C135.6 139.684 135.675 140.44 135.675 141.392V148.896C135.675 149.68 135.824 150.212 136.123 150.492C136.44 150.772 136.963 150.912 137.691 150.912V151.5C137.373 151.481 136.879 151.463 136.207 151.444C135.535 151.407 134.872 151.388 134.219 151.388C133.584 151.388 132.949 151.407 132.315 151.444C131.699 151.463 131.232 151.481 130.915 151.5V150.912C131.549 150.912 131.997 150.772 132.259 150.492C132.52 150.212 132.651 149.68 132.651 148.896V140.608C132.651 140.067 132.604 139.581 132.511 139.152C132.417 138.704 132.221 138.349 131.923 138.088C131.624 137.808 131.176 137.668 130.579 137.668C129.888 137.668 129.272 137.864 128.731 138.256C128.208 138.648 127.788 139.189 127.471 139.88C127.172 140.552 127.023 141.308 127.023 142.148V148.896C127.023 149.68 127.153 150.212 127.415 150.492C127.695 150.772 128.143 150.912 128.759 150.912V151.5C128.46 151.481 128.003 151.463 127.387 151.444C126.789 151.407 126.164 151.388 125.511 151.388C124.876 151.388 124.213 151.407 123.523 151.444C122.832 151.463 122.319 151.481 121.983 151.5V150.912C122.711 150.912 123.224 150.772 123.523 150.492C123.84 150.212 123.999 149.68 123.999 148.896V140.104C123.999 139.264 123.859 138.648 123.579 138.256C123.299 137.845 122.767 137.64 121.983 137.64V137.052C122.58 137.108 123.159 137.136 123.719 137.136C124.353 137.136 124.941 137.108 125.483 137.052C126.043 136.977 126.556 136.875 127.023 136.744V139.796C127.508 138.639 128.171 137.827 129.011 137.36C129.869 136.893 130.775 136.66 131.727 136.66ZM145.966 136.66C146.6 136.66 147.207 136.744 147.786 136.912C148.364 137.061 148.868 137.276 149.298 137.556C149.746 137.836 150.082 138.172 150.306 138.564C150.548 138.956 150.67 139.385 150.67 139.852C150.67 140.412 150.511 140.851 150.194 141.168C149.876 141.485 149.466 141.644 148.962 141.644C148.458 141.644 148.038 141.504 147.702 141.224C147.366 140.944 147.198 140.543 147.198 140.02C147.198 139.535 147.338 139.143 147.618 138.844C147.898 138.527 148.224 138.321 148.598 138.228C148.43 137.948 148.131 137.715 147.702 137.528C147.291 137.323 146.843 137.22 146.358 137.22C145.854 137.22 145.368 137.351 144.902 137.612C144.454 137.873 144.052 138.275 143.698 138.816C143.343 139.357 143.054 140.057 142.83 140.916C142.624 141.775 142.522 142.811 142.522 144.024C142.522 145.592 142.699 146.843 143.054 147.776C143.427 148.691 143.912 149.344 144.51 149.736C145.107 150.128 145.751 150.324 146.442 150.324C146.89 150.324 147.347 150.24 147.814 150.072C148.299 149.904 148.756 149.624 149.186 149.232C149.634 148.84 150.026 148.308 150.362 147.636L150.894 147.832C150.688 148.448 150.362 149.073 149.914 149.708C149.484 150.343 148.915 150.865 148.206 151.276C147.496 151.687 146.628 151.892 145.602 151.892C144.426 151.892 143.362 151.603 142.41 151.024C141.458 150.445 140.702 149.605 140.142 148.504C139.582 147.384 139.302 146.021 139.302 144.416C139.302 142.848 139.582 141.485 140.142 140.328C140.72 139.152 141.514 138.247 142.522 137.612C143.53 136.977 144.678 136.66 145.966 136.66ZM159.497 136.66C161.14 136.66 162.428 137.155 163.361 138.144C164.294 139.133 164.761 140.701 164.761 142.848H155.101L155.045 142.316H161.793C161.812 141.401 161.737 140.561 161.569 139.796C161.401 139.012 161.14 138.387 160.785 137.92C160.43 137.453 159.964 137.22 159.385 137.22C158.582 137.22 157.882 137.649 157.285 138.508C156.706 139.348 156.352 140.701 156.221 142.568L156.305 142.708C156.286 142.969 156.268 143.259 156.249 143.576C156.23 143.875 156.221 144.173 156.221 144.472C156.221 145.76 156.417 146.843 156.809 147.72C157.201 148.597 157.714 149.26 158.349 149.708C158.984 150.137 159.628 150.352 160.281 150.352C160.785 150.352 161.27 150.277 161.737 150.128C162.222 149.96 162.68 149.689 163.109 149.316C163.538 148.924 163.921 148.392 164.257 147.72L164.817 147.944C164.593 148.579 164.248 149.204 163.781 149.82C163.314 150.436 162.717 150.94 161.989 151.332C161.261 151.705 160.412 151.892 159.441 151.892C158.134 151.892 156.996 151.603 156.025 151.024C155.054 150.427 154.308 149.577 153.785 148.476C153.262 147.375 153.001 146.068 153.001 144.556C153.001 142.895 153.272 141.476 153.813 140.3C154.354 139.124 155.11 138.228 156.081 137.612C157.07 136.977 158.209 136.66 159.497 136.66Z" fill="black"/>
<path d="M52.168 187.038C52.624 187.11 53.038 187.296 53.41 187.596C53.794 187.896 54.094 188.268 54.31 188.712C54.538 189.156 54.652 189.63 54.652 190.134C54.652 190.77 54.49 191.346 54.166 191.862C53.842 192.366 53.368 192.768 52.744 193.068C52.132 193.356 51.406 193.5 50.566 193.5H45.886V180.954H50.386C51.238 180.954 51.964 181.098 52.564 181.386C53.164 181.662 53.614 182.04 53.914 182.52C54.214 183 54.364 183.54 54.364 184.14C54.364 184.884 54.16 185.502 53.752 185.994C53.356 186.474 52.828 186.822 52.168 187.038ZM47.524 186.372H50.278C51.046 186.372 51.64 186.192 52.06 185.832C52.48 185.472 52.69 184.974 52.69 184.338C52.69 183.702 52.48 183.204 52.06 182.844C51.64 182.484 51.034 182.304 50.242 182.304H47.524V186.372ZM50.422 192.15C51.238 192.15 51.874 191.958 52.33 191.574C52.786 191.19 53.014 190.656 53.014 189.972C53.014 189.276 52.774 188.73 52.294 188.334C51.814 187.926 51.172 187.722 50.368 187.722H47.524V192.15H50.422ZM65.9251 188.19C65.9251 188.502 65.9071 188.832 65.8711 189.18H57.9871C58.0471 190.152 58.3771 190.914 58.9771 191.466C59.5891 192.006 60.3271 192.276 61.1911 192.276C61.8991 192.276 62.4871 192.114 62.9551 191.79C63.4351 191.454 63.7711 191.01 63.9631 190.458H65.7271C65.4631 191.406 64.9351 192.18 64.1431 192.78C63.3511 193.368 62.3671 193.662 61.1911 193.662C60.2551 193.662 59.4151 193.452 58.6711 193.032C57.9391 192.612 57.3631 192.018 56.9431 191.25C56.5231 190.47 56.3131 189.57 56.3131 188.55C56.3131 187.53 56.5171 186.636 56.9251 185.868C57.3331 185.1 57.9031 184.512 58.6351 184.104C59.3791 183.684 60.2311 183.474 61.1911 183.474C62.1271 183.474 62.9551 183.678 63.6751 184.086C64.3951 184.494 64.9471 185.058 65.3311 185.778C65.7271 186.486 65.9251 187.29 65.9251 188.19ZM64.2331 187.848C64.2331 187.224 64.0951 186.69 63.8191 186.246C63.5431 185.79 63.1651 185.448 62.6851 185.22C62.2171 184.98 61.6951 184.86 61.1191 184.86C60.2911 184.86 59.5831 185.124 58.9951 185.652C58.4191 186.18 58.0891 186.912 58.0051 187.848H64.2331ZM71.5792 193.662C70.8232 193.662 70.1452 193.536 69.5452 193.284C68.9452 193.02 68.4712 192.66 68.1232 192.204C67.7752 191.736 67.5832 191.202 67.5472 190.602H69.2392C69.2872 191.094 69.5152 191.496 69.9232 191.808C70.3432 192.12 70.8892 192.276 71.5612 192.276C72.1852 192.276 72.6772 192.138 73.0372 191.862C73.3972 191.586 73.5772 191.238 73.5772 190.818C73.5772 190.386 73.3852 190.068 73.0012 189.864C72.6172 189.648 72.0232 189.438 71.2192 189.234C70.4872 189.042 69.8872 188.85 69.4192 188.658C68.9632 188.454 68.5672 188.16 68.2312 187.776C67.9072 187.38 67.7452 186.864 67.7452 186.228C67.7452 185.724 67.8952 185.262 68.1952 184.842C68.4952 184.422 68.9212 184.092 69.4732 183.852C70.0252 183.6 70.6552 183.474 71.3632 183.474C72.4552 183.474 73.3372 183.75 74.0092 184.302C74.6812 184.854 75.0412 185.61 75.0892 186.57H73.4512C73.4152 186.054 73.2052 185.64 72.8212 185.328C72.4492 185.016 71.9452 184.86 71.3092 184.86C70.7212 184.86 70.2532 184.986 69.9052 185.238C69.5572 185.49 69.3832 185.82 69.3832 186.228C69.3832 186.552 69.4852 186.822 69.6892 187.038C69.9052 187.242 70.1692 187.41 70.4812 187.542C70.8052 187.662 71.2492 187.8 71.8132 187.956C72.5212 188.148 73.0972 188.34 73.5412 188.532C73.9852 188.712 74.3632 188.988 74.6752 189.36C74.9992 189.732 75.1672 190.218 75.1792 190.818C75.1792 191.358 75.0292 191.844 74.7292 192.276C74.4292 192.708 74.0032 193.05 73.4512 193.302C72.9112 193.542 72.2872 193.662 71.5792 193.662ZM79.4895 184.986V190.8C79.4895 191.28 79.5915 191.622 79.7955 191.826C79.9995 192.018 80.3535 192.114 80.8575 192.114H82.0635V193.5H80.5875C79.6755 193.5 78.9915 193.29 78.5355 192.87C78.0795 192.45 77.8515 191.76 77.8515 190.8V184.986H76.5735V183.636H77.8515V181.152H79.4895V183.636H82.0635V184.986H79.4895ZM88.2349 187.218C88.2349 185.994 88.5109 184.896 89.0629 183.924C89.6149 182.94 90.3649 182.172 91.3129 181.62C92.2729 181.068 93.3349 180.792 94.4989 180.792C95.8669 180.792 97.0609 181.122 98.0809 181.782C99.1009 182.442 99.8449 183.378 100.313 184.59H98.3509C98.0029 183.834 97.4989 183.252 96.8389 182.844C96.1909 182.436 95.4109 182.232 94.4989 182.232C93.6229 182.232 92.8369 182.436 92.1409 182.844C91.4449 183.252 90.8989 183.834 90.5029 184.59C90.1069 185.334 89.9089 186.21 89.9089 187.218C89.9089 188.214 90.1069 189.09 90.5029 189.846C90.8989 190.59 91.4449 191.166 92.1409 191.574C92.8369 191.982 93.6229 192.186 94.4989 192.186C95.4109 192.186 96.1909 191.988 96.8389 191.592C97.4989 191.184 98.0029 190.602 98.3509 189.846H100.313C99.8449 191.046 99.1009 191.976 98.0809 192.636C97.0609 193.284 95.8669 193.608 94.4989 193.608C93.3349 193.608 92.2729 193.338 91.3129 192.798C90.3649 192.246 89.6149 191.484 89.0629 190.512C88.5109 189.54 88.2349 188.442 88.2349 187.218ZM107.053 193.662C106.129 193.662 105.289 193.452 104.533 193.032C103.789 192.612 103.201 192.018 102.769 191.25C102.349 190.47 102.139 189.57 102.139 188.55C102.139 187.542 102.355 186.654 102.787 185.886C103.231 185.106 103.831 184.512 104.587 184.104C105.343 183.684 106.189 183.474 107.125 183.474C108.061 183.474 108.907 183.684 109.663 184.104C110.419 184.512 111.013 185.1 111.445 185.868C111.889 186.636 112.111 187.53 112.111 188.55C112.111 189.57 111.883 190.47 111.427 191.25C110.983 192.018 110.377 192.612 109.609 193.032C108.841 193.452 107.989 193.662 107.053 193.662ZM107.053 192.222C107.641 192.222 108.193 192.084 108.709 191.808C109.225 191.532 109.639 191.118 109.951 190.566C110.275 190.014 110.437 189.342 110.437 188.55C110.437 187.758 110.281 187.086 109.969 186.534C109.657 185.982 109.249 185.574 108.745 185.31C108.241 185.034 107.695 184.896 107.107 184.896C106.507 184.896 105.955 185.034 105.451 185.31C104.959 185.574 104.563 185.982 104.263 186.534C103.963 187.086 103.813 187.758 103.813 188.55C103.813 189.354 103.957 190.032 104.245 190.584C104.545 191.136 104.941 191.55 105.433 191.826C105.925 192.09 106.465 192.222 107.053 192.222ZM115.903 180.18V193.5H114.265V180.18H115.903ZM120.333 180.18V193.5H118.695V180.18H120.333ZM132.124 188.19C132.124 188.502 132.106 188.832 132.07 189.18H124.186C124.246 190.152 124.576 190.914 125.176 191.466C125.788 192.006 126.526 192.276 127.39 192.276C128.098 192.276 128.686 192.114 129.154 191.79C129.634 191.454 129.97 191.01 130.162 190.458H131.926C131.662 191.406 131.134 192.18 130.342 192.78C129.55 193.368 128.566 193.662 127.39 193.662C126.454 193.662 125.614 193.452 124.87 193.032C124.138 192.612 123.562 192.018 123.142 191.25C122.722 190.47 122.512 189.57 122.512 188.55C122.512 187.53 122.716 186.636 123.124 185.868C123.532 185.1 124.102 184.512 124.834 184.104C125.578 183.684 126.43 183.474 127.39 183.474C128.326 183.474 129.154 183.678 129.874 184.086C130.594 184.494 131.146 185.058 131.53 185.778C131.926 186.486 132.124 187.29 132.124 188.19ZM130.432 187.848C130.432 187.224 130.294 186.69 130.018 186.246C129.742 185.79 129.364 185.448 128.884 185.22C128.416 184.98 127.894 184.86 127.318 184.86C126.49 184.86 125.782 185.124 125.194 185.652C124.618 186.18 124.288 186.912 124.204 187.848H130.432ZM133.674 188.55C133.674 187.53 133.878 186.642 134.286 185.886C134.694 185.118 135.258 184.524 135.978 184.104C136.71 183.684 137.544 183.474 138.48 183.474C139.692 183.474 140.688 183.768 141.468 184.356C142.26 184.944 142.782 185.76 143.034 186.804H141.27C141.102 186.204 140.772 185.73 140.28 185.382C139.8 185.034 139.2 184.86 138.48 184.86C137.544 184.86 136.788 185.184 136.212 185.832C135.636 186.468 135.348 187.374 135.348 188.55C135.348 189.738 135.636 190.656 136.212 191.304C136.788 191.952 137.544 192.276 138.48 192.276C139.2 192.276 139.8 192.108 140.28 191.772C140.76 191.436 141.09 190.956 141.27 190.332H143.034C142.77 191.34 142.242 192.15 141.45 192.762C140.658 193.362 139.668 193.662 138.48 193.662C137.544 193.662 136.71 193.452 135.978 193.032C135.258 192.612 134.694 192.018 134.286 191.25C133.878 190.482 133.674 189.582 133.674 188.55ZM147.218 184.986V190.8C147.218 191.28 147.32 191.622 147.524 191.826C147.728 192.018 148.082 192.114 148.586 192.114H149.792V193.5H148.316C147.404 193.5 146.72 193.29 146.264 192.87C145.808 192.45 145.58 191.76 145.58 190.8V184.986H144.302V183.636H145.58V181.152H147.218V183.636H149.792V184.986H147.218ZM152.623 182.034C152.311 182.034 152.047 181.926 151.831 181.71C151.615 181.494 151.507 181.23 151.507 180.918C151.507 180.606 151.615 180.342 151.831 180.126C152.047 179.91 152.311 179.802 152.623 179.802C152.923 179.802 153.175 179.91 153.379 180.126C153.595 180.342 153.703 180.606 153.703 180.918C153.703 181.23 153.595 181.494 153.379 181.71C153.175 181.926 152.923 182.034 152.623 182.034ZM153.415 183.636V193.5H151.777V183.636H153.415ZM160.508 193.662C159.584 193.662 158.744 193.452 157.988 193.032C157.244 192.612 156.656 192.018 156.224 191.25C155.804 190.47 155.594 189.57 155.594 188.55C155.594 187.542 155.81 186.654 156.242 185.886C156.686 185.106 157.286 184.512 158.042 184.104C158.798 183.684 159.644 183.474 160.58 183.474C161.516 183.474 162.362 183.684 163.118 184.104C163.874 184.512 164.468 185.1 164.9 185.868C165.344 186.636 165.566 187.53 165.566 188.55C165.566 189.57 165.338 190.47 164.882 191.25C164.438 192.018 163.832 192.612 163.064 193.032C162.296 193.452 161.444 193.662 160.508 193.662ZM160.508 192.222C161.096 192.222 161.648 192.084 162.164 191.808C162.68 191.532 163.094 191.118 163.406 190.566C163.73 190.014 163.892 189.342 163.892 188.55C163.892 187.758 163.736 187.086 163.424 186.534C163.112 185.982 162.704 185.574 162.2 185.31C161.696 185.034 161.15 184.896 160.562 184.896C159.962 184.896 159.41 185.034 158.906 185.31C158.414 185.574 158.018 185.982 157.718 186.534C157.418 187.086 157.268 187.758 157.268 188.55C157.268 189.354 157.412 190.032 157.7 190.584C158 191.136 158.396 191.55 158.888 191.826C159.38 192.09 159.92 192.222 160.508 192.222ZM172.526 183.456C173.726 183.456 174.698 183.822 175.442 184.554C176.186 185.274 176.558 186.318 176.558 187.686V193.5H174.938V187.92C174.938 186.936 174.692 186.186 174.2 185.67C173.708 185.142 173.036 184.878 172.184 184.878C171.32 184.878 170.63 185.148 170.114 185.688C169.61 186.228 169.358 187.014 169.358 188.046V193.5H167.72V183.636H169.358V185.04C169.682 184.536 170.12 184.146 170.672 183.87C171.236 183.594 171.854 183.456 172.526 183.456ZM182.726 193.662C181.97 193.662 181.292 193.536 180.692 193.284C180.092 193.02 179.618 192.66 179.27 192.204C178.922 191.736 178.73 191.202 178.694 190.602H180.386C180.434 191.094 180.662 191.496 181.07 191.808C181.49 192.12 182.036 192.276 182.708 192.276C183.332 192.276 183.824 192.138 184.184 191.862C184.544 191.586 184.724 191.238 184.724 190.818C184.724 190.386 184.532 190.068 184.148 189.864C183.764 189.648 183.17 189.438 182.366 189.234C181.634 189.042 181.034 188.85 180.566 188.658C180.11 188.454 179.714 188.16 179.378 187.776C179.054 187.38 178.892 186.864 178.892 186.228C178.892 185.724 179.042 185.262 179.342 184.842C179.642 184.422 180.068 184.092 180.62 183.852C181.172 183.6 181.802 183.474 182.51 183.474C183.602 183.474 184.484 183.75 185.156 184.302C185.828 184.854 186.188 185.61 186.236 186.57H184.598C184.562 186.054 184.352 185.64 183.968 185.328C183.596 185.016 183.092 184.86 182.456 184.86C181.868 184.86 181.4 184.986 181.052 185.238C180.704 185.49 180.53 185.82 180.53 186.228C180.53 186.552 180.632 186.822 180.836 187.038C181.052 187.242 181.316 187.41 181.628 187.542C181.952 187.662 182.396 187.8 182.96 187.956C183.668 188.148 184.244 188.34 184.688 188.532C185.132 188.712 185.51 188.988 185.822 189.36C186.146 189.732 186.314 190.218 186.326 190.818C186.326 191.358 186.176 191.844 185.876 192.276C185.576 192.708 185.15 193.05 184.598 193.302C184.058 193.542 183.434 193.662 182.726 193.662Z" fill="#696969"/>
<defs>
<clipPath id="clip0_225_5524">
<rect width="80" height="80" fill="white" transform="translate(76 31.5)"/>
</clipPath>
</defs>
</svg>
