<svg width="232" height="232" viewBox="0 0 232 232" fill="none" xmlns="http://www.w3.org/2000/svg">
<rect width="232" height="232" rx="8" fill="#F3FDEC"/>
<g clip-path="url(#clip0_225_5525)">
<path d="M116.001 51.8063C110.181 44.8421 91.5602 46.6743 77.334 52.108V106.28H110.747C110.747 107.99 112.134 109.376 113.844 109.376H118.157C119.867 109.376 121.254 107.99 121.254 106.28H154.667V52.108C141.117 44.2751 123.232 47.4175 116.001 51.8063Z" fill="#FFEBD2"/>
<path d="M154.073 51.6735C145.046 48.5338 132.692 48.7173 126.144 52.2145C123.971 53.3751 121.359 53.3848 119.184 52.2285C118.326 51.7723 117.424 51.4005 116.555 51.1001C122.151 44.7171 143.195 43.9615 154.073 51.6735Z" fill="#FFF3E4"/>
<path d="M114.974 50.613C105.876 48.1414 91.8207 49.4514 84.0007 55.4414V99.258C81.5157 100.175 79.2407 101.356 77.334 102.816V52.108C87.7635 44.1202 108.737 44.588 114.974 50.613Z" fill="#FFF3E4"/>
<path d="M154.667 102.816V106.28H121.254C121.254 107.99 119.867 109.376 118.157 109.376H113.844C112.134 109.376 110.747 107.99 110.747 106.28H77.334V102.816C88.2445 94.4602 111.085 95.2447 116.001 102.515C120.931 95.2232 143.791 94.4862 154.667 102.816Z" fill="#FFCA8C"/>
<path d="M117.333 50.3347V101.043C116.803 101.5 116.354 101.99 115.999 102.515C115.644 101.99 115.196 101.5 114.666 101.043V50.3347C115.17 50.7687 115.624 51.2539 115.999 51.8064C116.374 51.254 116.829 50.7689 117.333 50.3347Z" fill="#FFD9AD"/>
<path d="M118.157 110.71H113.843C111.865 110.71 110.186 109.406 109.618 107.613H77.3333C76.597 107.613 76 107.016 76 106.28C76 105.543 76.597 104.946 77.3333 104.946H110.747C111.483 104.946 112.08 105.543 112.08 106.28C112.08 107.252 112.871 108.043 113.843 108.043H118.157C119.129 108.043 119.92 107.252 119.92 106.28C119.92 105.543 120.517 104.946 121.253 104.946H154.667C155.403 104.946 156 105.543 156 106.28C156 107.016 155.403 107.613 154.667 107.613H122.382C121.815 109.406 120.135 110.71 118.157 110.71Z" fill="#FF6D7A"/>
<path d="M145.712 88.3092C139.13 86.304 131.145 85.9847 124.873 87.4758C124.156 87.6465 123.437 87.2035 123.267 86.487C123.097 85.7707 123.539 85.0518 124.256 84.8815C130.962 83.2875 139.481 83.6233 146.489 85.7582C147.194 85.9728 147.591 86.7177 147.376 87.4222C147.162 88.127 146.416 88.5237 145.712 88.3092Z" fill="#585966"/>
<path d="M146.101 80.034C145.421 80.034 142.948 78.881 137.348 78.392C136.615 78.328 136.072 77.6814 136.136 76.9477C136.2 76.2142 136.846 75.6705 137.58 75.7353C140.714 76.009 143.712 76.5775 146.49 77.425C147.194 77.6398 147.591 78.385 147.376 79.0894C147.201 79.664 146.673 80.034 146.101 80.034Z" fill="#585966"/>
<path d="M126.624 72.2786C114.533 55.9775 148.496 38.1153 152.459 32.2903C152.842 53.272 144.024 76.3785 126.657 72.3251C126.646 72.3101 126.635 72.294 126.624 72.2786Z" fill="#8AF7FA"/>
<path d="M147.15 43.4666C138.297 50.448 127.453 60.0421 129.382 69.7299C129.69 71.2776 128.305 72.7093 126.657 72.3251C114.846 55.7383 148.491 38.1208 152.458 32.2903C152.54 36.8146 150.456 40.8593 147.15 43.4666Z" fill="#AEFCFE"/>
<path d="M125.431 79.6838C124.621 79.6838 123.999 78.9702 124.108 78.1697C126.042 64.0337 133.272 51.8542 144.756 43.5483C145.353 43.1167 146.186 43.2508 146.618 43.8473C147.049 44.444 146.916 45.2777 146.319 45.7092C135.304 53.6753 128.564 65.2778 126.75 78.5312C126.659 79.1993 126.087 79.6838 125.431 79.6838Z" fill="#5FF2F9"/>
<path d="M109.111 84.3086L96.6657 86.417L84.2207 84.3086C84.2207 78.542 89.819 81.172 92.189 77.4353C94.8474 79.4786 98.4824 79.477 101.142 77.4353C103.512 81.172 109.111 78.542 109.111 84.3086Z" fill="#FF6D7A"/>
<path d="M104.666 69.067C104.666 82.2662 88.666 82.2777 88.666 69.067C88.666 55.8687 104.666 55.8653 104.666 69.067Z" fill="#FFF3E4"/>
<path d="M93.6517 73.0872C93.0662 72.6407 92.9537 71.8039 93.4 71.2185C93.8464 70.6332 94.683 70.5202 95.2689 70.967C96.1052 71.6049 97.2289 71.6049 98.065 70.967C98.6502 70.5204 99.4869 70.633 99.9339 71.2185C100.38 71.804 100.268 72.6407 99.6822 73.0872C97.879 74.4627 95.4552 74.4629 93.6517 73.0872Z" fill="#FFD9AD"/>
</g>
<path d="M44.592 131.676C45.0213 131.695 45.572 131.713 46.244 131.732C46.9347 131.751 47.616 131.76 48.288 131.76C49.184 131.76 50.0333 131.751 50.836 131.732C51.6573 131.713 52.236 131.704 52.572 131.704C54.6627 131.704 56.2213 132.115 57.248 132.936C58.2933 133.757 58.816 134.812 58.816 136.1C58.816 136.753 58.6573 137.407 58.34 138.06C58.0413 138.695 57.5467 139.273 56.856 139.796C56.1653 140.3 55.2507 140.701 54.112 141V141.056C55.68 141.224 56.912 141.56 57.808 142.064C58.704 142.568 59.3387 143.175 59.712 143.884C60.0853 144.575 60.272 145.303 60.272 146.068C60.272 147.169 59.992 148.131 59.432 148.952C58.872 149.755 58.06 150.38 56.996 150.828C55.9507 151.276 54.6907 151.5 53.216 151.5C52.8053 151.5 52.18 151.491 51.34 151.472C50.5187 151.435 49.52 151.416 48.344 151.416C47.6347 151.416 46.9347 151.425 46.244 151.444C45.572 151.444 45.0213 151.463 44.592 151.5V150.94C45.2267 150.903 45.7027 150.828 46.02 150.716C46.3373 150.604 46.5427 150.38 46.636 150.044C46.748 149.708 46.804 149.204 46.804 148.532V134.644C46.804 133.953 46.748 133.449 46.636 133.132C46.5427 132.796 46.328 132.572 45.992 132.46C45.6747 132.329 45.208 132.255 44.592 132.236V131.676ZM51.984 132.236C51.1813 132.236 50.6493 132.395 50.388 132.712C50.1453 133.029 50.024 133.673 50.024 134.644V148.532C50.024 149.185 50.08 149.68 50.192 150.016C50.304 150.352 50.5 150.576 50.78 150.688C51.0787 150.8 51.508 150.856 52.068 150.856C53.748 150.856 54.9613 150.436 55.708 149.596C56.4733 148.737 56.856 147.524 56.856 145.956C56.856 144.519 56.4733 143.408 55.708 142.624C54.9613 141.84 53.72 141.448 51.984 141.448H49.268C49.268 141.448 49.268 141.373 49.268 141.224C49.268 141.056 49.268 140.972 49.268 140.972H51.676C52.7027 140.972 53.496 140.767 54.056 140.356C54.616 139.927 54.9987 139.367 55.204 138.676C55.4093 137.967 55.512 137.211 55.512 136.408C55.512 135.027 55.2413 133.991 54.7 133.3C54.1587 132.591 53.2533 132.236 51.984 132.236ZM65.3894 129.996C65.9681 129.996 66.4534 130.183 66.8454 130.556C67.2374 130.911 67.4334 131.359 67.4334 131.9C67.4334 132.441 67.2374 132.899 66.8454 133.272C66.4534 133.627 65.9681 133.804 65.3894 133.804C64.8108 133.804 64.3254 133.627 63.9334 133.272C63.5414 132.899 63.3454 132.441 63.3454 131.9C63.3454 131.359 63.5414 130.911 63.9334 130.556C64.3254 130.183 64.8108 129.996 65.3894 129.996ZM67.0694 136.744V148.896C67.0694 149.68 67.2188 150.212 67.5174 150.492C67.8348 150.772 68.3574 150.912 69.0854 150.912V151.5C68.7681 151.481 68.2734 151.463 67.6014 151.444C66.9481 151.407 66.2761 151.388 65.5854 151.388C64.9321 151.388 64.2601 151.407 63.5694 151.444C62.8788 151.463 62.3654 151.481 62.0294 151.5V150.912C62.7574 150.912 63.2708 150.772 63.5694 150.492C63.8868 150.212 64.0454 149.68 64.0454 148.896V140.104C64.0454 139.264 63.9054 138.648 63.6254 138.256C63.3454 137.845 62.8134 137.64 62.0294 137.64V137.052C62.6268 137.108 63.2054 137.136 63.7654 137.136C64.4001 137.136 64.9881 137.108 65.5294 137.052C66.0894 136.977 66.6028 136.875 67.0694 136.744ZM77.424 136.66C78.6746 136.66 79.7853 136.921 80.756 137.444C81.7266 137.967 82.5013 138.788 83.08 139.908C83.6586 141.028 83.948 142.493 83.948 144.304C83.948 146.115 83.6586 147.58 83.08 148.7C82.5013 149.801 81.7266 150.613 80.756 151.136C79.7853 151.64 78.6746 151.892 77.424 151.892C76.192 151.892 75.0813 151.64 74.092 151.136C73.1026 150.613 72.3186 149.801 71.74 148.7C71.18 147.58 70.9 146.115 70.9 144.304C70.9 142.493 71.18 141.028 71.74 139.908C72.3186 138.788 73.1026 137.967 74.092 137.444C75.0813 136.921 76.192 136.66 77.424 136.66ZM77.424 137.22C76.4533 137.22 75.66 137.78 75.044 138.9C74.428 140.001 74.12 141.803 74.12 144.304C74.12 146.805 74.428 148.607 75.044 149.708C75.66 150.791 76.4533 151.332 77.424 151.332C78.376 151.332 79.16 150.791 79.776 149.708C80.4106 148.607 80.728 146.805 80.728 144.304C80.728 141.803 80.4106 140.001 79.776 138.9C79.16 137.78 78.376 137.22 77.424 137.22ZM91.1919 156.764C90.1465 156.764 89.1759 156.661 88.2799 156.456C87.4025 156.251 86.6932 155.933 86.1519 155.504C85.6292 155.093 85.3679 154.561 85.3679 153.908C85.3679 153.292 85.6292 152.751 86.1519 152.284C86.6745 151.817 87.4119 151.463 88.3639 151.22L88.5599 151.668C88.1679 151.836 87.8599 152.107 87.6359 152.48C87.4305 152.853 87.3279 153.264 87.3279 153.712C87.3279 154.533 87.7105 155.168 88.4759 155.616C89.2412 156.064 90.2492 156.288 91.4999 156.288C92.3399 156.288 93.1332 156.176 93.8799 155.952C94.6452 155.747 95.2612 155.401 95.7279 154.916C96.2132 154.431 96.4559 153.805 96.4559 153.04C96.4559 152.443 96.2412 151.939 95.8119 151.528C95.3825 151.136 94.5332 150.94 93.2639 150.94H91.3039C90.6505 150.94 90.0439 150.884 89.4839 150.772C88.9239 150.66 88.4665 150.445 88.1119 150.128C87.7759 149.792 87.6079 149.325 87.6079 148.728C87.6079 148.056 87.8879 147.421 88.4479 146.824C89.0079 146.227 89.9505 145.639 91.2759 145.06L91.6119 145.312C91.0705 145.611 90.5852 145.919 90.1559 146.236C89.7452 146.535 89.5399 146.908 89.5399 147.356C89.5399 147.953 89.9692 148.252 90.8279 148.252H94.1599C95.0372 148.252 95.8305 148.373 96.5399 148.616C97.2492 148.84 97.8185 149.204 98.2479 149.708C98.6772 150.212 98.8919 150.875 98.8919 151.696C98.8919 152.573 98.6025 153.395 98.0239 154.16C97.4639 154.944 96.6145 155.569 95.4759 156.036C94.3372 156.521 92.9092 156.764 91.1919 156.764ZM91.3599 145.536C90.4079 145.536 89.5399 145.387 88.7559 145.088C87.9719 144.771 87.3559 144.285 86.9079 143.632C86.4599 142.979 86.2359 142.139 86.2359 141.112C86.2359 140.085 86.4599 139.245 86.9079 138.592C87.3559 137.92 87.9719 137.435 88.7559 137.136C89.5399 136.819 90.4079 136.66 91.3599 136.66C92.3492 136.66 93.2265 136.819 93.9919 137.136C94.7572 137.435 95.3639 137.92 95.8119 138.592C96.2599 139.245 96.4839 140.085 96.4839 141.112C96.4839 142.139 96.2599 142.979 95.8119 143.632C95.3639 144.285 94.7572 144.771 93.9919 145.088C93.2265 145.387 92.3492 145.536 91.3599 145.536ZM91.3599 145.032C92.0132 145.032 92.5172 144.752 92.8719 144.192C93.2265 143.632 93.4039 142.605 93.4039 141.112C93.4039 139.619 93.2265 138.592 92.8719 138.032C92.5172 137.453 92.0132 137.164 91.3599 137.164C90.7439 137.164 90.2492 137.453 89.8759 138.032C89.5025 138.592 89.3159 139.619 89.3159 141.112C89.3159 142.605 89.5025 143.632 89.8759 144.192C90.2492 144.752 90.7439 145.032 91.3599 145.032ZM95.5039 139.012L94.9999 138.816C95.2612 138.163 95.7092 137.593 96.3439 137.108C96.9785 136.623 97.6412 136.38 98.3319 136.38C98.8545 136.38 99.2652 136.529 99.5639 136.828C99.8812 137.108 100.04 137.509 100.04 138.032C100.04 138.611 99.8812 139.021 99.5639 139.264C99.2652 139.507 98.9479 139.628 98.6119 139.628C98.3132 139.628 98.0332 139.525 97.7719 139.32C97.5292 139.115 97.3892 138.797 97.3519 138.368C97.3145 137.92 97.4545 137.351 97.7719 136.66L98.0799 136.772C97.3332 137.071 96.7825 137.388 96.4279 137.724C96.0919 138.041 95.7839 138.471 95.5039 139.012ZM109.956 136.66C110.497 136.66 110.954 136.772 111.328 136.996C111.72 137.22 112.009 137.509 112.196 137.864C112.401 138.2 112.504 138.583 112.504 139.012C112.504 139.553 112.336 140.02 112 140.412C111.682 140.785 111.253 140.972 110.712 140.972C110.245 140.972 109.844 140.832 109.508 140.552C109.19 140.272 109.032 139.889 109.032 139.404C109.032 138.993 109.134 138.648 109.34 138.368C109.564 138.069 109.816 137.836 110.096 137.668C109.909 137.519 109.685 137.453 109.424 137.472C108.92 137.491 108.453 137.659 108.024 137.976C107.594 138.275 107.23 138.667 106.932 139.152C106.633 139.619 106.4 140.123 106.232 140.664C106.064 141.205 105.98 141.709 105.98 142.176V148.616C105.98 149.531 106.232 150.147 106.736 150.464C107.24 150.763 107.94 150.912 108.836 150.912V151.5C108.406 151.481 107.79 151.463 106.988 151.444C106.204 151.407 105.373 151.388 104.496 151.388C103.824 151.388 103.152 151.407 102.48 151.444C101.808 151.463 101.294 151.481 100.94 151.5V150.912C101.668 150.912 102.181 150.772 102.48 150.492C102.797 150.212 102.956 149.68 102.956 148.896V140.104C102.956 139.264 102.816 138.648 102.536 138.256C102.256 137.845 101.724 137.64 100.94 137.64V137.052C101.537 137.108 102.116 137.136 102.676 137.136C103.31 137.136 103.898 137.108 104.44 137.052C105 136.977 105.513 136.875 105.98 136.744V139.964C106.204 139.423 106.502 138.9 106.876 138.396C107.249 137.892 107.697 137.481 108.22 137.164C108.742 136.828 109.321 136.66 109.956 136.66ZM117.548 151.696C116.764 151.696 116.092 151.547 115.532 151.248C114.972 150.949 114.552 150.539 114.272 150.016C113.992 149.493 113.852 148.896 113.852 148.224C113.852 147.403 114.038 146.74 114.412 146.236C114.785 145.713 115.261 145.293 115.84 144.976C116.437 144.659 117.062 144.397 117.716 144.192C118.388 143.968 119.013 143.763 119.592 143.576C120.189 143.371 120.674 143.137 121.048 142.876C121.44 142.615 121.636 142.269 121.636 141.84V139.936C121.636 139.264 121.524 138.732 121.3 138.34C121.094 137.929 120.805 137.64 120.432 137.472C120.077 137.304 119.648 137.22 119.144 137.22C118.714 137.22 118.257 137.285 117.772 137.416C117.286 137.528 116.904 137.761 116.624 138.116C117.034 138.228 117.37 138.452 117.632 138.788C117.912 139.105 118.052 139.507 118.052 139.992C118.052 140.515 117.874 140.925 117.52 141.224C117.184 141.523 116.754 141.672 116.232 141.672C115.653 141.672 115.224 141.495 114.944 141.14C114.664 140.767 114.524 140.337 114.524 139.852C114.524 139.348 114.645 138.937 114.888 138.62C115.149 138.303 115.485 138.004 115.896 137.724C116.344 137.425 116.913 137.173 117.604 136.968C118.313 136.763 119.097 136.66 119.956 136.66C120.758 136.66 121.449 136.753 122.028 136.94C122.625 137.108 123.12 137.388 123.512 137.78C123.978 138.209 124.286 138.751 124.436 139.404C124.585 140.039 124.66 140.813 124.66 141.728V149.456C124.66 149.923 124.716 150.259 124.828 150.464C124.958 150.651 125.164 150.744 125.444 150.744C125.63 150.744 125.808 150.697 125.976 150.604C126.162 150.511 126.377 150.371 126.62 150.184L126.9 150.66C126.508 150.977 126.106 151.229 125.696 151.416C125.304 151.603 124.8 151.696 124.184 151.696C123.586 151.696 123.101 151.603 122.728 151.416C122.354 151.229 122.074 150.959 121.888 150.604C121.72 150.249 121.636 149.811 121.636 149.288C121.15 150.072 120.572 150.669 119.9 151.08C119.228 151.491 118.444 151.696 117.548 151.696ZM118.892 150.352C119.414 150.352 119.9 150.203 120.348 149.904C120.814 149.605 121.244 149.157 121.636 148.56V142.988C121.43 143.287 121.132 143.548 120.74 143.772C120.348 143.977 119.928 144.192 119.48 144.416C119.032 144.64 118.602 144.901 118.192 145.2C117.8 145.48 117.473 145.844 117.212 146.292C116.95 146.74 116.82 147.309 116.82 148C116.82 148.728 117.006 149.307 117.38 149.736C117.753 150.147 118.257 150.352 118.892 150.352ZM132.608 136.744V153.908C132.608 154.729 132.842 155.28 133.308 155.56C133.775 155.84 134.419 155.98 135.24 155.98V156.568C134.811 156.549 134.214 156.521 133.448 156.484C132.683 156.465 131.862 156.456 130.984 156.456C130.368 156.456 129.762 156.465 129.164 156.484C128.567 156.521 128.11 156.549 127.792 156.568V155.98C128.446 155.98 128.903 155.849 129.164 155.588C129.444 155.345 129.584 154.879 129.584 154.188V140.104C129.584 139.264 129.444 138.648 129.164 138.256C128.884 137.845 128.352 137.64 127.568 137.64V137.052C128.166 137.108 128.744 137.136 129.304 137.136C129.92 137.136 130.508 137.108 131.068 137.052C131.628 136.977 132.142 136.875 132.608 136.744ZM137.06 136.66C138.031 136.66 138.899 136.931 139.664 137.472C140.448 137.995 141.064 138.769 141.512 139.796C141.96 140.823 142.184 142.101 142.184 143.632C142.184 144.752 142.054 145.816 141.792 146.824C141.531 147.813 141.13 148.691 140.588 149.456C140.066 150.203 139.403 150.8 138.6 151.248C137.798 151.677 136.846 151.892 135.744 151.892C134.923 151.892 134.195 151.715 133.56 151.36C132.944 151.005 132.506 150.557 132.244 150.016L132.524 149.624C132.767 150.091 133.103 150.473 133.532 150.772C133.98 151.071 134.531 151.22 135.184 151.22C136.155 151.22 136.911 150.912 137.452 150.296C138.012 149.661 138.404 148.812 138.628 147.748C138.852 146.665 138.964 145.443 138.964 144.08C138.964 142.549 138.852 141.317 138.628 140.384C138.404 139.432 138.068 138.741 137.62 138.312C137.172 137.864 136.631 137.64 135.996 137.64C135.156 137.64 134.391 137.976 133.7 138.648C133.028 139.32 132.618 140.328 132.468 141.672L132.188 141.084C132.431 139.684 132.991 138.601 133.868 137.836C134.764 137.052 135.828 136.66 137.06 136.66ZM149.014 129.576V139.768C149.481 138.611 150.134 137.808 150.974 137.36C151.833 136.893 152.738 136.66 153.69 136.66C154.437 136.66 155.043 136.763 155.51 136.968C155.995 137.155 156.397 137.416 156.714 137.752C157.05 138.107 157.293 138.564 157.442 139.124C157.591 139.684 157.666 140.44 157.666 141.392V148.896C157.666 149.68 157.815 150.212 158.114 150.492C158.431 150.772 158.954 150.912 159.682 150.912V151.5C159.346 151.481 158.842 151.463 158.17 151.444C157.498 151.407 156.845 151.388 156.21 151.388C155.557 151.388 154.913 151.407 154.278 151.444C153.662 151.463 153.205 151.481 152.906 151.5V150.912C153.541 150.912 153.989 150.772 154.25 150.492C154.511 150.212 154.642 149.68 154.642 148.896V140.608C154.642 140.067 154.595 139.581 154.502 139.152C154.409 138.704 154.203 138.349 153.886 138.088C153.587 137.808 153.139 137.668 152.542 137.668C151.87 137.668 151.263 137.864 150.722 138.256C150.199 138.629 149.779 139.152 149.462 139.824C149.163 140.496 149.014 141.261 149.014 142.12V148.896C149.014 149.68 149.145 150.212 149.406 150.492C149.667 150.772 150.115 150.912 150.75 150.912V151.5C150.433 151.481 149.966 151.463 149.35 151.444C148.753 151.407 148.137 151.388 147.502 151.388C146.849 151.388 146.177 151.407 145.486 151.444C144.814 151.463 144.31 151.481 143.974 151.5V150.912C144.702 150.912 145.215 150.772 145.514 150.492C145.831 150.212 145.99 149.68 145.99 148.896V132.936C145.99 132.096 145.841 131.48 145.542 131.088C145.262 130.677 144.739 130.472 143.974 130.472V129.884C144.571 129.94 145.15 129.968 145.71 129.968C146.326 129.968 146.914 129.94 147.474 129.884C148.034 129.809 148.547 129.707 149.014 129.576ZM173.793 137.052V137.612C173.438 137.668 173.112 137.855 172.813 138.172C172.514 138.471 172.225 138.993 171.945 139.74L167.577 151.444L166.905 152.116L161.445 139.208C161.09 138.48 160.745 138.041 160.409 137.892C160.092 137.724 159.821 137.64 159.597 137.64V137.052C160.064 137.108 160.558 137.155 161.081 137.192C161.604 137.211 162.145 137.22 162.705 137.22C163.34 137.22 163.974 137.201 164.609 137.164C165.262 137.127 165.869 137.089 166.429 137.052V137.64C165.981 137.64 165.58 137.677 165.225 137.752C164.889 137.808 164.665 137.985 164.553 138.284C164.46 138.564 164.553 139.049 164.833 139.74L168.305 148.28L168.109 148.364L170.937 140.86C171.217 140.113 171.329 139.516 171.273 139.068C171.217 138.601 171.021 138.256 170.685 138.032C170.349 137.789 169.854 137.649 169.201 137.612V137.052C169.518 137.071 169.808 137.089 170.069 137.108C170.349 137.108 170.62 137.117 170.881 137.136C171.142 137.136 171.404 137.136 171.665 137.136C172.076 137.136 172.458 137.127 172.813 137.108C173.186 137.089 173.513 137.071 173.793 137.052ZM167.577 151.444L166.569 154.076C166.382 154.543 166.186 154.935 165.981 155.252C165.794 155.569 165.589 155.831 165.365 156.036C165.085 156.297 164.74 156.484 164.329 156.596C163.918 156.708 163.508 156.764 163.097 156.764C162.705 156.764 162.332 156.689 161.977 156.54C161.641 156.409 161.361 156.204 161.137 155.924C160.913 155.644 160.801 155.299 160.801 154.888C160.801 154.403 160.96 154.011 161.277 153.712C161.594 153.413 162.014 153.264 162.537 153.264C163.004 153.264 163.396 153.385 163.713 153.628C164.03 153.889 164.189 154.263 164.189 154.748C164.189 155.084 164.096 155.373 163.909 155.616C163.741 155.859 163.517 156.045 163.237 156.176C163.293 156.195 163.349 156.204 163.405 156.204C163.461 156.204 163.508 156.204 163.545 156.204C164.068 156.204 164.534 156.027 164.945 155.672C165.356 155.336 165.701 154.785 165.981 154.02L166.989 151.332L167.577 151.444Z" fill="black"/>
<path d="M53.168 187.038C53.624 187.11 54.038 187.296 54.41 187.596C54.794 187.896 55.094 188.268 55.31 188.712C55.538 189.156 55.652 189.63 55.652 190.134C55.652 190.77 55.49 191.346 55.166 191.862C54.842 192.366 54.368 192.768 53.744 193.068C53.132 193.356 52.406 193.5 51.566 193.5H46.886V180.954H51.386C52.238 180.954 52.964 181.098 53.564 181.386C54.164 181.662 54.614 182.04 54.914 182.52C55.214 183 55.364 183.54 55.364 184.14C55.364 184.884 55.16 185.502 54.752 185.994C54.356 186.474 53.828 186.822 53.168 187.038ZM48.524 186.372H51.278C52.046 186.372 52.64 186.192 53.06 185.832C53.48 185.472 53.69 184.974 53.69 184.338C53.69 183.702 53.48 183.204 53.06 182.844C52.64 182.484 52.034 182.304 51.242 182.304H48.524V186.372ZM51.422 192.15C52.238 192.15 52.874 191.958 53.33 191.574C53.786 191.19 54.014 190.656 54.014 189.972C54.014 189.276 53.774 188.73 53.294 188.334C52.814 187.926 52.172 187.722 51.368 187.722H48.524V192.15H51.422ZM66.9251 188.19C66.9251 188.502 66.9071 188.832 66.8711 189.18H58.9871C59.0471 190.152 59.3771 190.914 59.9771 191.466C60.5891 192.006 61.3271 192.276 62.1911 192.276C62.8991 192.276 63.4871 192.114 63.9551 191.79C64.4351 191.454 64.7711 191.01 64.9631 190.458H66.7271C66.4631 191.406 65.9351 192.18 65.1431 192.78C64.3511 193.368 63.3671 193.662 62.1911 193.662C61.2551 193.662 60.4151 193.452 59.6711 193.032C58.9391 192.612 58.3631 192.018 57.9431 191.25C57.5231 190.47 57.3131 189.57 57.3131 188.55C57.3131 187.53 57.5171 186.636 57.9251 185.868C58.3331 185.1 58.9031 184.512 59.6351 184.104C60.3791 183.684 61.2311 183.474 62.1911 183.474C63.1271 183.474 63.9551 183.678 64.6751 184.086C65.3951 184.494 65.9471 185.058 66.3311 185.778C66.7271 186.486 66.9251 187.29 66.9251 188.19ZM65.2331 187.848C65.2331 187.224 65.0951 186.69 64.8191 186.246C64.5431 185.79 64.1651 185.448 63.6851 185.22C63.2171 184.98 62.6951 184.86 62.1191 184.86C61.2911 184.86 60.5831 185.124 59.9951 185.652C59.4191 186.18 59.0891 186.912 59.0051 187.848H65.2331ZM72.5792 193.662C71.8232 193.662 71.1452 193.536 70.5452 193.284C69.9452 193.02 69.4712 192.66 69.1232 192.204C68.7752 191.736 68.5832 191.202 68.5472 190.602H70.2392C70.2872 191.094 70.5152 191.496 70.9232 191.808C71.3432 192.12 71.8892 192.276 72.5612 192.276C73.1852 192.276 73.6772 192.138 74.0372 191.862C74.3972 191.586 74.5772 191.238 74.5772 190.818C74.5772 190.386 74.3852 190.068 74.0012 189.864C73.6172 189.648 73.0232 189.438 72.2192 189.234C71.4872 189.042 70.8872 188.85 70.4192 188.658C69.9632 188.454 69.5672 188.16 69.2312 187.776C68.9072 187.38 68.7452 186.864 68.7452 186.228C68.7452 185.724 68.8952 185.262 69.1952 184.842C69.4952 184.422 69.9212 184.092 70.4732 183.852C71.0252 183.6 71.6552 183.474 72.3632 183.474C73.4552 183.474 74.3372 183.75 75.0092 184.302C75.6812 184.854 76.0412 185.61 76.0892 186.57H74.4512C74.4152 186.054 74.2052 185.64 73.8212 185.328C73.4492 185.016 72.9452 184.86 72.3092 184.86C71.7212 184.86 71.2532 184.986 70.9052 185.238C70.5572 185.49 70.3832 185.82 70.3832 186.228C70.3832 186.552 70.4852 186.822 70.6892 187.038C70.9052 187.242 71.1692 187.41 71.4812 187.542C71.8052 187.662 72.2492 187.8 72.8132 187.956C73.5212 188.148 74.0972 188.34 74.5412 188.532C74.9852 188.712 75.3632 188.988 75.6752 189.36C75.9992 189.732 76.1672 190.218 76.1792 190.818C76.1792 191.358 76.0292 191.844 75.7292 192.276C75.4292 192.708 75.0032 193.05 74.4512 193.302C73.9112 193.542 73.2872 193.662 72.5792 193.662ZM80.4895 184.986V190.8C80.4895 191.28 80.5915 191.622 80.7955 191.826C80.9995 192.018 81.3535 192.114 81.8575 192.114H83.0635V193.5H81.5875C80.6755 193.5 79.9915 193.29 79.5355 192.87C79.0795 192.45 78.8515 191.76 78.8515 190.8V184.986H77.5735V183.636H78.8515V181.152H80.4895V183.636H83.0635V184.986H80.4895ZM89.2349 187.218C89.2349 185.994 89.5109 184.896 90.0629 183.924C90.6149 182.94 91.3649 182.172 92.3129 181.62C93.2729 181.068 94.3349 180.792 95.4989 180.792C96.8669 180.792 98.0609 181.122 99.0809 181.782C100.101 182.442 100.845 183.378 101.313 184.59H99.3509C99.0029 183.834 98.4989 183.252 97.8389 182.844C97.1909 182.436 96.4109 182.232 95.4989 182.232C94.6229 182.232 93.8369 182.436 93.1409 182.844C92.4449 183.252 91.8989 183.834 91.5029 184.59C91.1069 185.334 90.9089 186.21 90.9089 187.218C90.9089 188.214 91.1069 189.09 91.5029 189.846C91.8989 190.59 92.4449 191.166 93.1409 191.574C93.8369 191.982 94.6229 192.186 95.4989 192.186C96.4109 192.186 97.1909 191.988 97.8389 191.592C98.4989 191.184 99.0029 190.602 99.3509 189.846H101.313C100.845 191.046 100.101 191.976 99.0809 192.636C98.0609 193.284 96.8669 193.608 95.4989 193.608C94.3349 193.608 93.2729 193.338 92.3129 192.798C91.3649 192.246 90.6149 191.484 90.0629 190.512C89.5109 189.54 89.2349 188.442 89.2349 187.218ZM108.053 193.662C107.129 193.662 106.289 193.452 105.533 193.032C104.789 192.612 104.201 192.018 103.769 191.25C103.349 190.47 103.139 189.57 103.139 188.55C103.139 187.542 103.355 186.654 103.787 185.886C104.231 185.106 104.831 184.512 105.587 184.104C106.343 183.684 107.189 183.474 108.125 183.474C109.061 183.474 109.907 183.684 110.663 184.104C111.419 184.512 112.013 185.1 112.445 185.868C112.889 186.636 113.111 187.53 113.111 188.55C113.111 189.57 112.883 190.47 112.427 191.25C111.983 192.018 111.377 192.612 110.609 193.032C109.841 193.452 108.989 193.662 108.053 193.662ZM108.053 192.222C108.641 192.222 109.193 192.084 109.709 191.808C110.225 191.532 110.639 191.118 110.951 190.566C111.275 190.014 111.437 189.342 111.437 188.55C111.437 187.758 111.281 187.086 110.969 186.534C110.657 185.982 110.249 185.574 109.745 185.31C109.241 185.034 108.695 184.896 108.107 184.896C107.507 184.896 106.955 185.034 106.451 185.31C105.959 185.574 105.563 185.982 105.263 186.534C104.963 187.086 104.813 187.758 104.813 188.55C104.813 189.354 104.957 190.032 105.245 190.584C105.545 191.136 105.941 191.55 106.433 191.826C106.925 192.09 107.465 192.222 108.053 192.222ZM116.903 180.18V193.5H115.265V180.18H116.903ZM121.333 180.18V193.5H119.695V180.18H121.333ZM133.124 188.19C133.124 188.502 133.106 188.832 133.07 189.18H125.186C125.246 190.152 125.576 190.914 126.176 191.466C126.788 192.006 127.526 192.276 128.39 192.276C129.098 192.276 129.686 192.114 130.154 191.79C130.634 191.454 130.97 191.01 131.162 190.458H132.926C132.662 191.406 132.134 192.18 131.342 192.78C130.55 193.368 129.566 193.662 128.39 193.662C127.454 193.662 126.614 193.452 125.87 193.032C125.138 192.612 124.562 192.018 124.142 191.25C123.722 190.47 123.512 189.57 123.512 188.55C123.512 187.53 123.716 186.636 124.124 185.868C124.532 185.1 125.102 184.512 125.834 184.104C126.578 183.684 127.43 183.474 128.39 183.474C129.326 183.474 130.154 183.678 130.874 184.086C131.594 184.494 132.146 185.058 132.53 185.778C132.926 186.486 133.124 187.29 133.124 188.19ZM131.432 187.848C131.432 187.224 131.294 186.69 131.018 186.246C130.742 185.79 130.364 185.448 129.884 185.22C129.416 184.98 128.894 184.86 128.318 184.86C127.49 184.86 126.782 185.124 126.194 185.652C125.618 186.18 125.288 186.912 125.204 187.848H131.432ZM134.674 188.55C134.674 187.53 134.878 186.642 135.286 185.886C135.694 185.118 136.258 184.524 136.978 184.104C137.71 183.684 138.544 183.474 139.48 183.474C140.692 183.474 141.688 183.768 142.468 184.356C143.26 184.944 143.782 185.76 144.034 186.804H142.27C142.102 186.204 141.772 185.73 141.28 185.382C140.8 185.034 140.2 184.86 139.48 184.86C138.544 184.86 137.788 185.184 137.212 185.832C136.636 186.468 136.348 187.374 136.348 188.55C136.348 189.738 136.636 190.656 137.212 191.304C137.788 191.952 138.544 192.276 139.48 192.276C140.2 192.276 140.8 192.108 141.28 191.772C141.76 191.436 142.09 190.956 142.27 190.332H144.034C143.77 191.34 143.242 192.15 142.45 192.762C141.658 193.362 140.668 193.662 139.48 193.662C138.544 193.662 137.71 193.452 136.978 193.032C136.258 192.612 135.694 192.018 135.286 191.25C134.878 190.482 134.674 189.582 134.674 188.55ZM148.218 184.986V190.8C148.218 191.28 148.32 191.622 148.524 191.826C148.728 192.018 149.082 192.114 149.586 192.114H150.792V193.5H149.316C148.404 193.5 147.72 193.29 147.264 192.87C146.808 192.45 146.58 191.76 146.58 190.8V184.986H145.302V183.636H146.58V181.152H148.218V183.636H150.792V184.986H148.218ZM153.623 182.034C153.311 182.034 153.047 181.926 152.831 181.71C152.615 181.494 152.507 181.23 152.507 180.918C152.507 180.606 152.615 180.342 152.831 180.126C153.047 179.91 153.311 179.802 153.623 179.802C153.923 179.802 154.175 179.91 154.379 180.126C154.595 180.342 154.703 180.606 154.703 180.918C154.703 181.23 154.595 181.494 154.379 181.71C154.175 181.926 153.923 182.034 153.623 182.034ZM154.415 183.636V193.5H152.777V183.636H154.415ZM161.508 193.662C160.584 193.662 159.744 193.452 158.988 193.032C158.244 192.612 157.656 192.018 157.224 191.25C156.804 190.47 156.594 189.57 156.594 188.55C156.594 187.542 156.81 186.654 157.242 185.886C157.686 185.106 158.286 184.512 159.042 184.104C159.798 183.684 160.644 183.474 161.58 183.474C162.516 183.474 163.362 183.684 164.118 184.104C164.874 184.512 165.468 185.1 165.9 185.868C166.344 186.636 166.566 187.53 166.566 188.55C166.566 189.57 166.338 190.47 165.882 191.25C165.438 192.018 164.832 192.612 164.064 193.032C163.296 193.452 162.444 193.662 161.508 193.662ZM161.508 192.222C162.096 192.222 162.648 192.084 163.164 191.808C163.68 191.532 164.094 191.118 164.406 190.566C164.73 190.014 164.892 189.342 164.892 188.55C164.892 187.758 164.736 187.086 164.424 186.534C164.112 185.982 163.704 185.574 163.2 185.31C162.696 185.034 162.15 184.896 161.562 184.896C160.962 184.896 160.41 185.034 159.906 185.31C159.414 185.574 159.018 185.982 158.718 186.534C158.418 187.086 158.268 187.758 158.268 188.55C158.268 189.354 158.412 190.032 158.7 190.584C159 191.136 159.396 191.55 159.888 191.826C160.38 192.09 160.92 192.222 161.508 192.222ZM173.526 183.456C174.726 183.456 175.698 183.822 176.442 184.554C177.186 185.274 177.558 186.318 177.558 187.686V193.5H175.938V187.92C175.938 186.936 175.692 186.186 175.2 185.67C174.708 185.142 174.036 184.878 173.184 184.878C172.32 184.878 171.63 185.148 171.114 185.688C170.61 186.228 170.358 187.014 170.358 188.046V193.5H168.72V183.636H170.358V185.04C170.682 184.536 171.12 184.146 171.672 183.87C172.236 183.594 172.854 183.456 173.526 183.456ZM183.726 193.662C182.97 193.662 182.292 193.536 181.692 193.284C181.092 193.02 180.618 192.66 180.27 192.204C179.922 191.736 179.73 191.202 179.694 190.602H181.386C181.434 191.094 181.662 191.496 182.07 191.808C182.49 192.12 183.036 192.276 183.708 192.276C184.332 192.276 184.824 192.138 185.184 191.862C185.544 191.586 185.724 191.238 185.724 190.818C185.724 190.386 185.532 190.068 185.148 189.864C184.764 189.648 184.17 189.438 183.366 189.234C182.634 189.042 182.034 188.85 181.566 188.658C181.11 188.454 180.714 188.16 180.378 187.776C180.054 187.38 179.892 186.864 179.892 186.228C179.892 185.724 180.042 185.262 180.342 184.842C180.642 184.422 181.068 184.092 181.62 183.852C182.172 183.6 182.802 183.474 183.51 183.474C184.602 183.474 185.484 183.75 186.156 184.302C186.828 184.854 187.188 185.61 187.236 186.57H185.598C185.562 186.054 185.352 185.64 184.968 185.328C184.596 185.016 184.092 184.86 183.456 184.86C182.868 184.86 182.4 184.986 182.052 185.238C181.704 185.49 181.53 185.82 181.53 186.228C181.53 186.552 181.632 186.822 181.836 187.038C182.052 187.242 182.316 187.41 182.628 187.542C182.952 187.662 183.396 187.8 183.96 187.956C184.668 188.148 185.244 188.34 185.688 188.532C186.132 188.712 186.51 188.988 186.822 189.36C187.146 189.732 187.314 190.218 187.326 190.818C187.326 191.358 187.176 191.844 186.876 192.276C186.576 192.708 186.15 193.05 185.598 193.302C185.058 193.542 184.434 193.662 183.726 193.662Z" fill="#696969"/>
<defs>
<clipPath id="clip0_225_5525">
<rect width="80" height="80" fill="white" transform="translate(76 31.5)"/>
</clipPath>
</defs>
</svg>
