<svg width="232" height="232" viewBox="0 0 232 232" fill="none" xmlns="http://www.w3.org/2000/svg">
<rect width="232" height="232" rx="8" fill="#FAF1FF"/>
<g clip-path="url(#clip0_225_5526)">
<path d="M80.6332 92.3428C80.0619 92.3428 79.5938 92.8066 79.5938 93.373V110.47C79.5938 111.037 80.0619 111.5 80.6332 111.5H97.8884C98.4603 111.5 98.9278 111.037 98.9278 110.47V92.3428H80.6332Z" fill="#FB8276"/>
<path d="M114.341 85.3432C114.341 82.5765 115.146 80.0588 116.656 77.9836C114.114 79.1769 111.272 79.5455 108.543 79.0914V86.0384C110.472 86.249 112.425 86.1892 114.341 85.8614V85.3432Z" fill="#A2F9F9"/>
<path d="M137.961 74.7177C135.824 75.7327 133.446 76.296 130.965 76.296H126.123C123.707 76.296 121.422 75.8743 119.376 75.079C116.201 77.3586 114.184 80.9011 114.184 85.3432V87.5417L114.829 87.6064L114.748 87.3714L114.628 87.0547C114.517 86.7617 114.527 86.4425 114.656 86.1574C114.785 85.8718 115.018 85.6533 115.311 85.5422L115.65 85.4147C115.783 85.364 115.923 85.3384 116.064 85.3384C116.549 85.3384 116.991 85.6435 117.162 86.0976L118.454 89.4759L118.466 89.4918C118.607 89.6938 118.733 89.9093 118.838 90.132L118.869 90.1992L118.941 90.2169C119.976 90.4787 121.043 90.6112 122.114 90.6112C127.049 90.6112 131.639 87.7767 133.808 83.3901C134.337 82.319 135.412 81.6543 136.614 81.6543C137.087 81.6543 137.544 81.7587 137.972 81.9656C138.718 82.3269 139.277 82.9549 139.545 83.735C139.812 84.5119 139.757 85.3469 139.392 86.086C137.779 89.3514 135.274 92.0766 132.15 93.9669C129.11 95.8071 125.626 96.78 122.078 96.78C122.078 96.78 122.078 96.78 122.077 96.78C120.738 96.78 119.407 96.6372 118.104 96.3613V102.683H120.864L120.88 102.544C121.067 100.908 122.464 99.6743 124.127 99.6743C125.351 99.6743 126.464 100.344 127.03 101.422L127.168 101.685L127.306 101.422C127.872 100.344 128.984 99.6743 130.209 99.6743C131.872 99.6743 133.268 100.908 133.456 102.544L133.472 102.683H143.585V85.1821C143.585 80.541 141.384 76.9351 137.961 74.7177Z" fill="#48E5E1"/>
<path d="M114.829 87.6064L114.748 87.3714L114.628 87.0547C114.517 86.7617 114.527 86.4425 114.656 86.1574C114.785 85.8718 115.018 85.6533 115.311 85.5422L115.65 85.4147C115.783 85.364 115.923 85.3384 116.064 85.3384C116.549 85.3384 116.991 85.6435 117.162 86.0976L118.454 89.4759L118.466 89.4918C118.607 89.6938 118.733 89.9093 118.838 90.1321L118.869 90.1992L118.941 90.2169C119.004 90.2334 119.068 90.2468 119.13 90.2621V85.3432C119.13 81.4986 120.643 78.3279 123.108 76.0665C121.798 75.8663 120.548 75.5343 119.376 75.079C116.201 77.3586 114.184 80.9017 114.184 85.3432V87.5417L114.829 87.6064Z" fill="#41CECA"/>
<path d="M126.939 102.913C126.939 102.418 127.055 101.95 127.256 101.53C126.721 100.344 125.522 99.5181 124.127 99.5181C122.367 99.5181 120.919 100.834 120.725 102.526H118.104V110.47C118.104 111.037 117.636 111.5 117.064 111.5H124.361V111.488C125.656 111.402 126.751 110.601 127.255 109.482C127.054 109.063 126.939 108.596 126.939 108.105V102.913Z" fill="#A2F9F9"/>
<path d="M129.976 111.488V111.5H143.863C146.364 111.5 148.391 109.491 148.391 107.013C148.391 104.535 146.364 102.526 143.863 102.526H133.612C133.418 100.834 131.97 99.5181 130.21 99.5181C128.318 99.5181 126.783 101.038 126.783 102.913V108.105C126.783 109.902 128.193 111.369 129.976 111.488Z" fill="#A2F9F9"/>
<path d="M131.687 108.105V102.913C131.687 101.992 132.059 101.157 132.66 100.545C132.038 99.913 131.172 99.5181 130.21 99.5181C128.318 99.5181 126.783 101.038 126.783 102.913V108.105C126.783 109.902 128.193 111.369 129.976 111.488V111.5H134.88V111.488C133.097 111.369 131.687 109.902 131.687 108.105Z" fill="#91E0E0"/>
<path d="M130.964 76.296H126.122C125.366 76.296 124.625 76.2515 123.898 76.1709V76.3076C123.898 78.4506 125.652 80.1882 127.814 80.1882C129.978 80.1882 131.731 78.4506 131.731 76.3076V76.2765C131.476 76.2887 131.221 76.296 130.964 76.296Z" fill="#FFC987"/>
<path d="M147.458 51.3511C147.436 51.3511 147.414 51.3529 147.393 51.3529V49.0635C147.393 48.8889 147.389 48.715 147.383 48.5416C147.034 48.8187 146.638 49.0391 146.196 49.1959C145.217 49.542 144.261 49.7172 143.356 49.7172C143.356 49.7172 143.356 49.7172 143.355 49.7172C138.436 49.7172 136.21 44.5408 136.188 44.4883L136.04 44.1355L135.898 44.4907C135.872 44.5579 133.173 51.2027 128.667 51.2027C128.173 51.2027 127.666 51.1216 127.162 50.9629C125.026 50.2897 124.319 48.6643 125.063 46.1326L124.778 46.0081C123.394 48.3194 121.269 51.0752 119.014 51.0752C118.75 51.0752 118.487 51.0373 118.231 50.9623C117.391 50.7169 116.79 50.2274 116.445 49.5072C115.881 48.3335 116.017 46.5476 116.818 44.6079L116.533 44.481C114.667 48.3951 112.68 50.2976 110.46 50.2976C110.21 50.2976 109.955 50.272 109.697 50.2213V60.0852C109.697 70.7138 117.051 76.4523 126.123 76.4523H130.965C138.583 76.4523 144.986 71.2863 146.846 64.2801C147.046 64.3106 147.251 64.3283 147.458 64.3283C150.272 64.3283 152.552 61.4231 152.552 57.8397C152.552 54.2563 150.272 51.3511 147.458 51.3511Z" fill="#FFD5B3"/>
<path d="M114.625 60.0852V49.0635C114.625 48.5843 114.647 48.1101 114.687 47.6414C113.362 49.4224 111.965 50.2976 110.46 50.2976C110.21 50.2976 109.955 50.272 109.697 50.2213V60.0852C109.697 70.7138 117.051 76.4523 126.124 76.4523H130.966C130.975 76.4523 130.983 76.4517 130.992 76.4517C121.948 76.4273 114.625 70.6912 114.625 60.0852Z" fill="#E5BFA1"/>
<path d="M134.672 59.8588C134.024 59.8588 133.5 59.3345 133.5 58.6869V56.7063C133.5 56.0593 134.024 55.5344 134.672 55.5344C135.319 55.5344 135.844 56.0593 135.844 56.7063V58.6869C135.844 59.3345 135.319 59.8588 134.672 59.8588Z" fill="#775436"/>
<path d="M116.834 59.8588C116.187 59.8588 115.662 59.3345 115.662 58.6869V56.7063C115.662 56.0593 116.187 55.5344 116.834 55.5344C117.482 55.5344 118.006 56.0593 118.006 56.7063V58.6869C118.006 59.3345 117.482 59.8588 116.834 59.8588Z" fill="#775436"/>
<path d="M126.536 61.5964H125.753C124.676 61.5964 123.799 60.7096 123.799 59.6201V58.0979C123.799 57.4503 124.323 56.926 124.971 56.926C125.618 56.926 126.143 57.4503 126.143 58.0979V59.2527H126.536C127.183 59.2527 127.708 59.7776 127.708 60.4246C127.708 61.0721 127.183 61.5964 126.536 61.5964Z" fill="#775436"/>
<path d="M126.026 71.2576C122.978 71.2576 120.498 68.8003 120.498 65.7803C120.498 65.2114 120.964 64.75 121.537 64.75H130.515C131.089 64.75 131.554 65.2114 131.554 65.7803C131.554 68.8009 129.074 71.2576 126.026 71.2576Z" fill="#FB8276"/>
<path d="M125.46 65.7803C125.46 65.2114 125.925 64.7506 126.499 64.7506H121.537C120.963 64.7506 120.498 65.2114 120.498 65.7803C120.498 68.8009 122.978 71.2576 126.026 71.2576C126.918 71.2576 127.76 71.0464 128.506 70.6734C126.702 69.7707 125.46 67.9171 125.46 65.7803Z" fill="#E1756A"/>
<path d="M130.643 31.5H125.406C115.592 31.5 107.637 39.4266 107.637 49.2044V49.4693C107.964 49.7202 108.348 49.9399 108.801 50.1187C112.567 51.6117 115.111 47.8232 116.672 44.5487C115.51 47.3642 115.548 50.3421 118.185 51.1124C120.729 51.8552 123.172 48.9902 124.911 46.0886C124.315 48.1174 124.446 50.2713 127.114 51.1124C132.726 52.8818 136.042 44.5487 136.042 44.5487C136.042 44.5487 139.103 51.8704 146.246 49.343C147.171 49.0152 147.855 48.4537 148.347 47.7262C147.592 38.6405 139.957 31.5 130.643 31.5Z" fill="#F7931E"/>
<path d="M112.545 49.4693V49.2044C112.545 39.4266 120.5 31.5 130.314 31.5H125.406C115.592 31.5 107.637 39.4266 107.637 49.2044V49.4693C107.964 49.7202 108.348 49.9399 108.801 50.1187C110.352 50.7334 111.694 50.4514 112.847 49.6799C112.742 49.6121 112.64 49.5426 112.545 49.4693Z" fill="#DE841B"/>
<path d="M104.644 73.3419V72.0101C104.644 70.7589 103.62 69.7445 102.357 69.7445H95.705C94.4415 69.7445 93.418 70.7589 93.418 72.0101V73.3419H104.644Z" fill="#89C947"/>
<path d="M98.4076 73.3419V72.0101C98.4076 70.7589 99.4311 69.7445 100.694 69.7445H95.705C94.4421 69.7445 93.418 70.7589 93.418 72.0101V73.3419H98.4076Z" fill="#7BB540"/>
<path d="M108.699 91.3131C108.699 91.8795 108.231 92.3427 107.66 92.3427H90.4047C89.8328 92.3427 89.3652 91.8795 89.3652 91.3131V74.2159C89.3652 73.6495 89.8328 73.1857 90.4047 73.1857H107.66C108.231 73.1857 108.699 73.6495 108.699 74.2159V91.3131Z" fill="#D5E962"/>
<path d="M101.76 87.485C101.666 87.485 101.572 87.463 101.485 87.4172L99.0325 86.1471L96.5801 87.4172C96.4935 87.463 96.3988 87.485 96.3049 87.485C96.1822 87.485 96.0607 87.4477 95.957 87.3733C95.7745 87.2433 95.6835 87.0217 95.722 86.8026L96.1901 84.1116L94.2059 82.2054C94.0447 82.051 93.9867 81.8185 94.0563 81.6079C94.1259 81.3967 94.3108 81.2423 94.5336 81.21L97.2759 80.8181L98.5021 78.3694C98.6016 78.1704 98.8079 78.0447 99.0325 78.0447C99.2577 78.0447 99.4634 78.1704 99.5635 78.3694L100.79 80.8181L103.531 81.21C103.754 81.2423 103.939 81.3967 104.009 81.6079C104.079 81.8191 104.021 82.051 103.859 82.2054L101.876 84.1116L102.344 86.8026C102.382 87.0217 102.291 87.2433 102.109 87.3733C102.006 87.4477 101.883 87.485 101.76 87.485Z" fill="#89C947"/>
<path d="M83.4164 110.47V93.3724C83.4164 92.806 83.8839 92.3428 84.4558 92.3428H80.6332C80.0619 92.3428 79.5938 92.806 79.5938 93.3724V110.47C79.5938 111.037 80.0619 111.5 80.6332 111.5H84.4558C83.8839 111.5 83.4164 111.037 83.4164 110.47Z" fill="#E1756A"/>
<path d="M89.2602 106.346C89.1308 106.346 89.0069 106.296 88.9154 106.206L84.5941 101.98C83.5468 100.955 83.5468 99.2898 84.5941 98.2656C85.1013 97.77 85.7758 97.4966 86.4929 97.4966C87.2101 97.4966 87.8845 97.77 88.3917 98.2662L89.2602 99.1158L90.1294 98.2662C90.6366 97.77 91.311 97.4966 92.0282 97.4966C92.7453 97.4966 93.4198 97.77 93.927 98.2656C94.9743 99.2898 94.9743 100.956 93.927 101.98L89.6057 106.206C89.5141 106.295 89.3902 106.346 89.2602 106.346Z" fill="#EF5050"/>
<path d="M116.407 95.9231L116.359 95.9078L116.311 95.9243C115.855 96.0775 115.38 96.155 114.899 96.155C114.75 96.155 114.598 96.1477 114.45 96.1324L110.449 95.7302C109.859 95.6704 109.427 95.1418 109.486 94.5516L109.52 94.2178C109.575 93.6654 110.035 93.2491 110.589 93.2491C110.625 93.2491 110.662 93.251 110.698 93.2546L113.743 93.561L113.796 93.0349L110.114 92.6644C109.859 92.6388 109.627 92.5253 109.45 92.3428H98.9277V110.47C98.9277 111.037 99.3953 111.5 99.9672 111.5H117.222C117.794 111.5 118.261 111.037 118.261 110.47V96.3943C117.637 96.2673 117.017 96.1123 116.407 95.9231Z" fill="#FFC502"/>
<path d="M103.225 110.47V92.3428H98.9277V110.47C98.9277 111.037 99.3953 111.5 99.9672 111.5H104.264C103.692 111.5 103.225 111.037 103.225 110.47Z" fill="#E5B102"/>
<path d="M107.089 106.291C106.517 106.291 105.815 105.89 105.53 105.399L104.023 102.813C103.737 102.323 103.737 101.52 104.023 101.029L105.53 98.4438C105.815 97.9531 106.517 97.5521 107.089 97.5521H110.101C110.673 97.5521 111.375 97.9531 111.661 98.4438L113.167 101.029C113.453 101.52 113.453 102.323 113.167 102.813L111.661 105.399C111.375 105.89 110.673 106.291 110.101 106.291H107.089Z" fill="#FCDB67"/>
<path d="M93.4936 91.3131V74.2159C93.4936 73.6495 93.9612 73.1857 94.5331 73.1857H90.4047C89.8328 73.1857 89.3652 73.6495 89.3652 74.2159V91.3131C89.3652 91.8795 89.8328 92.3427 90.4047 92.3427H94.5331C93.9612 92.3427 93.4936 91.8795 93.4936 91.3131Z" fill="#BFD158"/>
<path d="M147.355 61.5866C146.938 61.5866 146.535 61.3638 146.323 60.9713C146.015 60.4019 146.227 59.6914 146.796 59.3832C148.123 58.666 147.351 56.8374 147.318 56.7599C147.061 56.166 147.334 55.4763 147.928 55.2194C148.522 54.9624 149.212 55.2359 149.469 55.8297C149.51 55.9243 149.871 56.7874 149.902 57.8567C149.95 59.4516 149.242 60.726 147.91 61.4456C147.734 61.5414 147.543 61.5866 147.355 61.5866Z" fill="#FFB98A"/>
<path d="M138.04 81.8246C136.42 81.0422 134.463 81.7117 133.668 83.3206C130.916 88.887 124.586 91.5841 118.776 90.0155C119.138 90.7296 119.296 91.5316 119.216 92.33C119.037 94.1055 117.775 95.5252 116.104 95.9915C125.126 98.9254 135.228 94.8629 139.532 86.1551C140.328 84.5462 139.659 82.6077 138.04 81.8246Z" fill="#A2F9F9"/>
<path d="M109.331 94.5364L109.365 94.2019C109.433 93.525 110.037 93.0312 110.715 93.099L113.604 93.3895L113.626 93.1747L110.099 92.8195C109.422 92.7517 108.928 92.1475 108.997 91.4706L109.03 91.1361C109.098 90.4592 109.702 89.9655 110.38 90.0332L113.906 90.3884L113.928 90.173L111.038 89.8824C110.361 89.8147 109.867 89.2105 109.935 88.533L109.969 88.1985C110.037 87.5216 110.641 87.0278 111.318 87.0956L114.593 87.4258L114.601 87.4264L114.482 87.1096C114.222 86.4224 114.569 85.6552 115.256 85.3958L115.595 85.2676C116.282 85.0082 117.049 85.3549 117.309 86.0421L118.594 89.4015C119.179 90.2346 119.479 91.2643 119.371 92.3452C119.127 94.7726 116.916 96.5377 114.434 96.2875L110.434 95.8852C109.757 95.8175 109.263 95.2132 109.331 94.5364Z" fill="#FFD5B3"/>
</g>
<path d="M65.64 131.284C66.872 131.284 67.88 131.471 68.664 131.844C69.4667 132.199 70.176 132.619 70.792 133.104C71.1653 133.384 71.4453 133.421 71.632 133.216C71.8373 132.992 71.9773 132.479 72.052 131.676H72.696C72.6587 132.385 72.6307 133.244 72.612 134.252C72.5933 135.241 72.584 136.567 72.584 138.228H71.94C71.8093 137.407 71.6787 136.735 71.548 136.212C71.436 135.689 71.2773 135.241 71.072 134.868C70.8853 134.495 70.624 134.131 70.288 133.776C69.7467 133.104 69.084 132.619 68.3 132.32C67.516 132.021 66.6853 131.872 65.808 131.872C64.856 131.872 64.016 132.115 63.288 132.6C62.56 133.067 61.944 133.739 61.44 134.616C60.9547 135.493 60.5813 136.529 60.32 137.724C60.0587 138.919 59.928 140.225 59.928 141.644C59.928 143.1 60.068 144.425 60.348 145.62C60.628 146.796 61.0293 147.813 61.552 148.672C62.0933 149.512 62.7373 150.165 63.484 150.632C64.2493 151.08 65.0987 151.304 66.032 151.304C66.7973 151.304 67.5907 151.155 68.412 150.856C69.2333 150.539 69.8867 150.063 70.372 149.428C70.8947 148.868 71.2493 148.243 71.436 147.552C71.6413 146.843 71.8093 145.881 71.94 144.668H72.584C72.584 146.385 72.5933 147.776 72.612 148.84C72.6307 149.885 72.6587 150.772 72.696 151.5H72.052C71.9773 150.697 71.8467 150.193 71.66 149.988C71.492 149.783 71.2027 149.811 70.792 150.072C70.1013 150.557 69.364 150.987 68.58 151.36C67.8147 151.715 66.8253 151.892 65.612 151.892C63.764 151.892 62.1493 151.491 60.768 150.688C59.3867 149.885 58.3133 148.728 57.548 147.216C56.7827 145.704 56.4 143.884 56.4 141.756C56.4 139.665 56.792 137.836 57.576 136.268C58.3787 134.7 59.4707 133.477 60.852 132.6C62.2333 131.723 63.8293 131.284 65.64 131.284ZM80.0414 129.576V139.768C80.5081 138.611 81.1614 137.808 82.0014 137.36C82.8601 136.893 83.7654 136.66 84.7174 136.66C85.4641 136.66 86.0707 136.763 86.5374 136.968C87.0227 137.155 87.4241 137.416 87.7414 137.752C88.0774 138.107 88.3201 138.564 88.4694 139.124C88.6187 139.684 88.6934 140.44 88.6934 141.392V148.896C88.6934 149.68 88.8427 150.212 89.1414 150.492C89.4587 150.772 89.9814 150.912 90.7094 150.912V151.5C90.3734 151.481 89.8694 151.463 89.1974 151.444C88.5254 151.407 87.8721 151.388 87.2374 151.388C86.5841 151.388 85.9401 151.407 85.3054 151.444C84.6894 151.463 84.2321 151.481 83.9334 151.5V150.912C84.5681 150.912 85.0161 150.772 85.2774 150.492C85.5387 150.212 85.6694 149.68 85.6694 148.896V140.608C85.6694 140.067 85.6227 139.581 85.5294 139.152C85.4361 138.704 85.2307 138.349 84.9134 138.088C84.6147 137.808 84.1667 137.668 83.5694 137.668C82.8974 137.668 82.2907 137.864 81.7494 138.256C81.2267 138.629 80.8067 139.152 80.4894 139.824C80.1907 140.496 80.0414 141.261 80.0414 142.12V148.896C80.0414 149.68 80.1721 150.212 80.4334 150.492C80.6947 150.772 81.1427 150.912 81.7774 150.912V151.5C81.4601 151.481 80.9934 151.463 80.3774 151.444C79.7801 151.407 79.1641 151.388 78.5294 151.388C77.8761 151.388 77.2041 151.407 76.5134 151.444C75.8414 151.463 75.3374 151.481 75.0014 151.5V150.912C75.7294 150.912 76.2427 150.772 76.5414 150.492C76.8587 150.212 77.0174 149.68 77.0174 148.896V132.936C77.0174 132.096 76.8681 131.48 76.5694 131.088C76.2894 130.677 75.7667 130.472 75.0014 130.472V129.884C75.5987 129.94 76.1774 129.968 76.7374 129.968C77.3534 129.968 77.9414 129.94 78.5014 129.884C79.0614 129.809 79.5747 129.707 80.0414 129.576ZM95.2097 129.996C95.7884 129.996 96.2738 130.183 96.6658 130.556C97.0578 130.911 97.2538 131.359 97.2538 131.9C97.2538 132.441 97.0578 132.899 96.6658 133.272C96.2738 133.627 95.7884 133.804 95.2097 133.804C94.6311 133.804 94.1458 133.627 93.7538 133.272C93.3618 132.899 93.1658 132.441 93.1658 131.9C93.1658 131.359 93.3618 130.911 93.7538 130.556C94.1458 130.183 94.6311 129.996 95.2097 129.996ZM96.8898 136.744V148.896C96.8898 149.68 97.0391 150.212 97.3378 150.492C97.6551 150.772 98.1778 150.912 98.9058 150.912V151.5C98.5884 151.481 98.0938 151.463 97.4218 151.444C96.7684 151.407 96.0964 151.388 95.4058 151.388C94.7524 151.388 94.0804 151.407 93.3898 151.444C92.6991 151.463 92.1858 151.481 91.8498 151.5V150.912C92.5777 150.912 93.0911 150.772 93.3898 150.492C93.7071 150.212 93.8658 149.68 93.8658 148.896V140.104C93.8658 139.264 93.7258 138.648 93.4458 138.256C93.1658 137.845 92.6338 137.64 91.8498 137.64V137.052C92.4471 137.108 93.0258 137.136 93.5858 137.136C94.2204 137.136 94.8084 137.108 95.3498 137.052C95.9098 136.977 96.4231 136.875 96.8898 136.744ZM105.116 129.548V148.896C105.116 149.68 105.266 150.212 105.564 150.492C105.882 150.772 106.404 150.912 107.132 150.912V151.5C106.815 151.481 106.32 151.463 105.648 151.444C104.976 151.407 104.304 151.388 103.632 151.388C102.96 151.388 102.279 151.407 101.588 151.444C100.916 151.463 100.412 151.481 100.076 151.5V150.912C100.804 150.912 101.318 150.772 101.616 150.492C101.934 150.212 102.092 149.68 102.092 148.896V132.908C102.092 132.068 101.952 131.452 101.672 131.06C101.392 130.649 100.86 130.444 100.076 130.444V129.856C100.674 129.912 101.252 129.94 101.812 129.94C102.428 129.94 103.016 129.912 103.576 129.856C104.136 129.781 104.65 129.679 105.116 129.548ZM121.305 129.548V148.448C121.305 149.288 121.445 149.913 121.725 150.324C122.024 150.716 122.556 150.912 123.321 150.912V151.5C122.743 151.444 122.164 151.416 121.585 151.416C120.951 151.416 120.353 151.444 119.793 151.5C119.252 151.556 118.748 151.659 118.281 151.808V132.908C118.281 132.068 118.132 131.452 117.833 131.06C117.553 130.649 117.031 130.444 116.265 130.444V129.856C116.863 129.912 117.441 129.94 118.001 129.94C118.617 129.94 119.205 129.912 119.765 129.856C120.325 129.781 120.839 129.679 121.305 129.548ZM115.005 136.66C115.827 136.66 116.573 136.837 117.245 137.192C117.936 137.547 118.421 138.144 118.701 138.984L118.365 139.292C118.104 138.62 117.721 138.135 117.217 137.836C116.713 137.519 116.144 137.36 115.509 137.36C114.445 137.36 113.577 137.929 112.905 139.068C112.233 140.188 111.907 141.924 111.925 144.276C111.925 145.825 112.056 147.095 112.317 148.084C112.579 149.055 112.961 149.773 113.465 150.24C113.988 150.707 114.613 150.94 115.341 150.94C116.069 150.94 116.723 150.632 117.301 150.016C117.899 149.4 118.253 148.513 118.365 147.356L118.617 147.944C118.431 149.213 117.983 150.193 117.273 150.884C116.564 151.556 115.612 151.892 114.417 151.892C113.279 151.892 112.271 151.621 111.393 151.08C110.535 150.52 109.872 149.68 109.405 148.56C108.939 147.421 108.705 145.993 108.705 144.276C108.705 142.577 108.985 141.168 109.545 140.048C110.124 138.909 110.889 138.06 111.841 137.5C112.793 136.94 113.848 136.66 115.005 136.66ZM133.651 136.66C134.192 136.66 134.65 136.772 135.023 136.996C135.415 137.22 135.704 137.509 135.891 137.864C136.096 138.2 136.199 138.583 136.199 139.012C136.199 139.553 136.031 140.02 135.695 140.412C135.378 140.785 134.948 140.972 134.407 140.972C133.94 140.972 133.539 140.832 133.203 140.552C132.886 140.272 132.727 139.889 132.727 139.404C132.727 138.993 132.83 138.648 133.035 138.368C133.259 138.069 133.511 137.836 133.791 137.668C133.604 137.519 133.38 137.453 133.119 137.472C132.615 137.491 132.148 137.659 131.719 137.976C131.29 138.275 130.926 138.667 130.627 139.152C130.328 139.619 130.095 140.123 129.927 140.664C129.759 141.205 129.675 141.709 129.675 142.176V148.616C129.675 149.531 129.927 150.147 130.431 150.464C130.935 150.763 131.635 150.912 132.531 150.912V151.5C132.102 151.481 131.486 151.463 130.683 151.444C129.899 151.407 129.068 151.388 128.191 151.388C127.519 151.388 126.847 151.407 126.175 151.444C125.503 151.463 124.99 151.481 124.635 151.5V150.912C125.363 150.912 125.876 150.772 126.175 150.492C126.492 150.212 126.651 149.68 126.651 148.896V140.104C126.651 139.264 126.511 138.648 126.231 138.256C125.951 137.845 125.419 137.64 124.635 137.64V137.052C125.232 137.108 125.811 137.136 126.371 137.136C127.006 137.136 127.594 137.108 128.135 137.052C128.695 136.977 129.208 136.875 129.675 136.744V139.964C129.899 139.423 130.198 138.9 130.571 138.396C130.944 137.892 131.392 137.481 131.915 137.164C132.438 136.828 133.016 136.66 133.651 136.66ZM143.747 136.66C145.39 136.66 146.678 137.155 147.611 138.144C148.544 139.133 149.011 140.701 149.011 142.848H139.351L139.295 142.316H146.043C146.062 141.401 145.987 140.561 145.819 139.796C145.651 139.012 145.39 138.387 145.035 137.92C144.68 137.453 144.214 137.22 143.635 137.22C142.832 137.22 142.132 137.649 141.535 138.508C140.956 139.348 140.602 140.701 140.471 142.568L140.555 142.708C140.536 142.969 140.518 143.259 140.499 143.576C140.48 143.875 140.471 144.173 140.471 144.472C140.471 145.76 140.667 146.843 141.059 147.72C141.451 148.597 141.964 149.26 142.599 149.708C143.234 150.137 143.878 150.352 144.531 150.352C145.035 150.352 145.52 150.277 145.987 150.128C146.472 149.96 146.93 149.689 147.359 149.316C147.788 148.924 148.171 148.392 148.507 147.72L149.067 147.944C148.843 148.579 148.498 149.204 148.031 149.82C147.564 150.436 146.967 150.94 146.239 151.332C145.511 151.705 144.662 151.892 143.691 151.892C142.384 151.892 141.246 151.603 140.275 151.024C139.304 150.427 138.558 149.577 138.035 148.476C137.512 147.375 137.251 146.068 137.251 144.556C137.251 142.895 137.522 141.476 138.063 140.3C138.604 139.124 139.36 138.228 140.331 137.612C141.32 136.977 142.459 136.66 143.747 136.66ZM160.629 136.66C161.376 136.66 161.982 136.763 162.449 136.968C162.934 137.155 163.336 137.416 163.653 137.752C163.989 138.107 164.222 138.564 164.353 139.124C164.502 139.684 164.577 140.44 164.577 141.392V148.896C164.577 149.68 164.726 150.212 165.025 150.492C165.342 150.772 165.865 150.912 166.593 150.912V151.5C166.276 151.481 165.781 151.463 165.109 151.444C164.437 151.407 163.774 151.388 163.121 151.388C162.486 151.388 161.852 151.407 161.217 151.444C160.601 151.463 160.134 151.481 159.817 151.5V150.912C160.452 150.912 160.9 150.772 161.161 150.492C161.422 150.212 161.553 149.68 161.553 148.896V140.608C161.553 140.067 161.506 139.581 161.413 139.152C161.32 138.704 161.124 138.349 160.825 138.088C160.526 137.808 160.078 137.668 159.481 137.668C158.79 137.668 158.174 137.864 157.633 138.256C157.11 138.648 156.69 139.189 156.373 139.88C156.074 140.552 155.925 141.308 155.925 142.148V148.896C155.925 149.68 156.056 150.212 156.317 150.492C156.597 150.772 157.045 150.912 157.661 150.912V151.5C157.362 151.481 156.905 151.463 156.289 151.444C155.692 151.407 155.066 151.388 154.413 151.388C153.778 151.388 153.116 151.407 152.425 151.444C151.734 151.463 151.221 151.481 150.885 151.5V150.912C151.613 150.912 152.126 150.772 152.425 150.492C152.742 150.212 152.901 149.68 152.901 148.896V140.104C152.901 139.264 152.761 138.648 152.481 138.256C152.201 137.845 151.669 137.64 150.885 137.64V137.052C151.482 137.108 152.061 137.136 152.621 137.136C153.256 137.136 153.844 137.108 154.385 137.052C154.945 136.977 155.458 136.875 155.925 136.744V139.796C156.41 138.639 157.073 137.827 157.913 137.36C158.772 136.893 159.677 136.66 160.629 136.66Z" fill="black"/>
<path d="M52.168 187.038C52.624 187.11 53.038 187.296 53.41 187.596C53.794 187.896 54.094 188.268 54.31 188.712C54.538 189.156 54.652 189.63 54.652 190.134C54.652 190.77 54.49 191.346 54.166 191.862C53.842 192.366 53.368 192.768 52.744 193.068C52.132 193.356 51.406 193.5 50.566 193.5H45.886V180.954H50.386C51.238 180.954 51.964 181.098 52.564 181.386C53.164 181.662 53.614 182.04 53.914 182.52C54.214 183 54.364 183.54 54.364 184.14C54.364 184.884 54.16 185.502 53.752 185.994C53.356 186.474 52.828 186.822 52.168 187.038ZM47.524 186.372H50.278C51.046 186.372 51.64 186.192 52.06 185.832C52.48 185.472 52.69 184.974 52.69 184.338C52.69 183.702 52.48 183.204 52.06 182.844C51.64 182.484 51.034 182.304 50.242 182.304H47.524V186.372ZM50.422 192.15C51.238 192.15 51.874 191.958 52.33 191.574C52.786 191.19 53.014 190.656 53.014 189.972C53.014 189.276 52.774 188.73 52.294 188.334C51.814 187.926 51.172 187.722 50.368 187.722H47.524V192.15H50.422ZM65.9251 188.19C65.9251 188.502 65.9071 188.832 65.8711 189.18H57.9871C58.0471 190.152 58.3771 190.914 58.9771 191.466C59.5891 192.006 60.3271 192.276 61.1911 192.276C61.8991 192.276 62.4871 192.114 62.9551 191.79C63.4351 191.454 63.7711 191.01 63.9631 190.458H65.7271C65.4631 191.406 64.9351 192.18 64.1431 192.78C63.3511 193.368 62.3671 193.662 61.1911 193.662C60.2551 193.662 59.4151 193.452 58.6711 193.032C57.9391 192.612 57.3631 192.018 56.9431 191.25C56.5231 190.47 56.3131 189.57 56.3131 188.55C56.3131 187.53 56.5171 186.636 56.9251 185.868C57.3331 185.1 57.9031 184.512 58.6351 184.104C59.3791 183.684 60.2311 183.474 61.1911 183.474C62.1271 183.474 62.9551 183.678 63.6751 184.086C64.3951 184.494 64.9471 185.058 65.3311 185.778C65.7271 186.486 65.9251 187.29 65.9251 188.19ZM64.2331 187.848C64.2331 187.224 64.0951 186.69 63.8191 186.246C63.5431 185.79 63.1651 185.448 62.6851 185.22C62.2171 184.98 61.6951 184.86 61.1191 184.86C60.2911 184.86 59.5831 185.124 58.9951 185.652C58.4191 186.18 58.0891 186.912 58.0051 187.848H64.2331ZM71.5792 193.662C70.8232 193.662 70.1452 193.536 69.5452 193.284C68.9452 193.02 68.4712 192.66 68.1232 192.204C67.7752 191.736 67.5832 191.202 67.5472 190.602H69.2392C69.2872 191.094 69.5152 191.496 69.9232 191.808C70.3432 192.12 70.8892 192.276 71.5612 192.276C72.1852 192.276 72.6772 192.138 73.0372 191.862C73.3972 191.586 73.5772 191.238 73.5772 190.818C73.5772 190.386 73.3852 190.068 73.0012 189.864C72.6172 189.648 72.0232 189.438 71.2192 189.234C70.4872 189.042 69.8872 188.85 69.4192 188.658C68.9632 188.454 68.5672 188.16 68.2312 187.776C67.9072 187.38 67.7452 186.864 67.7452 186.228C67.7452 185.724 67.8952 185.262 68.1952 184.842C68.4952 184.422 68.9212 184.092 69.4732 183.852C70.0252 183.6 70.6552 183.474 71.3632 183.474C72.4552 183.474 73.3372 183.75 74.0092 184.302C74.6812 184.854 75.0412 185.61 75.0892 186.57H73.4512C73.4152 186.054 73.2052 185.64 72.8212 185.328C72.4492 185.016 71.9452 184.86 71.3092 184.86C70.7212 184.86 70.2532 184.986 69.9052 185.238C69.5572 185.49 69.3832 185.82 69.3832 186.228C69.3832 186.552 69.4852 186.822 69.6892 187.038C69.9052 187.242 70.1692 187.41 70.4812 187.542C70.8052 187.662 71.2492 187.8 71.8132 187.956C72.5212 188.148 73.0972 188.34 73.5412 188.532C73.9852 188.712 74.3632 188.988 74.6752 189.36C74.9992 189.732 75.1672 190.218 75.1792 190.818C75.1792 191.358 75.0292 191.844 74.7292 192.276C74.4292 192.708 74.0032 193.05 73.4512 193.302C72.9112 193.542 72.2872 193.662 71.5792 193.662ZM79.4895 184.986V190.8C79.4895 191.28 79.5915 191.622 79.7955 191.826C79.9995 192.018 80.3535 192.114 80.8575 192.114H82.0635V193.5H80.5875C79.6755 193.5 78.9915 193.29 78.5355 192.87C78.0795 192.45 77.8515 191.76 77.8515 190.8V184.986H76.5735V183.636H77.8515V181.152H79.4895V183.636H82.0635V184.986H79.4895ZM88.2349 187.218C88.2349 185.994 88.5109 184.896 89.0629 183.924C89.6149 182.94 90.3649 182.172 91.3129 181.62C92.2729 181.068 93.3349 180.792 94.4989 180.792C95.8669 180.792 97.0609 181.122 98.0809 181.782C99.1009 182.442 99.8449 183.378 100.313 184.59H98.3509C98.0029 183.834 97.4989 183.252 96.8389 182.844C96.1909 182.436 95.4109 182.232 94.4989 182.232C93.6229 182.232 92.8369 182.436 92.1409 182.844C91.4449 183.252 90.8989 183.834 90.5029 184.59C90.1069 185.334 89.9089 186.21 89.9089 187.218C89.9089 188.214 90.1069 189.09 90.5029 189.846C90.8989 190.59 91.4449 191.166 92.1409 191.574C92.8369 191.982 93.6229 192.186 94.4989 192.186C95.4109 192.186 96.1909 191.988 96.8389 191.592C97.4989 191.184 98.0029 190.602 98.3509 189.846H100.313C99.8449 191.046 99.1009 191.976 98.0809 192.636C97.0609 193.284 95.8669 193.608 94.4989 193.608C93.3349 193.608 92.2729 193.338 91.3129 192.798C90.3649 192.246 89.6149 191.484 89.0629 190.512C88.5109 189.54 88.2349 188.442 88.2349 187.218ZM107.053 193.662C106.129 193.662 105.289 193.452 104.533 193.032C103.789 192.612 103.201 192.018 102.769 191.25C102.349 190.47 102.139 189.57 102.139 188.55C102.139 187.542 102.355 186.654 102.787 185.886C103.231 185.106 103.831 184.512 104.587 184.104C105.343 183.684 106.189 183.474 107.125 183.474C108.061 183.474 108.907 183.684 109.663 184.104C110.419 184.512 111.013 185.1 111.445 185.868C111.889 186.636 112.111 187.53 112.111 188.55C112.111 189.57 111.883 190.47 111.427 191.25C110.983 192.018 110.377 192.612 109.609 193.032C108.841 193.452 107.989 193.662 107.053 193.662ZM107.053 192.222C107.641 192.222 108.193 192.084 108.709 191.808C109.225 191.532 109.639 191.118 109.951 190.566C110.275 190.014 110.437 189.342 110.437 188.55C110.437 187.758 110.281 187.086 109.969 186.534C109.657 185.982 109.249 185.574 108.745 185.31C108.241 185.034 107.695 184.896 107.107 184.896C106.507 184.896 105.955 185.034 105.451 185.31C104.959 185.574 104.563 185.982 104.263 186.534C103.963 187.086 103.813 187.758 103.813 188.55C103.813 189.354 103.957 190.032 104.245 190.584C104.545 191.136 104.941 191.55 105.433 191.826C105.925 192.09 106.465 192.222 107.053 192.222ZM115.903 180.18V193.5H114.265V180.18H115.903ZM120.333 180.18V193.5H118.695V180.18H120.333ZM132.124 188.19C132.124 188.502 132.106 188.832 132.07 189.18H124.186C124.246 190.152 124.576 190.914 125.176 191.466C125.788 192.006 126.526 192.276 127.39 192.276C128.098 192.276 128.686 192.114 129.154 191.79C129.634 191.454 129.97 191.01 130.162 190.458H131.926C131.662 191.406 131.134 192.18 130.342 192.78C129.55 193.368 128.566 193.662 127.39 193.662C126.454 193.662 125.614 193.452 124.87 193.032C124.138 192.612 123.562 192.018 123.142 191.25C122.722 190.47 122.512 189.57 122.512 188.55C122.512 187.53 122.716 186.636 123.124 185.868C123.532 185.1 124.102 184.512 124.834 184.104C125.578 183.684 126.43 183.474 127.39 183.474C128.326 183.474 129.154 183.678 129.874 184.086C130.594 184.494 131.146 185.058 131.53 185.778C131.926 186.486 132.124 187.29 132.124 188.19ZM130.432 187.848C130.432 187.224 130.294 186.69 130.018 186.246C129.742 185.79 129.364 185.448 128.884 185.22C128.416 184.98 127.894 184.86 127.318 184.86C126.49 184.86 125.782 185.124 125.194 185.652C124.618 186.18 124.288 186.912 124.204 187.848H130.432ZM133.674 188.55C133.674 187.53 133.878 186.642 134.286 185.886C134.694 185.118 135.258 184.524 135.978 184.104C136.71 183.684 137.544 183.474 138.48 183.474C139.692 183.474 140.688 183.768 141.468 184.356C142.26 184.944 142.782 185.76 143.034 186.804H141.27C141.102 186.204 140.772 185.73 140.28 185.382C139.8 185.034 139.2 184.86 138.48 184.86C137.544 184.86 136.788 185.184 136.212 185.832C135.636 186.468 135.348 187.374 135.348 188.55C135.348 189.738 135.636 190.656 136.212 191.304C136.788 191.952 137.544 192.276 138.48 192.276C139.2 192.276 139.8 192.108 140.28 191.772C140.76 191.436 141.09 190.956 141.27 190.332H143.034C142.77 191.34 142.242 192.15 141.45 192.762C140.658 193.362 139.668 193.662 138.48 193.662C137.544 193.662 136.71 193.452 135.978 193.032C135.258 192.612 134.694 192.018 134.286 191.25C133.878 190.482 133.674 189.582 133.674 188.55ZM147.218 184.986V190.8C147.218 191.28 147.32 191.622 147.524 191.826C147.728 192.018 148.082 192.114 148.586 192.114H149.792V193.5H148.316C147.404 193.5 146.72 193.29 146.264 192.87C145.808 192.45 145.58 191.76 145.58 190.8V184.986H144.302V183.636H145.58V181.152H147.218V183.636H149.792V184.986H147.218ZM152.623 182.034C152.311 182.034 152.047 181.926 151.831 181.71C151.615 181.494 151.507 181.23 151.507 180.918C151.507 180.606 151.615 180.342 151.831 180.126C152.047 179.91 152.311 179.802 152.623 179.802C152.923 179.802 153.175 179.91 153.379 180.126C153.595 180.342 153.703 180.606 153.703 180.918C153.703 181.23 153.595 181.494 153.379 181.71C153.175 181.926 152.923 182.034 152.623 182.034ZM153.415 183.636V193.5H151.777V183.636H153.415ZM160.508 193.662C159.584 193.662 158.744 193.452 157.988 193.032C157.244 192.612 156.656 192.018 156.224 191.25C155.804 190.47 155.594 189.57 155.594 188.55C155.594 187.542 155.81 186.654 156.242 185.886C156.686 185.106 157.286 184.512 158.042 184.104C158.798 183.684 159.644 183.474 160.58 183.474C161.516 183.474 162.362 183.684 163.118 184.104C163.874 184.512 164.468 185.1 164.9 185.868C165.344 186.636 165.566 187.53 165.566 188.55C165.566 189.57 165.338 190.47 164.882 191.25C164.438 192.018 163.832 192.612 163.064 193.032C162.296 193.452 161.444 193.662 160.508 193.662ZM160.508 192.222C161.096 192.222 161.648 192.084 162.164 191.808C162.68 191.532 163.094 191.118 163.406 190.566C163.73 190.014 163.892 189.342 163.892 188.55C163.892 187.758 163.736 187.086 163.424 186.534C163.112 185.982 162.704 185.574 162.2 185.31C161.696 185.034 161.15 184.896 160.562 184.896C159.962 184.896 159.41 185.034 158.906 185.31C158.414 185.574 158.018 185.982 157.718 186.534C157.418 187.086 157.268 187.758 157.268 188.55C157.268 189.354 157.412 190.032 157.7 190.584C158 191.136 158.396 191.55 158.888 191.826C159.38 192.09 159.92 192.222 160.508 192.222ZM172.526 183.456C173.726 183.456 174.698 183.822 175.442 184.554C176.186 185.274 176.558 186.318 176.558 187.686V193.5H174.938V187.92C174.938 186.936 174.692 186.186 174.2 185.67C173.708 185.142 173.036 184.878 172.184 184.878C171.32 184.878 170.63 185.148 170.114 185.688C169.61 186.228 169.358 187.014 169.358 188.046V193.5H167.72V183.636H169.358V185.04C169.682 184.536 170.12 184.146 170.672 183.87C171.236 183.594 171.854 183.456 172.526 183.456ZM182.726 193.662C181.97 193.662 181.292 193.536 180.692 193.284C180.092 193.02 179.618 192.66 179.27 192.204C178.922 191.736 178.73 191.202 178.694 190.602H180.386C180.434 191.094 180.662 191.496 181.07 191.808C181.49 192.12 182.036 192.276 182.708 192.276C183.332 192.276 183.824 192.138 184.184 191.862C184.544 191.586 184.724 191.238 184.724 190.818C184.724 190.386 184.532 190.068 184.148 189.864C183.764 189.648 183.17 189.438 182.366 189.234C181.634 189.042 181.034 188.85 180.566 188.658C180.11 188.454 179.714 188.16 179.378 187.776C179.054 187.38 178.892 186.864 178.892 186.228C178.892 185.724 179.042 185.262 179.342 184.842C179.642 184.422 180.068 184.092 180.62 183.852C181.172 183.6 181.802 183.474 182.51 183.474C183.602 183.474 184.484 183.75 185.156 184.302C185.828 184.854 186.188 185.61 186.236 186.57H184.598C184.562 186.054 184.352 185.64 183.968 185.328C183.596 185.016 183.092 184.86 182.456 184.86C181.868 184.86 181.4 184.986 181.052 185.238C180.704 185.49 180.53 185.82 180.53 186.228C180.53 186.552 180.632 186.822 180.836 187.038C181.052 187.242 181.316 187.41 181.628 187.542C181.952 187.662 182.396 187.8 182.96 187.956C183.668 188.148 184.244 188.34 184.688 188.532C185.132 188.712 185.51 188.988 185.822 189.36C186.146 189.732 186.314 190.218 186.326 190.818C186.326 191.358 186.176 191.844 185.876 192.276C185.576 192.708 185.15 193.05 184.598 193.302C184.058 193.542 183.434 193.662 182.726 193.662Z" fill="#696969"/>
<defs>
<clipPath id="clip0_225_5526">
<rect width="80" height="80" fill="white" transform="translate(76 31.5)"/>
</clipPath>
</defs>
</svg>
