<svg width="232" height="232" viewBox="0 0 232 232" fill="none" xmlns="http://www.w3.org/2000/svg">
<rect width="232" height="232" rx="8" fill="#FAF4EB"/>
<g clip-path="url(#clip0_225_5527)">
<path d="M155.949 51.6979H91.6758V81.5264H150.531C153.523 81.5264 155.949 79.1007 155.949 76.1083V51.6979Z" fill="#6B78E3"/>
<path d="M100.779 44.9726V40.7692C100.779 39.457 101.842 38.3933 103.154 38.3933H110.077C111.389 38.3933 112.452 39.457 112.452 40.7692V40.8781V43.4162L100.779 44.9726Z" fill="#BDA2FD"/>
<path d="M91.6758 52.0291C91.6758 48.4936 94.1971 45.4615 97.6716 44.8186L113.49 41.5953C115.156 41.287 116.663 40.4112 117.756 39.1164L121.064 34.1537C122.169 32.4957 124.029 31.5 126.02 31.5H132.849C134.824 31.5 136.671 32.4796 137.78 34.1154L141.517 39.6296C142.34 40.6054 143.405 41.3489 144.604 41.7867L151.132 44.1698C154.024 45.2256 155.949 47.9777 155.949 51.0583V76.0148C155.949 79.059 153.482 81.5266 150.44 81.5266H91.6758V52.0291Z" fill="#BBCBED"/>
<path d="M151.131 44.1696L144.603 41.7867C143.404 41.349 142.34 40.6054 141.516 39.6296L137.779 34.1154C136.671 32.4796 134.824 31.5 132.849 31.5H126.41C128.385 31.5 130.232 32.4796 131.341 34.1154L135.078 39.6296C135.901 40.6054 136.965 41.3489 138.165 41.7867L144.693 44.1696C147.585 45.2254 149.51 47.9776 149.51 51.0581V76.0146C149.51 79.0588 147.043 81.5264 144.001 81.5264H150.44C153.482 81.5264 155.948 79.0586 155.948 76.0146V51.0583C155.948 47.9776 154.024 45.2256 151.131 44.1696Z" fill="#A4BBED"/>
<path d="M155.949 51.6979H91.6758V81.5264H150.531C153.523 81.5264 155.949 79.1007 155.949 76.1083V51.6979Z" fill="#AC8BFD"/>
<path d="M149.51 51.6979V76.1083C149.51 79.1007 147.084 81.5266 144.092 81.5266H150.53C153.523 81.5266 155.949 79.1009 155.949 76.1083V51.6979H149.51Z" fill="#976DFD"/>
<path d="M146.285 61.567H149.669C151.556 61.567 153.086 63.0976 153.086 64.9858C153.086 66.8739 151.556 68.4045 149.669 68.4045H146.448L146.285 61.567Z" fill="#BDA2FD"/>
<path d="M119.518 80.7676C114.367 77.4834 110.943 71.717 110.943 65.1655C110.943 54.972 119.231 46.6791 129.419 46.6791C139.607 46.6791 147.895 54.972 147.895 65.1655C147.895 75.3588 139.607 83.6518 129.419 83.6518C127.113 83.6518 124.904 83.2268 122.867 82.4513" fill="#ECF2FF"/>
<path d="M129.419 77.5404C136.249 77.5404 141.786 71.9999 141.786 65.1653C141.786 58.3308 136.249 52.7903 129.419 52.7903C122.588 52.7903 117.051 58.3308 117.051 65.1653C117.051 71.9999 122.588 77.5404 129.419 77.5404Z" fill="#4F5AC2"/>
<path d="M134.583 62.2492C135.07 63.111 135.349 64.1062 135.349 65.1655C135.349 68.4388 132.689 71.1018 129.419 71.1018C126.15 71.1018 123.49 68.4388 123.49 65.1655C123.49 61.8921 126.15 59.2291 129.419 59.2291C130.249 59.2291 131.039 59.4004 131.756 59.7096" fill="#6B78E3"/>
<path d="M133.444 62.6309C132.394 62.6309 131.539 61.7731 131.539 60.7188C131.539 59.6643 132.394 58.8065 133.444 58.8065C134.495 58.8065 135.349 59.6643 135.349 60.7188C135.349 61.7731 134.495 62.6309 133.444 62.6309Z" fill="white"/>
<path d="M122.134 40.096L124.396 36.6457C124.709 36.1675 125.242 35.8795 125.813 35.8795H133.052C133.625 35.8795 134.16 36.1699 134.473 36.6512L136.714 40.0992C137.142 40.7577 136.67 41.6287 135.885 41.6287H122.962C122.175 41.6286 121.703 40.7544 122.134 40.096Z" fill="#6B78E3"/>
<path d="M105.491 78.97V51.6979H91.6758V81.2419H105.491V78.97Z" fill="#BDA2FD"/>
<path d="M80.5098 91.631L105.706 86.5404L107.319 94.5274L82.1235 99.618L80.5098 91.631Z" fill="#ECF2FF"/>
<path d="M76.0645 69.6593L101.26 64.5687L105.964 87.8516L80.7686 92.9422L76.0645 69.6593Z" fill="#93E5FF"/>
<path d="M94.2852 100.564L119.789 103.829L118.807 111.504L93.3026 108.239L94.2852 100.564Z" fill="#ECF2FF"/>
<path d="M94.166 101.473L97.1833 77.9045L122.688 81.1697L119.67 104.738L94.166 101.473Z" fill="#6BDCFF"/>
</g>
<path d="M35.092 131.676C35.5213 131.695 36.072 131.713 36.744 131.732C37.4347 131.751 38.116 131.76 38.788 131.76C39.684 131.76 40.5333 131.751 41.336 131.732C42.1573 131.713 42.736 131.704 43.072 131.704C45.4427 131.704 47.216 132.217 48.392 133.244C49.568 134.271 50.156 135.596 50.156 137.22C50.156 137.892 50.0347 138.601 49.792 139.348C49.568 140.076 49.1667 140.757 48.588 141.392C48.0093 142.008 47.2253 142.512 46.236 142.904C45.2467 143.296 43.9867 143.492 42.456 143.492H39.712V142.932H42.176C43.4267 142.932 44.3787 142.68 45.032 142.176C45.704 141.672 46.152 141.009 46.376 140.188C46.6187 139.367 46.74 138.48 46.74 137.528C46.74 135.755 46.4227 134.429 45.788 133.552C45.1533 132.675 44.052 132.236 42.484 132.236C41.6813 132.236 41.1493 132.395 40.888 132.712C40.6453 133.029 40.524 133.673 40.524 134.644V148.476C40.524 149.167 40.5987 149.689 40.748 150.044C40.8973 150.38 41.1773 150.604 41.588 150.716C41.9987 150.828 42.6053 150.893 43.408 150.912V151.5C42.904 151.463 42.2507 151.444 41.448 151.444C40.6453 151.425 39.8147 151.416 38.956 151.416C38.2093 151.416 37.4907 151.425 36.8 151.444C36.128 151.444 35.5587 151.463 35.092 151.5V150.94C35.7267 150.903 36.2027 150.828 36.52 150.716C36.8373 150.604 37.0427 150.38 37.136 150.044C37.248 149.708 37.304 149.204 37.304 148.532V134.644C37.304 133.953 37.248 133.449 37.136 133.132C37.0427 132.796 36.828 132.572 36.492 132.46C36.1747 132.329 35.708 132.255 35.092 132.236V131.676ZM56.2523 129.576V139.768C56.719 138.611 57.3723 137.808 58.2123 137.36C59.071 136.893 59.9763 136.66 60.9283 136.66C61.675 136.66 62.2817 136.763 62.7483 136.968C63.2337 137.155 63.635 137.416 63.9523 137.752C64.2883 138.107 64.531 138.564 64.6803 139.124C64.8297 139.684 64.9043 140.44 64.9043 141.392V148.896C64.9043 149.68 65.0537 150.212 65.3523 150.492C65.6697 150.772 66.1923 150.912 66.9203 150.912V151.5C66.5843 151.481 66.0803 151.463 65.4083 151.444C64.7363 151.407 64.083 151.388 63.4483 151.388C62.795 151.388 62.151 151.407 61.5163 151.444C60.9003 151.463 60.443 151.481 60.1443 151.5V150.912C60.779 150.912 61.227 150.772 61.4883 150.492C61.7497 150.212 61.8803 149.68 61.8803 148.896V140.608C61.8803 140.067 61.8337 139.581 61.7403 139.152C61.647 138.704 61.4417 138.349 61.1243 138.088C60.8257 137.808 60.3777 137.668 59.7803 137.668C59.1083 137.668 58.5017 137.864 57.9603 138.256C57.4377 138.629 57.0177 139.152 56.7003 139.824C56.4017 140.496 56.2523 141.261 56.2523 142.12V148.896C56.2523 149.68 56.383 150.212 56.6443 150.492C56.9057 150.772 57.3537 150.912 57.9883 150.912V151.5C57.671 151.481 57.2043 151.463 56.5883 151.444C55.991 151.407 55.375 151.388 54.7403 151.388C54.087 151.388 53.415 151.407 52.7243 151.444C52.0523 151.463 51.5483 151.481 51.2123 151.5V150.912C51.9403 150.912 52.4537 150.772 52.7523 150.492C53.0697 150.212 53.2283 149.68 53.2283 148.896V132.936C53.2283 132.096 53.079 131.48 52.7803 131.088C52.5003 130.677 51.9777 130.472 51.2123 130.472V129.884C51.8097 129.94 52.3883 129.968 52.9483 129.968C53.5643 129.968 54.1523 129.94 54.7123 129.884C55.2723 129.809 55.7857 129.707 56.2523 129.576ZM75.0607 136.66C76.3114 136.66 77.422 136.921 78.3927 137.444C79.3634 137.967 80.138 138.788 80.7167 139.908C81.2954 141.028 81.5847 142.493 81.5847 144.304C81.5847 146.115 81.2954 147.58 80.7167 148.7C80.138 149.801 79.3634 150.613 78.3927 151.136C77.422 151.64 76.3114 151.892 75.0607 151.892C73.8287 151.892 72.718 151.64 71.7287 151.136C70.7394 150.613 69.9554 149.801 69.3767 148.7C68.8167 147.58 68.5367 146.115 68.5367 144.304C68.5367 142.493 68.8167 141.028 69.3767 139.908C69.9554 138.788 70.7394 137.967 71.7287 137.444C72.718 136.921 73.8287 136.66 75.0607 136.66ZM75.0607 137.22C74.09 137.22 73.2967 137.78 72.6807 138.9C72.0647 140.001 71.7567 141.803 71.7567 144.304C71.7567 146.805 72.0647 148.607 72.6807 149.708C73.2967 150.791 74.09 151.332 75.0607 151.332C76.0127 151.332 76.7967 150.791 77.4127 149.708C78.0474 148.607 78.3647 146.805 78.3647 144.304C78.3647 141.803 78.0474 140.001 77.4127 138.9C76.7967 137.78 76.0127 137.22 75.0607 137.22ZM88.4646 132.432V137.08H92.3286V137.64H88.4646V148.644C88.4646 149.409 88.6046 149.951 88.8846 150.268C89.1646 150.585 89.5659 150.744 90.0886 150.744C90.5739 150.744 91.0033 150.548 91.3766 150.156C91.7686 149.764 92.1046 149.101 92.3846 148.168L92.9166 148.364C92.6926 149.353 92.2913 150.193 91.7126 150.884C91.1526 151.556 90.3219 151.892 89.2206 151.892C88.5859 151.892 88.0539 151.808 87.6246 151.64C87.1953 151.491 86.8219 151.267 86.5046 150.968C86.0939 150.539 85.8139 150.025 85.6646 149.428C85.5153 148.831 85.4406 148.037 85.4406 147.048V137.64H82.8646V137.08H85.4406V132.992C86.0193 132.973 86.5606 132.927 87.0646 132.852C87.5686 132.759 88.0353 132.619 88.4646 132.432ZM100.408 136.66C101.659 136.66 102.77 136.921 103.74 137.444C104.711 137.967 105.486 138.788 106.064 139.908C106.643 141.028 106.932 142.493 106.932 144.304C106.932 146.115 106.643 147.58 106.064 148.7C105.486 149.801 104.711 150.613 103.74 151.136C102.77 151.64 101.659 151.892 100.408 151.892C99.1763 151.892 98.0657 151.64 97.0763 151.136C96.087 150.613 95.303 149.801 94.7243 148.7C94.1643 147.58 93.8843 146.115 93.8843 144.304C93.8843 142.493 94.1643 141.028 94.7243 139.908C95.303 138.788 96.087 137.967 97.0763 137.444C98.0657 136.921 99.1763 136.66 100.408 136.66ZM100.408 137.22C99.4377 137.22 98.6443 137.78 98.0283 138.9C97.4123 140.001 97.1043 141.803 97.1043 144.304C97.1043 146.805 97.4123 148.607 98.0283 149.708C98.6443 150.791 99.4377 151.332 100.408 151.332C101.36 151.332 102.144 150.791 102.76 149.708C103.395 148.607 103.712 146.805 103.712 144.304C103.712 141.803 103.395 140.001 102.76 138.9C102.144 137.78 101.36 137.22 100.408 137.22ZM114.176 156.764C113.131 156.764 112.16 156.661 111.264 156.456C110.387 156.251 109.678 155.933 109.136 155.504C108.614 155.093 108.352 154.561 108.352 153.908C108.352 153.292 108.614 152.751 109.136 152.284C109.659 151.817 110.396 151.463 111.348 151.22L111.544 151.668C111.152 151.836 110.844 152.107 110.62 152.48C110.415 152.853 110.312 153.264 110.312 153.712C110.312 154.533 110.695 155.168 111.46 155.616C112.226 156.064 113.234 156.288 114.484 156.288C115.324 156.288 116.118 156.176 116.864 155.952C117.63 155.747 118.246 155.401 118.712 154.916C119.198 154.431 119.44 153.805 119.44 153.04C119.44 152.443 119.226 151.939 118.796 151.528C118.367 151.136 117.518 150.94 116.248 150.94H114.288C113.635 150.94 113.028 150.884 112.468 150.772C111.908 150.66 111.451 150.445 111.096 150.128C110.76 149.792 110.592 149.325 110.592 148.728C110.592 148.056 110.872 147.421 111.432 146.824C111.992 146.227 112.935 145.639 114.26 145.06L114.596 145.312C114.055 145.611 113.57 145.919 113.14 146.236C112.73 146.535 112.524 146.908 112.524 147.356C112.524 147.953 112.954 148.252 113.812 148.252H117.144C118.022 148.252 118.815 148.373 119.524 148.616C120.234 148.84 120.803 149.204 121.232 149.708C121.662 150.212 121.876 150.875 121.876 151.696C121.876 152.573 121.587 153.395 121.008 154.16C120.448 154.944 119.599 155.569 118.46 156.036C117.322 156.521 115.894 156.764 114.176 156.764ZM114.344 145.536C113.392 145.536 112.524 145.387 111.74 145.088C110.956 144.771 110.34 144.285 109.892 143.632C109.444 142.979 109.22 142.139 109.22 141.112C109.22 140.085 109.444 139.245 109.892 138.592C110.34 137.92 110.956 137.435 111.74 137.136C112.524 136.819 113.392 136.66 114.344 136.66C115.334 136.66 116.211 136.819 116.976 137.136C117.742 137.435 118.348 137.92 118.796 138.592C119.244 139.245 119.468 140.085 119.468 141.112C119.468 142.139 119.244 142.979 118.796 143.632C118.348 144.285 117.742 144.771 116.976 145.088C116.211 145.387 115.334 145.536 114.344 145.536ZM114.344 145.032C114.998 145.032 115.502 144.752 115.856 144.192C116.211 143.632 116.388 142.605 116.388 141.112C116.388 139.619 116.211 138.592 115.856 138.032C115.502 137.453 114.998 137.164 114.344 137.164C113.728 137.164 113.234 137.453 112.86 138.032C112.487 138.592 112.3 139.619 112.3 141.112C112.3 142.605 112.487 143.632 112.86 144.192C113.234 144.752 113.728 145.032 114.344 145.032ZM118.488 139.012L117.984 138.816C118.246 138.163 118.694 137.593 119.328 137.108C119.963 136.623 120.626 136.38 121.316 136.38C121.839 136.38 122.25 136.529 122.548 136.828C122.866 137.108 123.024 137.509 123.024 138.032C123.024 138.611 122.866 139.021 122.548 139.264C122.25 139.507 121.932 139.628 121.596 139.628C121.298 139.628 121.018 139.525 120.756 139.32C120.514 139.115 120.374 138.797 120.336 138.368C120.299 137.92 120.439 137.351 120.756 136.66L121.064 136.772C120.318 137.071 119.767 137.388 119.412 137.724C119.076 138.041 118.768 138.471 118.488 139.012ZM132.94 136.66C133.481 136.66 133.939 136.772 134.312 136.996C134.704 137.22 134.993 137.509 135.18 137.864C135.385 138.2 135.488 138.583 135.488 139.012C135.488 139.553 135.32 140.02 134.984 140.412C134.667 140.785 134.237 140.972 133.696 140.972C133.229 140.972 132.828 140.832 132.492 140.552C132.175 140.272 132.016 139.889 132.016 139.404C132.016 138.993 132.119 138.648 132.324 138.368C132.548 138.069 132.8 137.836 133.08 137.668C132.893 137.519 132.669 137.453 132.408 137.472C131.904 137.491 131.437 137.659 131.008 137.976C130.579 138.275 130.215 138.667 129.916 139.152C129.617 139.619 129.384 140.123 129.216 140.664C129.048 141.205 128.964 141.709 128.964 142.176V148.616C128.964 149.531 129.216 150.147 129.72 150.464C130.224 150.763 130.924 150.912 131.82 150.912V151.5C131.391 151.481 130.775 151.463 129.972 151.444C129.188 151.407 128.357 151.388 127.48 151.388C126.808 151.388 126.136 151.407 125.464 151.444C124.792 151.463 124.279 151.481 123.924 151.5V150.912C124.652 150.912 125.165 150.772 125.464 150.492C125.781 150.212 125.94 149.68 125.94 148.896V140.104C125.94 139.264 125.8 138.648 125.52 138.256C125.24 137.845 124.708 137.64 123.924 137.64V137.052C124.521 137.108 125.1 137.136 125.66 137.136C126.295 137.136 126.883 137.108 127.424 137.052C127.984 136.977 128.497 136.875 128.964 136.744V139.964C129.188 139.423 129.487 138.9 129.86 138.396C130.233 137.892 130.681 137.481 131.204 137.164C131.727 136.828 132.305 136.66 132.94 136.66ZM140.532 151.696C139.748 151.696 139.076 151.547 138.516 151.248C137.956 150.949 137.536 150.539 137.256 150.016C136.976 149.493 136.836 148.896 136.836 148.224C136.836 147.403 137.023 146.74 137.396 146.236C137.769 145.713 138.245 145.293 138.824 144.976C139.421 144.659 140.047 144.397 140.7 144.192C141.372 143.968 141.997 143.763 142.576 143.576C143.173 143.371 143.659 143.137 144.032 142.876C144.424 142.615 144.62 142.269 144.62 141.84V139.936C144.62 139.264 144.508 138.732 144.284 138.34C144.079 137.929 143.789 137.64 143.416 137.472C143.061 137.304 142.632 137.22 142.128 137.22C141.699 137.22 141.241 137.285 140.756 137.416C140.271 137.528 139.888 137.761 139.608 138.116C140.019 138.228 140.355 138.452 140.616 138.788C140.896 139.105 141.036 139.507 141.036 139.992C141.036 140.515 140.859 140.925 140.504 141.224C140.168 141.523 139.739 141.672 139.216 141.672C138.637 141.672 138.208 141.495 137.928 141.14C137.648 140.767 137.508 140.337 137.508 139.852C137.508 139.348 137.629 138.937 137.872 138.62C138.133 138.303 138.469 138.004 138.88 137.724C139.328 137.425 139.897 137.173 140.588 136.968C141.297 136.763 142.081 136.66 142.94 136.66C143.743 136.66 144.433 136.753 145.012 136.94C145.609 137.108 146.104 137.388 146.496 137.78C146.963 138.209 147.271 138.751 147.42 139.404C147.569 140.039 147.644 140.813 147.644 141.728V149.456C147.644 149.923 147.7 150.259 147.812 150.464C147.943 150.651 148.148 150.744 148.428 150.744C148.615 150.744 148.792 150.697 148.96 150.604C149.147 150.511 149.361 150.371 149.604 150.184L149.884 150.66C149.492 150.977 149.091 151.229 148.68 151.416C148.288 151.603 147.784 151.696 147.168 151.696C146.571 151.696 146.085 151.603 145.712 151.416C145.339 151.229 145.059 150.959 144.872 150.604C144.704 150.249 144.62 149.811 144.62 149.288C144.135 150.072 143.556 150.669 142.884 151.08C142.212 151.491 141.428 151.696 140.532 151.696ZM141.876 150.352C142.399 150.352 142.884 150.203 143.332 149.904C143.799 149.605 144.228 149.157 144.62 148.56V142.988C144.415 143.287 144.116 143.548 143.724 143.772C143.332 143.977 142.912 144.192 142.464 144.416C142.016 144.64 141.587 144.901 141.176 145.2C140.784 145.48 140.457 145.844 140.196 146.292C139.935 146.74 139.804 147.309 139.804 148C139.804 148.728 139.991 149.307 140.364 149.736C140.737 150.147 141.241 150.352 141.876 150.352ZM155.593 136.744V153.908C155.593 154.729 155.826 155.28 156.293 155.56C156.76 155.84 157.404 155.98 158.225 155.98V156.568C157.796 156.549 157.198 156.521 156.433 156.484C155.668 156.465 154.846 156.456 153.969 156.456C153.353 156.456 152.746 156.465 152.149 156.484C151.552 156.521 151.094 156.549 150.777 156.568V155.98C151.43 155.98 151.888 155.849 152.149 155.588C152.429 155.345 152.569 154.879 152.569 154.188V140.104C152.569 139.264 152.429 138.648 152.149 138.256C151.869 137.845 151.337 137.64 150.553 137.64V137.052C151.15 137.108 151.729 137.136 152.289 137.136C152.905 137.136 153.493 137.108 154.053 137.052C154.613 136.977 155.126 136.875 155.593 136.744ZM160.045 136.66C161.016 136.66 161.884 136.931 162.649 137.472C163.433 137.995 164.049 138.769 164.497 139.796C164.945 140.823 165.169 142.101 165.169 143.632C165.169 144.752 165.038 145.816 164.777 146.824C164.516 147.813 164.114 148.691 163.573 149.456C163.05 150.203 162.388 150.8 161.585 151.248C160.782 151.677 159.83 151.892 158.729 151.892C157.908 151.892 157.18 151.715 156.545 151.36C155.929 151.005 155.49 150.557 155.229 150.016L155.509 149.624C155.752 150.091 156.088 150.473 156.517 150.772C156.965 151.071 157.516 151.22 158.169 151.22C159.14 151.22 159.896 150.912 160.437 150.296C160.997 149.661 161.389 148.812 161.613 147.748C161.837 146.665 161.949 145.443 161.949 144.08C161.949 142.549 161.837 141.317 161.613 140.384C161.389 139.432 161.053 138.741 160.605 138.312C160.157 137.864 159.616 137.64 158.981 137.64C158.141 137.64 157.376 137.976 156.685 138.648C156.013 139.32 155.602 140.328 155.453 141.672L155.173 141.084C155.416 139.684 155.976 138.601 156.853 137.836C157.749 137.052 158.813 136.66 160.045 136.66ZM171.998 129.576V139.768C172.465 138.611 173.118 137.808 173.958 137.36C174.817 136.893 175.722 136.66 176.674 136.66C177.421 136.66 178.028 136.763 178.494 136.968C178.98 137.155 179.381 137.416 179.698 137.752C180.034 138.107 180.277 138.564 180.426 139.124C180.576 139.684 180.65 140.44 180.65 141.392V148.896C180.65 149.68 180.8 150.212 181.098 150.492C181.416 150.772 181.938 150.912 182.666 150.912V151.5C182.33 151.481 181.826 151.463 181.154 151.444C180.482 151.407 179.829 151.388 179.194 151.388C178.541 151.388 177.897 151.407 177.262 151.444C176.646 151.463 176.189 151.481 175.89 151.5V150.912C176.525 150.912 176.973 150.772 177.234 150.492C177.496 150.212 177.626 149.68 177.626 148.896V140.608C177.626 140.067 177.58 139.581 177.486 139.152C177.393 138.704 177.188 138.349 176.87 138.088C176.572 137.808 176.124 137.668 175.526 137.668C174.854 137.668 174.248 137.864 173.706 138.256C173.184 138.629 172.764 139.152 172.446 139.824C172.148 140.496 171.998 141.261 171.998 142.12V148.896C171.998 149.68 172.129 150.212 172.39 150.492C172.652 150.772 173.1 150.912 173.734 150.912V151.5C173.417 151.481 172.95 151.463 172.334 151.444C171.737 151.407 171.121 151.388 170.486 151.388C169.833 151.388 169.161 151.407 168.47 151.444C167.798 151.463 167.294 151.481 166.958 151.5V150.912C167.686 150.912 168.2 150.772 168.498 150.492C168.816 150.212 168.974 149.68 168.974 148.896V132.936C168.974 132.096 168.825 131.48 168.526 131.088C168.246 130.677 167.724 130.472 166.958 130.472V129.884C167.556 129.94 168.134 129.968 168.694 129.968C169.31 129.968 169.898 129.94 170.458 129.884C171.018 129.809 171.532 129.707 171.998 129.576ZM196.777 137.052V137.612C196.423 137.668 196.096 137.855 195.797 138.172C195.499 138.471 195.209 138.993 194.929 139.74L190.561 151.444L189.889 152.116L184.429 139.208C184.075 138.48 183.729 138.041 183.393 137.892C183.076 137.724 182.805 137.64 182.581 137.64V137.052C183.048 137.108 183.543 137.155 184.065 137.192C184.588 137.211 185.129 137.22 185.689 137.22C186.324 137.22 186.959 137.201 187.593 137.164C188.247 137.127 188.853 137.089 189.413 137.052V137.64C188.965 137.64 188.564 137.677 188.209 137.752C187.873 137.808 187.649 137.985 187.537 138.284C187.444 138.564 187.537 139.049 187.817 139.74L191.289 148.28L191.093 148.364L193.921 140.86C194.201 140.113 194.313 139.516 194.257 139.068C194.201 138.601 194.005 138.256 193.669 138.032C193.333 137.789 192.839 137.649 192.185 137.612V137.052C192.503 137.071 192.792 137.089 193.053 137.108C193.333 137.108 193.604 137.117 193.865 137.136C194.127 137.136 194.388 137.136 194.649 137.136C195.06 137.136 195.443 137.127 195.797 137.108C196.171 137.089 196.497 137.071 196.777 137.052ZM190.561 151.444L189.553 154.076C189.367 154.543 189.171 154.935 188.965 155.252C188.779 155.569 188.573 155.831 188.349 156.036C188.069 156.297 187.724 156.484 187.313 156.596C186.903 156.708 186.492 156.764 186.081 156.764C185.689 156.764 185.316 156.689 184.961 156.54C184.625 156.409 184.345 156.204 184.121 155.924C183.897 155.644 183.785 155.299 183.785 154.888C183.785 154.403 183.944 154.011 184.261 153.712C184.579 153.413 184.999 153.264 185.521 153.264C185.988 153.264 186.38 153.385 186.697 153.628C187.015 153.889 187.173 154.263 187.173 154.748C187.173 155.084 187.08 155.373 186.893 155.616C186.725 155.859 186.501 156.045 186.221 156.176C186.277 156.195 186.333 156.204 186.389 156.204C186.445 156.204 186.492 156.204 186.529 156.204C187.052 156.204 187.519 156.027 187.929 155.672C188.34 155.336 188.685 154.785 188.965 154.02L189.973 151.332L190.561 151.444Z" fill="black"/>
<path d="M62.668 187.038C63.124 187.11 63.538 187.296 63.91 187.596C64.294 187.896 64.594 188.268 64.81 188.712C65.038 189.156 65.152 189.63 65.152 190.134C65.152 190.77 64.99 191.346 64.666 191.862C64.342 192.366 63.868 192.768 63.244 193.068C62.632 193.356 61.906 193.5 61.066 193.5H56.386V180.954H60.886C61.738 180.954 62.464 181.098 63.064 181.386C63.664 181.662 64.114 182.04 64.414 182.52C64.714 183 64.864 183.54 64.864 184.14C64.864 184.884 64.66 185.502 64.252 185.994C63.856 186.474 63.328 186.822 62.668 187.038ZM58.024 186.372H60.778C61.546 186.372 62.14 186.192 62.56 185.832C62.98 185.472 63.19 184.974 63.19 184.338C63.19 183.702 62.98 183.204 62.56 182.844C62.14 182.484 61.534 182.304 60.742 182.304H58.024V186.372ZM60.922 192.15C61.738 192.15 62.374 191.958 62.83 191.574C63.286 191.19 63.514 190.656 63.514 189.972C63.514 189.276 63.274 188.73 62.794 188.334C62.314 187.926 61.672 187.722 60.868 187.722H58.024V192.15H60.922ZM76.4251 188.19C76.4251 188.502 76.4071 188.832 76.3711 189.18H68.4871C68.5471 190.152 68.8771 190.914 69.4771 191.466C70.0891 192.006 70.8271 192.276 71.6911 192.276C72.3991 192.276 72.9871 192.114 73.4551 191.79C73.9351 191.454 74.2711 191.01 74.4631 190.458H76.2271C75.9631 191.406 75.4351 192.18 74.6431 192.78C73.8511 193.368 72.8671 193.662 71.6911 193.662C70.7551 193.662 69.9151 193.452 69.1711 193.032C68.4391 192.612 67.8631 192.018 67.4431 191.25C67.0231 190.47 66.8131 189.57 66.8131 188.55C66.8131 187.53 67.0171 186.636 67.4251 185.868C67.8331 185.1 68.4031 184.512 69.1351 184.104C69.8791 183.684 70.7311 183.474 71.6911 183.474C72.6271 183.474 73.4551 183.678 74.1751 184.086C74.8951 184.494 75.4471 185.058 75.8311 185.778C76.2271 186.486 76.4251 187.29 76.4251 188.19ZM74.7331 187.848C74.7331 187.224 74.5951 186.69 74.3191 186.246C74.0431 185.79 73.6651 185.448 73.1851 185.22C72.7171 184.98 72.1951 184.86 71.6191 184.86C70.7911 184.86 70.0831 185.124 69.4951 185.652C68.9191 186.18 68.5891 186.912 68.5051 187.848H74.7331ZM82.0792 193.662C81.3232 193.662 80.6452 193.536 80.0452 193.284C79.4452 193.02 78.9712 192.66 78.6232 192.204C78.2752 191.736 78.0832 191.202 78.0472 190.602H79.7392C79.7872 191.094 80.0152 191.496 80.4232 191.808C80.8432 192.12 81.3892 192.276 82.0612 192.276C82.6852 192.276 83.1772 192.138 83.5372 191.862C83.8972 191.586 84.0772 191.238 84.0772 190.818C84.0772 190.386 83.8852 190.068 83.5012 189.864C83.1172 189.648 82.5232 189.438 81.7192 189.234C80.9872 189.042 80.3872 188.85 79.9192 188.658C79.4632 188.454 79.0672 188.16 78.7312 187.776C78.4072 187.38 78.2452 186.864 78.2452 186.228C78.2452 185.724 78.3952 185.262 78.6952 184.842C78.9952 184.422 79.4212 184.092 79.9732 183.852C80.5252 183.6 81.1552 183.474 81.8632 183.474C82.9552 183.474 83.8372 183.75 84.5092 184.302C85.1812 184.854 85.5412 185.61 85.5892 186.57H83.9512C83.9152 186.054 83.7052 185.64 83.3212 185.328C82.9492 185.016 82.4452 184.86 81.8092 184.86C81.2212 184.86 80.7532 184.986 80.4052 185.238C80.0572 185.49 79.8832 185.82 79.8832 186.228C79.8832 186.552 79.9852 186.822 80.1892 187.038C80.4052 187.242 80.6692 187.41 80.9812 187.542C81.3052 187.662 81.7492 187.8 82.3132 187.956C83.0212 188.148 83.5972 188.34 84.0412 188.532C84.4852 188.712 84.8632 188.988 85.1752 189.36C85.4992 189.732 85.6672 190.218 85.6792 190.818C85.6792 191.358 85.5292 191.844 85.2292 192.276C84.9292 192.708 84.5032 193.05 83.9512 193.302C83.4112 193.542 82.7872 193.662 82.0792 193.662ZM89.9895 184.986V190.8C89.9895 191.28 90.0915 191.622 90.2955 191.826C90.4995 192.018 90.8535 192.114 91.3575 192.114H92.5635V193.5H91.0875C90.1755 193.5 89.4915 193.29 89.0355 192.87C88.5795 192.45 88.3515 191.76 88.3515 190.8V184.986H87.0735V183.636H88.3515V181.152H89.9895V183.636H92.5635V184.986H89.9895ZM98.7349 187.218C98.7349 185.994 99.0109 184.896 99.5629 183.924C100.115 182.94 100.865 182.172 101.813 181.62C102.773 181.068 103.835 180.792 104.999 180.792C106.367 180.792 107.561 181.122 108.581 181.782C109.601 182.442 110.345 183.378 110.813 184.59H108.851C108.503 183.834 107.999 183.252 107.339 182.844C106.691 182.436 105.911 182.232 104.999 182.232C104.123 182.232 103.337 182.436 102.641 182.844C101.945 183.252 101.399 183.834 101.003 184.59C100.607 185.334 100.409 186.21 100.409 187.218C100.409 188.214 100.607 189.09 101.003 189.846C101.399 190.59 101.945 191.166 102.641 191.574C103.337 191.982 104.123 192.186 104.999 192.186C105.911 192.186 106.691 191.988 107.339 191.592C107.999 191.184 108.503 190.602 108.851 189.846H110.813C110.345 191.046 109.601 191.976 108.581 192.636C107.561 193.284 106.367 193.608 104.999 193.608C103.835 193.608 102.773 193.338 101.813 192.798C100.865 192.246 100.115 191.484 99.5629 190.512C99.0109 189.54 98.7349 188.442 98.7349 187.218ZM117.553 193.662C116.629 193.662 115.789 193.452 115.033 193.032C114.289 192.612 113.701 192.018 113.269 191.25C112.849 190.47 112.639 189.57 112.639 188.55C112.639 187.542 112.855 186.654 113.287 185.886C113.731 185.106 114.331 184.512 115.087 184.104C115.843 183.684 116.689 183.474 117.625 183.474C118.561 183.474 119.407 183.684 120.163 184.104C120.919 184.512 121.513 185.1 121.945 185.868C122.389 186.636 122.611 187.53 122.611 188.55C122.611 189.57 122.383 190.47 121.927 191.25C121.483 192.018 120.877 192.612 120.109 193.032C119.341 193.452 118.489 193.662 117.553 193.662ZM117.553 192.222C118.141 192.222 118.693 192.084 119.209 191.808C119.725 191.532 120.139 191.118 120.451 190.566C120.775 190.014 120.937 189.342 120.937 188.55C120.937 187.758 120.781 187.086 120.469 186.534C120.157 185.982 119.749 185.574 119.245 185.31C118.741 185.034 118.195 184.896 117.607 184.896C117.007 184.896 116.455 185.034 115.951 185.31C115.459 185.574 115.063 185.982 114.763 186.534C114.463 187.086 114.313 187.758 114.313 188.55C114.313 189.354 114.457 190.032 114.745 190.584C115.045 191.136 115.441 191.55 115.933 191.826C116.425 192.09 116.965 192.222 117.553 192.222ZM126.403 180.18V193.5H124.765V180.18H126.403ZM130.833 180.18V193.5H129.195V180.18H130.833ZM142.624 188.19C142.624 188.502 142.606 188.832 142.57 189.18H134.686C134.746 190.152 135.076 190.914 135.676 191.466C136.288 192.006 137.026 192.276 137.89 192.276C138.598 192.276 139.186 192.114 139.654 191.79C140.134 191.454 140.47 191.01 140.662 190.458H142.426C142.162 191.406 141.634 192.18 140.842 192.78C140.05 193.368 139.066 193.662 137.89 193.662C136.954 193.662 136.114 193.452 135.37 193.032C134.638 192.612 134.062 192.018 133.642 191.25C133.222 190.47 133.012 189.57 133.012 188.55C133.012 187.53 133.216 186.636 133.624 185.868C134.032 185.1 134.602 184.512 135.334 184.104C136.078 183.684 136.93 183.474 137.89 183.474C138.826 183.474 139.654 183.678 140.374 184.086C141.094 184.494 141.646 185.058 142.03 185.778C142.426 186.486 142.624 187.29 142.624 188.19ZM140.932 187.848C140.932 187.224 140.794 186.69 140.518 186.246C140.242 185.79 139.864 185.448 139.384 185.22C138.916 184.98 138.394 184.86 137.818 184.86C136.99 184.86 136.282 185.124 135.694 185.652C135.118 186.18 134.788 186.912 134.704 187.848H140.932ZM144.174 188.55C144.174 187.53 144.378 186.642 144.786 185.886C145.194 185.118 145.758 184.524 146.478 184.104C147.21 183.684 148.044 183.474 148.98 183.474C150.192 183.474 151.188 183.768 151.968 184.356C152.76 184.944 153.282 185.76 153.534 186.804H151.77C151.602 186.204 151.272 185.73 150.78 185.382C150.3 185.034 149.7 184.86 148.98 184.86C148.044 184.86 147.288 185.184 146.712 185.832C146.136 186.468 145.848 187.374 145.848 188.55C145.848 189.738 146.136 190.656 146.712 191.304C147.288 191.952 148.044 192.276 148.98 192.276C149.7 192.276 150.3 192.108 150.78 191.772C151.26 191.436 151.59 190.956 151.77 190.332H153.534C153.27 191.34 152.742 192.15 151.95 192.762C151.158 193.362 150.168 193.662 148.98 193.662C148.044 193.662 147.21 193.452 146.478 193.032C145.758 192.612 145.194 192.018 144.786 191.25C144.378 190.482 144.174 189.582 144.174 188.55ZM157.718 184.986V190.8C157.718 191.28 157.82 191.622 158.024 191.826C158.228 192.018 158.582 192.114 159.086 192.114H160.292V193.5H158.816C157.904 193.5 157.22 193.29 156.764 192.87C156.308 192.45 156.08 191.76 156.08 190.8V184.986H154.802V183.636H156.08V181.152H157.718V183.636H160.292V184.986H157.718ZM163.123 182.034C162.811 182.034 162.547 181.926 162.331 181.71C162.115 181.494 162.007 181.23 162.007 180.918C162.007 180.606 162.115 180.342 162.331 180.126C162.547 179.91 162.811 179.802 163.123 179.802C163.423 179.802 163.675 179.91 163.879 180.126C164.095 180.342 164.203 180.606 164.203 180.918C164.203 181.23 164.095 181.494 163.879 181.71C163.675 181.926 163.423 182.034 163.123 182.034ZM163.915 183.636V193.5H162.277V183.636H163.915ZM171.008 193.662C170.084 193.662 169.244 193.452 168.488 193.032C167.744 192.612 167.156 192.018 166.724 191.25C166.304 190.47 166.094 189.57 166.094 188.55C166.094 187.542 166.31 186.654 166.742 185.886C167.186 185.106 167.786 184.512 168.542 184.104C169.298 183.684 170.144 183.474 171.08 183.474C172.016 183.474 172.862 183.684 173.618 184.104C174.374 184.512 174.968 185.1 175.4 185.868C175.844 186.636 176.066 187.53 176.066 188.55C176.066 189.57 175.838 190.47 175.382 191.25C174.938 192.018 174.332 192.612 173.564 193.032C172.796 193.452 171.944 193.662 171.008 193.662ZM171.008 192.222C171.596 192.222 172.148 192.084 172.664 191.808C173.18 191.532 173.594 191.118 173.906 190.566C174.23 190.014 174.392 189.342 174.392 188.55C174.392 187.758 174.236 187.086 173.924 186.534C173.612 185.982 173.204 185.574 172.7 185.31C172.196 185.034 171.65 184.896 171.062 184.896C170.462 184.896 169.91 185.034 169.406 185.31C168.914 185.574 168.518 185.982 168.218 186.534C167.918 187.086 167.768 187.758 167.768 188.55C167.768 189.354 167.912 190.032 168.2 190.584C168.5 191.136 168.896 191.55 169.388 191.826C169.88 192.09 170.42 192.222 171.008 192.222ZM183.026 183.456C184.226 183.456 185.198 183.822 185.942 184.554C186.686 185.274 187.058 186.318 187.058 187.686V193.5H185.438V187.92C185.438 186.936 185.192 186.186 184.7 185.67C184.208 185.142 183.536 184.878 182.684 184.878C181.82 184.878 181.13 185.148 180.614 185.688C180.11 186.228 179.858 187.014 179.858 188.046V193.5H178.22V183.636H179.858V185.04C180.182 184.536 180.62 184.146 181.172 183.87C181.736 183.594 182.354 183.456 183.026 183.456ZM193.226 193.662C192.47 193.662 191.792 193.536 191.192 193.284C190.592 193.02 190.118 192.66 189.77 192.204C189.422 191.736 189.23 191.202 189.194 190.602H190.886C190.934 191.094 191.162 191.496 191.57 191.808C191.99 192.12 192.536 192.276 193.208 192.276C193.832 192.276 194.324 192.138 194.684 191.862C195.044 191.586 195.224 191.238 195.224 190.818C195.224 190.386 195.032 190.068 194.648 189.864C194.264 189.648 193.67 189.438 192.866 189.234C192.134 189.042 191.534 188.85 191.066 188.658C190.61 188.454 190.214 188.16 189.878 187.776C189.554 187.38 189.392 186.864 189.392 186.228C189.392 185.724 189.542 185.262 189.842 184.842C190.142 184.422 190.568 184.092 191.12 183.852C191.672 183.6 192.302 183.474 193.01 183.474C194.102 183.474 194.984 183.75 195.656 184.302C196.328 184.854 196.688 185.61 196.736 186.57H195.098C195.062 186.054 194.852 185.64 194.468 185.328C194.096 185.016 193.592 184.86 192.956 184.86C192.368 184.86 191.9 184.986 191.552 185.238C191.204 185.49 191.03 185.82 191.03 186.228C191.03 186.552 191.132 186.822 191.336 187.038C191.552 187.242 191.816 187.41 192.128 187.542C192.452 187.662 192.896 187.8 193.46 187.956C194.168 188.148 194.744 188.34 195.188 188.532C195.632 188.712 196.01 188.988 196.322 189.36C196.646 189.732 196.814 190.218 196.826 190.818C196.826 191.358 196.676 191.844 196.376 192.276C196.076 192.708 195.65 193.05 195.098 193.302C194.558 193.542 193.934 193.662 193.226 193.662Z" fill="#696969"/>
<defs>
<clipPath id="clip0_225_5527">
<rect width="80" height="80" fill="white" transform="translate(76 31.5)"/>
</clipPath>
</defs>
</svg>
