<svg width="53" height="52" viewBox="0 0 53 52" fill="none" xmlns="http://www.w3.org/2000/svg">
<rect x="0.75" width="52" height="52" rx="26" fill="#E6F0ED"/>
<rect x="8.75" y="8" width="36" height="36" rx="18" fill="#C2DBD5"/>
<g clip-path="url(#clip0_3371_40820)">
<path d="M26.9672 19.9562C26.909 19.9006 26.8317 19.8696 26.7512 19.8696C26.6707 19.8696 26.5933 19.9006 26.5352 19.9562L19.3438 26.8262C19.3132 26.8554 19.2889 26.8905 19.2723 26.9294C19.2558 26.9682 19.2472 27.0101 19.2473 27.0523L19.2461 33.5C19.2461 33.8315 19.3778 34.1495 19.6122 34.3839C19.8466 34.6183 20.1646 34.75 20.4961 34.75H24.25C24.4158 34.75 24.5747 34.6842 24.692 34.5669C24.8092 34.4497 24.875 34.2908 24.875 34.125V28.8125C24.875 28.7296 24.9079 28.6501 24.9665 28.5915C25.0251 28.5329 25.1046 28.5 25.1875 28.5H28.3125C28.3954 28.5 28.4749 28.5329 28.5335 28.5915C28.5921 28.6501 28.625 28.7296 28.625 28.8125V34.125C28.625 34.2908 28.6909 34.4497 28.8081 34.5669C28.9253 34.6842 29.0843 34.75 29.25 34.75H33.0024C33.3339 34.75 33.6518 34.6183 33.8862 34.3839C34.1207 34.1495 34.2524 33.8315 34.2524 33.5V27.0523C34.2524 27.0101 34.2439 26.9682 34.2273 26.9294C34.2107 26.8905 34.1864 26.8554 34.1559 26.8262L26.9672 19.9562Z" fill="#006A4E"/>
<path d="M35.9262 25.5371L33.0043 22.7418V18.5C33.0043 18.3342 32.9385 18.1753 32.8213 18.0581C32.704 17.9408 32.5451 17.875 32.3793 17.875H30.5043C30.3385 17.875 30.1796 17.9408 30.0624 18.0581C29.9452 18.1753 29.8793 18.3342 29.8793 18.5V19.75L27.6168 17.5867C27.4051 17.3727 27.0902 17.25 26.75 17.25C26.411 17.25 26.0969 17.3727 25.8852 17.5871L17.5766 25.5363C17.3336 25.7707 17.3031 26.1562 17.5242 26.4102C17.5798 26.4742 17.6477 26.5264 17.724 26.5633C17.8003 26.6003 17.8834 26.6214 17.9681 26.6253C18.0528 26.6291 18.1374 26.6157 18.2168 26.5859C18.2961 26.556 18.3686 26.5103 18.4297 26.4516L26.5352 18.7062C26.5933 18.6506 26.6707 18.6196 26.7512 18.6196C26.8317 18.6196 26.909 18.6506 26.9672 18.7062L35.0735 26.4516C35.1929 26.5661 35.3528 26.6286 35.5182 26.6253C35.6836 26.6221 35.841 26.5534 35.9559 26.4344C36.1957 26.1859 36.1758 25.7758 35.9262 25.5371Z" fill="#006A4E"/>
</g>
<defs>
<clipPath id="clip0_3371_40820">
<rect width="20" height="20" fill="white" transform="translate(16.75 16)"/>
</clipPath>
</defs>
</svg>
