<svg width="53" height="52" viewBox="0 0 53 52" fill="none" xmlns="http://www.w3.org/2000/svg">
<rect x="0.25" width="52" height="52" rx="26" fill="#E6F0ED"/>
<rect x="8.25" y="8" width="36" height="36" rx="18" fill="#C2DBD5"/>
<path d="M26.25 24.75C26.9404 24.75 27.5 24.1904 27.5 23.5C27.5 22.8096 26.9404 22.25 26.25 22.25C25.5596 22.25 25 22.8096 25 23.5C25 24.1904 25.5596 24.75 26.25 24.75Z" fill="#006A4E"/>
<path d="M26.25 17.25C22.8039 17.25 20 19.9316 20 23.2266C20 24.7957 20.7152 26.8824 22.1258 29.4289C23.2586 31.4734 24.5691 33.3223 25.2508 34.2422C25.366 34.3994 25.5166 34.5272 25.6904 34.6153C25.8642 34.7034 26.0563 34.7493 26.2512 34.7493C26.446 34.7493 26.6382 34.7034 26.812 34.6153C26.9858 34.5272 27.1364 34.3994 27.2516 34.2422C27.932 33.3223 29.2438 31.4734 30.3766 29.4289C31.7848 26.8832 32.5 24.7965 32.5 23.2266C32.5 19.9316 29.6961 17.25 26.25 17.25ZM26.25 26C25.7555 26 25.2722 25.8534 24.8611 25.5787C24.45 25.304 24.1295 24.9135 23.9403 24.4567C23.7511 23.9999 23.7016 23.4972 23.798 23.0123C23.8945 22.5273 24.1326 22.0819 24.4822 21.7322C24.8319 21.3826 25.2773 21.1445 25.7623 21.048C26.2472 20.9516 26.7499 21.0011 27.2067 21.1903C27.6635 21.3795 28.054 21.7 28.3287 22.1111C28.6034 22.5222 28.75 23.0055 28.75 23.5C28.7493 24.1628 28.4857 24.7983 28.017 25.267C27.5483 25.7357 26.9128 25.9993 26.25 26Z" fill="#006A4E"/>
</svg>
