<svg width="216" height="170" viewBox="0 0 216 170" fill="none" xmlns="http://www.w3.org/2000/svg">
<rect width="216" height="170" fill="#939393"/>
<g id="My request - book Demand- Security Money">
<g id="Poopup">
<rect x="-207" y="-80" width="630" height="500" rx="8" fill="white"/>
<g id="Frame 13244">
<g id="Search" clip-path="url(#clip0_1_2)">
<g id="Group">
<g id="Group_2">
<g id="Group_3">
<path id="Vector" d="M23.7571 159.118C33.7266 165.092 45.4612 164.79 55.7129 158.497C71.7465 148.558 88.7259 136.92 107.682 141.988C133.402 148.796 160.129 162.496 186.157 151.672C199.875 146.026 210.024 133.889 213.486 119.211C216.082 108.226 215.687 97.2052 213.141 86.7018C212.505 84.0763 211.73 81.4828 210.821 78.9321C208.236 71.5728 204.043 65.0542 198.046 59.8093C188.438 51.6735 177.385 45.8078 170.784 34.9718C162.708 21.6644 153.943 6.59497 137.638 2.97025C133.774 1.80778 129.748 0.959574 125.554 0.48055C111.885 -1.04958 98.5489 1.13501 86.0607 6.22731C59.2369 17.1533 35.8227 35.4615 18.1019 58.0137C15.3879 61.7742 12.947 65.7529 10.8112 69.8932C2.26662 86.4531 -1.39013 105.582 2.0027 123.487C2.85091 127.963 4.14 132.365 5.90354 136.629C7.66708 140.892 9.90507 145.019 12.648 148.944C15.3055 152.029 19.8364 157.091 23.7571 159.118Z" fill="#E6F0ED"/>
</g>
<path id="Vector_2" d="M92.7167 169.969C100.817 169.481 111.211 166.197 113.185 157.658C114.497 151.701 106.654 149.004 101.51 148.653C93.0843 148.005 81.8379 148.203 77.8303 157.043C76.1247 160.793 78.3276 165.095 81.5908 167.217C84.4298 169.162 88.3292 170.195 92.7167 169.969Z" fill="#E6F0ED"/>
<path id="Vector_3" d="M8.02556 34.9565C3.28566 40.4027 2.40389 47.1014 6.0042 49.9283C9.60451 52.7551 16.3337 50.6636 21.0935 45.2494C25.8532 39.8368 26.825 33.1198 23.2048 30.2609C19.5847 27.4035 12.7655 29.5118 8.02556 34.9565Z" fill="#E6F0ED"/>
</g>
</g>
<g id="Group_4" opacity="0.37">
<path id="Vector_4" d="M60.4788 102.503C60.8206 102.459 61.1348 102.702 61.1791 103.043L61.8229 108.043C61.8671 108.384 61.6245 108.699 61.2828 108.743C60.9411 108.787 60.6268 108.545 60.5826 108.203L59.9388 103.204C59.8946 102.86 60.1371 102.548 60.4788 102.503Z" fill="#F5F5F5"/>
<path id="Vector_5" d="M58.2992 105.324L63.2984 104.68C63.6401 104.636 63.9544 104.879 63.9986 105.22C64.0429 105.562 63.8003 105.876 63.4586 105.921L58.4593 106.564C58.1176 106.609 57.8034 106.366 57.7591 106.024C57.7149 105.681 57.9574 105.368 58.2992 105.324Z" fill="#F5F5F5"/>
<path id="Vector_6" d="M129.834 33.2693C130.176 33.225 130.49 33.4676 130.535 33.8093L131.085 38.087C131.13 38.4287 130.887 38.7429 130.545 38.7872C130.204 38.8314 129.889 38.5889 129.845 38.2471L129.294 33.9695C129.25 33.6262 129.491 33.3135 129.834 33.2693Z" fill="#F5F5F5"/>
<path id="Vector_7" d="M127.971 35.6827L132.249 35.132C132.59 35.0877 132.905 35.3303 132.949 35.672C132.993 36.0137 132.751 36.328 132.409 36.3722L128.131 36.923C127.789 36.9672 127.475 36.7246 127.431 36.3829C127.387 36.0412 127.629 35.7269 127.971 35.6827Z" fill="#F5F5F5"/>
<path id="Vector_8" d="M132.854 139.329C133.195 139.285 133.51 139.527 133.554 139.869L134.104 144.146C134.149 144.488 133.906 144.802 133.564 144.847C133.223 144.891 132.908 144.648 132.864 144.307L132.313 140.029C132.271 139.687 132.512 139.373 132.854 139.329Z" fill="#F5F5F5"/>
<path id="Vector_9" d="M130.991 141.744L135.268 141.193C135.61 141.149 135.924 141.391 135.968 141.733C136.013 142.075 135.77 142.389 135.428 142.433L131.151 142.984C130.809 143.028 130.495 142.786 130.451 142.444C130.406 142.101 130.647 141.788 130.991 141.744Z" fill="#F5F5F5"/>
<path id="Vector_10" d="M17.5218 31.939C17.8636 31.8947 18.1778 32.1373 18.2221 32.479L18.7728 36.7567C18.817 37.0984 18.5745 37.4127 18.2328 37.4569C17.891 37.5012 17.5768 37.2586 17.5325 36.9169L16.9818 32.6392C16.9376 32.296 17.1786 31.9817 17.5218 31.939Z" fill="#F5F5F5"/>
<path id="Vector_11" d="M15.6585 34.3524L19.9362 33.8017C20.2779 33.7574 20.5922 34 20.6364 34.3417C20.6807 34.6834 20.4381 34.9977 20.0964 35.042L15.8187 35.5927C15.477 35.6369 15.1627 35.3944 15.1185 35.0526C15.0742 34.7109 15.3168 34.3966 15.6585 34.3524Z" fill="#F5F5F5"/>
<path id="Vector_12" d="M175.544 135.504C176.683 135.358 177.73 136.165 177.876 137.304C178.023 138.444 177.216 139.49 176.076 139.637C174.937 139.783 173.892 138.976 173.744 137.837C173.597 136.697 174.404 135.651 175.544 135.504ZM175.916 138.397C176.372 138.339 176.694 137.919 176.636 137.465C176.578 137.008 176.159 136.687 175.704 136.744C175.248 136.802 174.926 137.222 174.984 137.677C175.042 138.133 175.46 138.455 175.916 138.397Z" fill="#F5F5F5"/>
<path id="Vector_13" d="M19.595 104.708C20.7346 104.561 21.7811 105.368 21.9275 106.508C22.074 107.648 21.267 108.694 20.1274 108.841C18.9878 108.987 17.9413 108.18 17.7948 107.04C17.6468 105.899 18.4554 104.854 19.595 104.708ZM19.9672 107.6C20.4233 107.542 20.7452 107.123 20.6873 106.668C20.6293 106.212 20.2098 105.89 19.7552 105.948C19.299 106.006 18.9771 106.426 19.0351 106.88C19.0931 107.335 19.5111 107.658 19.9672 107.6Z" fill="#F5F5F5"/>
<path id="Vector_14" d="M194.191 80.151C194.9 80.0595 195.553 80.5629 195.645 81.2723C195.736 81.9832 195.233 82.6346 194.524 82.7262C193.814 82.8177 193.161 82.3143 193.07 81.6049C192.977 80.8955 193.48 80.2426 194.191 80.151Z" fill="#F5F5F5"/>
<path id="Vector_15" d="M82.9566 156.682C83.666 156.59 84.3189 157.094 84.4104 157.805C84.502 158.516 83.9985 159.167 83.2891 159.259C82.5798 159.35 81.9268 158.847 81.8353 158.137C81.7422 157.425 82.2457 156.772 82.9566 156.682Z" fill="#F5F5F5"/>
<path id="Vector_16" d="M115.269 6.91991C115.978 6.82838 116.631 7.33181 116.723 8.04119C116.814 8.7521 116.311 9.40351 115.602 9.49504C114.892 9.58658 114.239 9.08314 114.148 8.37376C114.055 7.66438 114.558 7.01144 115.269 6.91991Z" fill="#F5F5F5"/>
<path id="Vector_17" d="M152.339 19.6491C153.267 19.5301 154.118 20.1876 154.237 21.1152C154.356 22.0427 153.699 22.894 152.771 23.0145C151.844 23.1335 150.992 22.476 150.873 21.5484C150.754 20.6209 151.412 19.7681 152.339 19.6491ZM152.612 21.7742C152.856 21.7422 153.029 21.5194 152.998 21.2738C152.966 21.0297 152.742 20.8574 152.5 20.8879C152.255 20.9199 152.083 21.1426 152.114 21.3867C152.144 21.6323 152.368 21.8047 152.612 21.7742Z" fill="#F5F5F5"/>
<path id="Vector_18" d="M57.8147 26.7689C58.7423 26.6499 59.5935 27.3074 59.714 28.2349C59.833 29.1625 59.1755 30.0137 58.248 30.1342C57.3204 30.2532 56.4692 29.5957 56.3502 28.6682C56.2297 27.7407 56.8872 26.8894 57.8147 26.7689ZM58.0878 28.894C58.3319 28.8619 58.5043 28.6377 58.4738 28.3936C58.4417 28.1495 58.219 27.9771 57.9749 28.0076C57.7308 28.0397 57.5584 28.2624 57.5889 28.5065C57.621 28.7521 57.8437 28.926 58.0878 28.894Z" fill="#F5F5F5"/>
</g>
<path id="Vector_19" d="M43.8398 30.4851V139.152C43.8398 141.492 45.7361 143.388 48.0763 143.388H178.592C180.932 143.388 182.829 141.492 182.829 139.152V39.7559V31.5362C182.829 28.6163 180.461 26.2487 177.541 26.2487H48.0763C45.7376 26.2487 43.8398 28.1465 43.8398 30.4851Z" fill="#C2DBD5"/>
<g id="Group_5">
<g id="Group_6">
<g id="Group_7">
<g id="Group_8">
<path id="Vector_20" d="M38.6562 25.0679V133.735C38.6562 136.075 40.5525 137.971 42.8927 137.971H173.408C175.749 137.971 177.645 136.075 177.645 133.735V34.3387V26.119C177.645 23.1991 175.277 20.8314 172.357 20.8314H42.8927C40.554 20.8314 38.6562 22.7292 38.6562 25.0679Z" fill="#F7F7F7"/>
<path id="Vector_21" d="M177.645 42.8482H38.6562V24.3371C38.6562 22.3768 40.2444 20.7887 42.2047 20.7887H174.095C176.055 20.7887 177.643 22.3768 177.643 24.3371V42.8482H177.645Z" fill="#002A1F"/>
</g>
</g>
<g id="Group_9">
<path id="Vector_22" d="M48.0238 34.8696C49.7088 34.8696 51.0749 33.5035 51.0749 31.8185C51.0749 30.1334 49.7088 28.7674 48.0238 28.7674C46.3387 28.7674 44.9727 30.1334 44.9727 31.8185C44.9727 33.5035 46.3387 34.8696 48.0238 34.8696Z" fill="#FAFAFA"/>
<path id="Vector_23" d="M56.9222 34.8696C58.6073 34.8696 59.9733 33.5035 59.9733 31.8185C59.9733 30.1334 58.6073 28.7674 56.9222 28.7674C55.2371 28.7674 53.8711 30.1334 53.8711 31.8185C53.8711 33.5035 55.2371 34.8696 56.9222 34.8696Z" fill="#FAFAFA"/>
<path id="Vector_24" d="M65.8167 34.8696C67.5018 34.8696 68.8678 33.5035 68.8678 31.8185C68.8678 30.1334 67.5018 28.7674 65.8167 28.7674C64.1317 28.7674 62.7656 30.1334 62.7656 31.8185C62.7656 33.5035 64.1317 34.8696 65.8167 34.8696Z" fill="#FAFAFA"/>
<g id="Group_10">
<path id="Vector_25" d="M165.109 34.4592L161.191 30.5431L162.789 28.9458L165.109 31.2662L167.762 28.6117L169.359 30.209L165.109 34.4592Z" fill="#FAFAFA"/>
</g>
</g>
</g>
<path id="Vector_26" d="M158.875 95.4981H57.7678C56.4985 95.4981 55.4688 94.4683 55.4688 93.1991V76.0519C55.4688 74.7826 56.4985 73.7529 57.7678 73.7529H158.875C160.145 73.7529 161.174 74.7826 161.174 76.0519V93.1991C161.174 94.4683 160.145 95.4981 158.875 95.4981Z" fill="white" stroke="#006A4E" stroke-width="2" stroke-miterlimit="10"/>
</g>
</g>
<circle id="Ellipse 48" cx="66" cy="85" r="3" fill="#3C3C3C"/>
<circle id="Ellipse 49" cx="76" cy="85" r="3" fill="#3C3C3C"/>
<circle id="Ellipse 50" cx="86" cy="85" r="3" fill="#3C3C3C"/>
<circle id="Ellipse 51" cx="96" cy="85" r="3" fill="#3C3C3C"/>
<circle id="Ellipse 52" cx="106" cy="85" r="3" fill="#3C3C3C"/>
<circle id="Ellipse 53" cx="116" cy="85" r="3" fill="#3C3C3C"/>
<circle id="Ellipse 54" cx="126" cy="85" r="3" fill="#3C3C3C"/>
<circle id="Ellipse 55" cx="136" cy="85" r="3" fill="#3C3C3C"/>
</g>
</g>
<path d="M-7047 -1816H3918V-1818H-7047V-1816ZM3919 -1815V5627H3921V-1815H3919ZM3918 5628H-7047V5630H3918V5628ZM-7048 5627V-1815H-7050V5627H-7048ZM-7047 5628C-7047.55 5628 -7048 5627.55 -7048 5627H-7050C-7050 5628.66 -7048.66 5630 -7047 5630V5628ZM3919 5627C3919 5627.55 3918.55 5628 3918 5628V5630C3919.66 5630 3921 5628.66 3921 5627H3919ZM3918 -1816C3918.55 -1816 3919 -1815.55 3919 -1815H3921C3921 -1816.66 3919.66 -1818 3918 -1818V-1816ZM-7047 -1818C-7048.66 -1818 -7050 -1816.66 -7050 -1815H-7048C-7048 -1815.55 -7047.55 -1816 -7047 -1816V-1818Z" fill="white"/>
</g>
<defs>
<clipPath id="clip0_1_2">
<rect width="214.507" height="170" fill="white" transform="translate(0.746094)"/>
</clipPath>
</defs>
</svg>
