<svg width="80" height="80" viewBox="0 0 80 80" fill="none" xmlns="http://www.w3.org/2000/svg">
<rect x="4" y="4" width="72" height="72" rx="36" fill="#E6F0ED"/>
<path d="M52.0014 53C51.8701 53.0002 51.74 52.9744 51.6187 52.9241C51.4974 52.8738 51.3872 52.8 51.2946 52.7069L27.2946 28.7069C27.1149 28.5178 27.0163 28.2661 27.0196 28.0053C27.023 27.7445 27.128 27.4954 27.3124 27.311C27.4968 27.1266 27.746 27.0215 28.0067 27.0182C28.2675 27.0148 28.5192 27.1135 28.7083 27.2931L52.7083 51.2931C52.8481 51.433 52.9432 51.6111 52.9818 51.805C53.0203 51.999 53.0005 52.2 52.9249 52.3826C52.8492 52.5653 52.7211 52.7214 52.5568 52.8313C52.3924 52.9412 52.1991 52.9999 52.0014 53Z" fill="#006A4E"/>
<path d="M51.5064 45.3319C51.4027 45.2069 51.3008 45.0819 51.2008 44.9613C49.8258 43.2981 48.9939 42.2944 48.9939 37.5863C48.9939 35.1488 48.4108 33.1487 47.2614 31.6487C46.4139 30.5406 45.2683 29.7 43.7583 29.0788C43.7389 29.0679 43.7215 29.0538 43.7071 29.0369C43.1639 27.2181 41.6777 26 40.0014 26C38.3252 26 36.8396 27.2181 36.2964 29.035C36.2819 29.0513 36.2648 29.065 36.2458 29.0756C35.7729 29.269 35.3156 29.4989 34.8783 29.7631C34.8137 29.8025 34.7588 29.8561 34.7179 29.9198C34.677 29.9835 34.6511 30.0556 34.6421 30.1308C34.6331 30.206 34.6413 30.2822 34.6661 30.3537C34.6909 30.4253 34.7316 30.4902 34.7852 30.5437L51.1464 46.9025C51.22 46.9762 51.3148 47.025 51.4175 47.0422C51.5202 47.0595 51.6257 47.0442 51.7193 46.9986C51.8129 46.9529 51.8899 46.8792 51.9396 46.7877C51.9893 46.6962 52.0091 46.5915 51.9964 46.4881C51.9482 46.0635 51.778 45.6619 51.5064 45.3319Z" fill="#006A4E"/>
<path d="M31.0102 37.5844C31.0102 42.2944 30.1796 43.2981 28.8033 44.9594C28.7033 45.08 28.6014 45.2025 28.4977 45.33C28.2297 45.6532 28.0599 46.0464 28.0084 46.4631C27.9569 46.8798 28.0258 47.3025 28.2071 47.6812C28.5927 48.4937 29.4146 48.9981 30.3527 48.9981H43.5514C43.6504 48.9982 43.7471 48.9689 43.8294 48.914C43.9117 48.859 43.9759 48.7809 44.0137 48.6895C44.0516 48.5981 44.0615 48.4975 44.0422 48.4005C44.0229 48.3034 43.9752 48.2143 43.9052 48.1444L31.9052 36.1444C31.8377 36.0771 31.7524 36.0305 31.6593 36.0101C31.5663 35.9897 31.4693 35.9963 31.3799 36.0291C31.2904 36.062 31.2122 36.1197 31.1545 36.1954C31.0968 36.2712 31.0619 36.3619 31.0539 36.4569C31.0248 36.819 31.0102 37.1948 31.0102 37.5844Z" fill="#006A4E"/>
<path d="M40.0014 54C40.9046 53.9993 41.7907 53.7541 42.5658 53.2905C43.3409 52.827 43.976 52.1622 44.4039 51.3669C44.4241 51.3288 44.434 51.2861 44.4328 51.243C44.4316 51.1999 44.4193 51.1578 44.397 51.1209C44.3747 51.084 44.3433 51.0534 44.3058 51.0322C44.2682 51.0111 44.2258 51 44.1827 51H35.8214C35.7783 50.9998 35.7358 51.0109 35.6981 51.032C35.6605 51.0532 35.629 51.0837 35.6066 51.1206C35.5843 51.1576 35.5719 51.1997 35.5707 51.2428C35.5694 51.286 35.5794 51.3287 35.5996 51.3669C36.0274 52.1621 36.6625 52.8268 37.4374 53.2904C38.2124 53.7539 39.0984 53.9992 40.0014 54Z" fill="#006A4E"/>
<rect x="4" y="4" width="72" height="72" rx="36" stroke="#C2DBD5" stroke-width="8"/>
</svg>
