<svg width="53" height="52" viewBox="0 0 53 52" fill="none" xmlns="http://www.w3.org/2000/svg">
<rect x="0.5" width="52" height="52" rx="26" fill="#E6F0ED"/>
<rect x="8.5" y="8" width="36" height="36" rx="18" fill="#C2DBD5"/>
<path d="M26.7172 19.9562C26.659 19.9006 26.5817 19.8696 26.5012 19.8696C26.4207 19.8696 26.3433 19.9006 26.2852 19.9562L19.0938 26.8262C19.0632 26.8554 19.0389 26.8905 19.0223 26.9294C19.0058 26.9682 18.9972 27.0101 18.9973 27.0523L18.9961 33.5C18.9961 33.8315 19.1278 34.1495 19.3622 34.3839C19.5966 34.6183 19.9146 34.75 20.2461 34.75H24C24.1658 34.75 24.3247 34.6842 24.442 34.5669C24.5592 34.4497 24.625 34.2908 24.625 34.125V28.8125C24.625 28.7296 24.6579 28.6501 24.7165 28.5915C24.7751 28.5329 24.8546 28.5 24.9375 28.5H28.0625C28.1454 28.5 28.2249 28.5329 28.2835 28.5915C28.3421 28.6501 28.375 28.7296 28.375 28.8125V34.125C28.375 34.2908 28.4409 34.4497 28.5581 34.5669C28.6753 34.6842 28.8343 34.75 29 34.75H32.7524C33.0839 34.75 33.4018 34.6183 33.6362 34.3839C33.8707 34.1495 34.0024 33.8315 34.0024 33.5V27.0523C34.0024 27.0101 33.9939 26.9682 33.9773 26.9294C33.9607 26.8905 33.9364 26.8554 33.9059 26.8262L26.7172 19.9562Z" fill="#006A4E"/>
<path d="M35.6762 25.5371L32.7543 22.7418V18.5C32.7543 18.3342 32.6885 18.1753 32.5713 18.0581C32.454 17.9408 32.2951 17.875 32.1293 17.875H30.2543C30.0885 17.875 29.9296 17.9408 29.8124 18.0581C29.6952 18.1753 29.6293 18.3342 29.6293 18.5V19.75L27.3668 17.5867C27.1551 17.3727 26.8402 17.25 26.5 17.25C26.161 17.25 25.8469 17.3727 25.6352 17.5871L17.3266 25.5363C17.0836 25.7707 17.0531 26.1562 17.2742 26.4102C17.3298 26.4742 17.3977 26.5264 17.474 26.5633C17.5503 26.6003 17.6334 26.6214 17.7181 26.6253C17.8028 26.6291 17.8874 26.6157 17.9668 26.5859C18.0461 26.556 18.1186 26.5103 18.1797 26.4516L26.2852 18.7062C26.3433 18.6506 26.4207 18.6196 26.5012 18.6196C26.5817 18.6196 26.659 18.6506 26.7172 18.7062L34.8235 26.4516C34.9429 26.5661 35.1028 26.6286 35.2682 26.6253C35.4336 26.6221 35.591 26.5534 35.7059 26.4344C35.9457 26.1859 35.9258 25.7758 35.6762 25.5371Z" fill="#006A4E"/>
</svg>
