<svg width="53" height="52" viewBox="0 0 53 52" fill="none" xmlns="http://www.w3.org/2000/svg">
<rect x="0.5" width="52" height="52" rx="26" fill="#E6F0ED"/>
<rect x="8.5" y="8" width="36" height="36" rx="18" fill="#C2DBD5"/>
<path d="M26.5 24.75C27.1904 24.75 27.75 24.1904 27.75 23.5C27.75 22.8096 27.1904 22.25 26.5 22.25C25.8096 22.25 25.25 22.8096 25.25 23.5C25.25 24.1904 25.8096 24.75 26.5 24.75Z" fill="#006A4E"/>
<path d="M26.5 17.25C23.0539 17.25 20.25 19.9316 20.25 23.2266C20.25 24.7957 20.9652 26.8824 22.3758 29.4289C23.5086 31.4734 24.8191 33.3223 25.5008 34.2422C25.616 34.3994 25.7666 34.5272 25.9404 34.6153C26.1142 34.7034 26.3063 34.7493 26.5012 34.7493C26.696 34.7493 26.8882 34.7034 27.062 34.6153C27.2358 34.5272 27.3864 34.3994 27.5016 34.2422C28.182 33.3223 29.4938 31.4734 30.6266 29.4289C32.0348 26.8832 32.75 24.7965 32.75 23.2266C32.75 19.9316 29.9461 17.25 26.5 17.25ZM26.5 26C26.0055 26 25.5222 25.8534 25.1111 25.5787C24.7 25.304 24.3795 24.9135 24.1903 24.4567C24.0011 23.9999 23.9516 23.4972 24.048 23.0123C24.1445 22.5273 24.3826 22.0819 24.7322 21.7322C25.0819 21.3826 25.5273 21.1445 26.0123 21.048C26.4972 20.9516 26.9999 21.0011 27.4567 21.1903C27.9135 21.3795 28.304 21.7 28.5787 22.1111C28.8534 22.5222 29 23.0055 29 23.5C28.9993 24.1628 28.7357 24.7983 28.267 25.267C27.7983 25.7357 27.1628 25.9993 26.5 26Z" fill="#006A4E"/>
</svg>
